<svg id="Layer_1" data-name="Layer 1" xmlns="http://www.w3.org/2000/svg" viewBox="0 0 32 32"><title>si-arrow-down</title><path d="M16,2a0,0,0,0,1,.05,0V29.7a.49.49,0,0,0,.32-.16L28,16A0,0,0,0,1,28,16a0,0,0,0,1,0,.07L16.44,29.6a.58.58,0,0,1-.44.21h0a.62.62,0,0,1-.45-.21L4,16.08a0,0,0,0,1,0,0,.05.05,0,0,1,0,0A0,0,0,0,1,4,16L15.63,29.54a.49.49,0,0,0,.32.16V2.05A0,0,0,0,1,16,2Z" fill="#231f20"/><path d="M16,30.06h0a.86.86,0,0,1-.64-.29L3.77,16.24a.32.32,0,0,1-.07-.19.28.28,0,0,1,.11-.23.29.29,0,0,1,.42,0L15.7,29.24V2.05a.3.3,0,1,1,.6,0V29.24L27.77,15.85a.3.3,0,0,1,.42,0,.3.3,0,0,1,.11.22.32.32,0,0,1-.08.21L16.63,29.77A.82.82,0,0,1,16,30.06ZM4.15,15.91h0Z" fill="#231f20"/></svg>