<svg id="Layer_1" data-name="Layer 1" xmlns="http://www.w3.org/2000/svg" viewBox="0 0 32 32"><title>si-search</title><path d="M25.53,25.58l-5.71-5.71A8.57,8.57,0,0,0,7.67,7.78,8.57,8.57,0,0,0,19.75,19.94l5.71,5.71ZM7.74,19.83a8.47,8.47,0,0,1,12-12,8.47,8.47,0,1,1-12,12Z" fill="#231f20"/><path d="M25.46,25.9a.23.23,0,0,1-.17-.07l-5.54-5.54a8.83,8.83,0,1,1,.42-.42l5.54,5.53a.25.25,0,0,1,0,.36l-.07.07A.24.24,0,0,1,25.46,25.9ZM13.73,5.62A8.23,8.23,0,1,0,19.54,8,8.16,8.16,0,0,0,13.73,5.62Z" fill="#231f20"/></svg>