<svg width="50" height="50" viewBox="0 0 50 50" fill="none" xmlns="http://www.w3.org/2000/svg">
<path fill-rule="evenodd" clip-rule="evenodd" d="M6.25 11C5.42157 11 4.75 11.6716 4.75 12.5C4.75 13.3284 5.42157 14 6.25 14H43.75C44.5784 14 45.25 13.3284 45.25 12.5C45.25 11.6716 44.5784 11 43.75 11H6.25ZM6.25 19.3333C5.42157 19.3333 4.75 20.0049 4.75 20.8333C4.75 21.6618 5.42157 22.3333 6.25 22.3333H43.75C44.5784 22.3333 45.25 21.6618 45.25 20.8333C45.25 20.0049 44.5784 19.3333 43.75 19.3333H6.25ZM4.75 29.1667C4.75 28.3382 5.42157 27.6667 6.25 27.6667H43.75C44.5784 27.6667 45.25 28.3382 45.25 29.1667C45.25 29.9951 44.5784 30.6667 43.75 30.6667H6.25C5.42157 30.6667 4.75 29.9951 4.75 29.1667ZM6.25 36C5.42157 36 4.75 36.6716 4.75 37.5C4.75 38.3284 5.42157 39 6.25 39H43.75C44.5784 39 45.25 38.3284 45.25 37.5C45.25 36.6716 44.5784 36 43.75 36H6.25Z" fill="black"/>
</svg>
