<svg width="50" height="50" viewBox="0 0 50 50" fill="none" xmlns="http://www.w3.org/2000/svg">
<path fill-rule="evenodd" clip-rule="evenodd" d="M21.9689 4.33331C23.3161 1.99998 26.6839 1.99998 28.0311 4.33331L48.0218 38.9583C49.369 41.2916 47.6851 44.2083 44.9908 44.2083H5.00925C2.31495 44.2083 0.63101 41.2916 1.97816 38.9583L21.9689 4.33331ZM25.433 5.83331C25.2406 5.49998 24.7594 5.49998 24.567 5.83331L4.57624 40.4583C4.38379 40.7916 4.62435 41.2083 5.00925 41.2083H44.9908C45.3757 41.2083 45.6162 40.7916 45.4238 40.4583L25.433 5.83331ZM25 17.25C25.8284 17.25 26.5 17.9216 26.5 18.75V27.0833C26.5 27.9118 25.8284 28.5833 25 28.5833C24.1716 28.5833 23.5 27.9118 23.5 27.0833V18.75C23.5 17.9216 24.1716 17.25 25 17.25ZM25 33.9167C24.1716 33.9167 23.5 34.5883 23.5 35.4167C23.5 36.2451 24.1716 36.9167 25 36.9167H25.0208C25.8492 36.9167 26.5208 36.2451 26.5208 35.4167C26.5208 34.5883 25.8492 33.9167 25.0208 33.9167H25Z" fill="black"/>
</svg>
