<svg width="50" height="50" viewBox="0 0 50 50" fill="none" xmlns="http://www.w3.org/2000/svg">
<path fill-rule="evenodd" clip-rule="evenodd" d="M6.25 11C5.42157 11 4.75 11.6716 4.75 12.5C4.75 13.3284 5.42157 14 6.25 14H43.75C44.5784 14 45.25 13.3284 45.25 12.5C45.25 11.6716 44.5784 11 43.75 11H6.25ZM6 19.5C5.17157 19.5 4.5 20.1716 4.5 21C4.5 21.8284 5.17157 22.5 6 22.5H31C31.8284 22.5 32.5 21.8284 32.5 21C32.5 20.1716 31.8284 19.5 31 19.5H6ZM4.75 29.1667C4.75 28.3382 5.42157 27.6667 6.25 27.6667H43.75C44.5784 27.6667 45.25 28.3382 45.25 29.1667C45.25 29.9951 44.5784 30.6667 43.75 30.6667H6.25C5.42157 30.6667 4.75 29.9951 4.75 29.1667ZM6 35.5C5.17157 35.5 4.5 36.1716 4.5 37C4.5 37.8284 5.17157 38.5 6 38.5H31C31.8284 38.5 32.5 37.8284 32.5 37C32.5 36.1716 31.8284 35.5 31 35.5H6Z" fill="black"/>
</svg>
