<svg width="50" height="50" viewBox="0 0 50 50" fill="none" xmlns="http://www.w3.org/2000/svg">
<path fill-rule="evenodd" clip-rule="evenodd" d="M6 4.5C5.17157 4.5 4.5 5.17157 4.5 6V22C4.5 22.8284 5.17157 23.5 6 23.5H22C22.8284 23.5 23.5 22.8284 23.5 22V6C23.5 5.17157 22.8284 4.5 22 4.5H6ZM7.5 20.5V7.5H20.5V20.5H7.5ZM6 26.4167C5.17157 26.4167 4.5 27.0883 4.5 27.9167V43.9167C4.5 44.7451 5.17157 45.4167 6 45.4167H22C22.8284 45.4167 23.5 44.7451 23.5 43.9167V27.9167C23.5 27.0883 22.8284 26.4167 22 26.4167H6ZM7.5 42.4167V29.4167H20.5V42.4167H7.5ZM26.5 6C26.5 5.17157 27.1716 4.5 28 4.5H44C44.8284 4.5 45.5 5.17157 45.5 6V22C45.5 22.8284 44.8284 23.5 44 23.5H28C27.1716 23.5 26.5 22.8284 26.5 22V6ZM29.5 7.5V20.5H42.5V7.5H29.5ZM28 26.4167C27.1716 26.4167 26.5 27.0883 26.5 27.9167V43.9167C26.5 44.7451 27.1716 45.4167 28 45.4167H44C44.8284 45.4167 45.5 44.7451 45.5 43.9167V27.9167C45.5 27.0883 44.8284 26.4167 44 26.4167H28ZM29.5 42.4167V29.4167H42.5V42.4167H29.5Z" fill="black"/>
</svg>
