<svg id="Layer_1" data-name="Layer 1" xmlns="http://www.w3.org/2000/svg" viewBox="0 0 50 50"><path d="M46.3,45.71V32.54a21.3,21.3,0,0,0-42.6,0V45.71H1.93v3.18H48.07V45.71Zm-39.42,0V32.54a18.12,18.12,0,0,1,36.24,0V45.71Z" fill="#231f20"/><rect x="37.51" y="7.63" width="6.87" height="4.59" transform="translate(13.78 42.14) rotate(-63.49)" fill="#231f20"/><rect x="22.6" y="1.11" width="4.59" height="6.87" fill="#231f20"/><rect x="6.66" y="6.4" width="4.59" height="6.87" transform="translate(-3.45 5.03) rotate(-26.51)" fill="#231f20"/><path d="M10.81,30.06H14c0-5,5.45-9.83,11-9.83V17.05C17.71,17.05,10.81,23.37,10.81,30.06Z" fill="#231f20"/></svg>