<svg width="50" height="50" viewBox="0 0 50 50" fill="none" xmlns="http://www.w3.org/2000/svg">
<path fill-rule="evenodd" clip-rule="evenodd" d="M6.25 11C5.42157 11 4.75 11.6716 4.75 12.5C4.75 13.3284 5.42157 14 6.25 14H43.75C44.5784 14 45.25 13.3284 45.25 12.5C45.25 11.6716 44.5784 11 43.75 11H6.25ZM19 19.5C18.1716 19.5 17.5 20.1716 17.5 21C17.5 21.8284 18.1716 22.5 19 22.5H44C44.8284 22.5 45.5 21.8284 45.5 21C45.5 20.1716 44.8284 19.5 44 19.5H19ZM4.75 29.1667C4.75 28.3382 5.42157 27.6667 6.25 27.6667H43.75C44.5784 27.6667 45.25 28.3382 45.25 29.1667C45.25 29.9951 44.5784 30.6667 43.75 30.6667H6.25C5.42157 30.6667 4.75 29.9951 4.75 29.1667ZM19 35.5C18.1716 35.5 17.5 36.1716 17.5 37C17.5 37.8284 18.1716 38.5 19 38.5H44C44.8284 38.5 45.5 37.8284 45.5 37C45.5 36.1716 44.8284 35.5 44 35.5H19Z" fill="black"/>
</svg>
