<svg id="Layer_1" data-name="Layer 1" xmlns="http://www.w3.org/2000/svg" viewBox="0 0 50 50"><path d="M17.9,22a3.51,3.51,0,0,0,1.58-3.24,3.38,3.38,0,0,0-2.14-3.44,11,11,0,0,0-3.52-.48H6.93v8h7.58A6.47,6.47,0,0,0,17.9,22Zm-9-5.16h4.89a9.48,9.48,0,0,1,2.82.35c.41.17.84.49.84,1.57s-.36,1.37-.63,1.53a4.46,4.46,0,0,1-2.34.52H8.93Z"/><path d="M17.72,25.83a7.62,7.62,0,0,0-3.12-.55H6.93V34.5H14.5a7.27,7.27,0,0,0,3.19-.58A4.35,4.35,0,0,0,20,29.64,3.87,3.87,0,0,0,17.72,25.83Zm-.91,6.29a5.49,5.49,0,0,1-2.31.38H8.93V27.28h5.66a5.61,5.61,0,0,1,2.3.37,1.93,1.93,0,0,1,1.14,2C18,31.32,17.33,31.86,16.81,32.12Z"/><path d="M22.58,23.56a5.58,5.58,0,0,0,.81-.8,7,7,0,0,0,1.49-4.62,7.9,7.9,0,0,0-1.43-4.72h0c-1.57-2.13-4.19-3.24-7.82-3.29H1.53V39.2h13.2a19.61,19.61,0,0,0,4-.39,8.39,8.39,0,0,0,3.46-1.54,8.66,8.66,0,0,0,2.16-2.39A9,9,0,0,0,25.74,30a8.24,8.24,0,0,0-1.21-4.52A6.83,6.83,0,0,0,22.58,23.56Zm.1,10.26A6.35,6.35,0,0,1,21,35.68a6.53,6.53,0,0,1-2.66,1.18,18.56,18.56,0,0,1-3.62.34H3.53V12.12H15.6c3,0,5,.87,6.23,2.47a5.94,5.94,0,0,1,1.05,3.55,5,5,0,0,1-1,3.35,5.44,5.44,0,0,1-1.75,1.29l-2,1,2.16.79a5,5,0,0,1,2.63,2A6.25,6.25,0,0,1,23.74,30,6.83,6.83,0,0,1,22.68,33.82Z"/><path d="M48.28,25.53A11,11,0,0,0,46.53,21a9.16,9.16,0,0,0-3.88-3.31h0a12.49,12.49,0,0,0-5.12-1,10.68,10.68,0,0,0-7.87,3.07c-2,2-3.05,5-3.05,8.69,0,4,1.15,7,3.43,8.8a11.94,11.94,0,0,0,7.68,2.68A10.75,10.75,0,0,0,46,36.65a7.56,7.56,0,0,0,2.21-4.19l.13-1.12H41.25l-.29.53A3.28,3.28,0,0,1,40.13,33a3.44,3.44,0,0,1-2.27.69A4.38,4.38,0,0,1,35.5,33,3.4,3.4,0,0,1,34,30.66H48.45l0-1A27,27,0,0,0,48.28,25.53ZM31.84,28.66l0,1a5.77,5.77,0,0,0,2.56,5,6.35,6.35,0,0,0,3.42.91A5.45,5.45,0,0,0,41.4,34.5a5.54,5.54,0,0,0,1-1.16h3.46a7.18,7.18,0,0,1-1.36,1.94,8.72,8.72,0,0,1-6.8,2.6,9.84,9.84,0,0,1-6.43-2.24c-1.78-1.44-2.68-3.87-2.68-7.24,0-3.18.83-5.63,2.46-7.28a8.64,8.64,0,0,1,6.46-2.48,10.54,10.54,0,0,1,4.3.85,7.21,7.21,0,0,1,3,2.62,8.92,8.92,0,0,1,1.44,3.72,20.37,20.37,0,0,1,.16,2.83Z"/><path d="M41.29,22.28A5.57,5.57,0,0,0,37.53,21a5.12,5.12,0,0,0-3.84,1.45A6.4,6.4,0,0,0,32,26.06l-.17,1.14H43.1L43,26.13A5.39,5.39,0,0,0,41.29,22.28Zm-7,2.92a3.82,3.82,0,0,1,.84-1.4A3.17,3.17,0,0,1,37.53,23,3.54,3.54,0,0,1,40,23.8a2.8,2.8,0,0,1,.87,1.4Z"/><path d="M44.67,10.47H30.46V15H44.67Zm-2,2.5H32.46v-.5H42.67Z"/></svg>