<svg id="Layer_1" data-name="Layer 1" xmlns="http://www.w3.org/2000/svg" viewBox="0 0 50 50"><path d="M18.4,20.9a4.1,4.1,0,0,0,1.8-3.7c0-2.6-1.5-3.6-2.4-3.9h-.1a12.5,12.5,0,0,0-3.6-.5H6.7v9.1h8A7,7,0,0,0,18.4,20.9ZM9.7,15.7h4.4a9.8,9.8,0,0,1,2.6.3c.2.1.5.3.5,1.2s-.3,1.1-.4,1.2a4.1,4.1,0,0,1-2.1.4h-5Z"/><path d="M18.2,24a8.3,8.3,0,0,0-3.4-.6H6.7V33.8h8a6.4,6.4,0,0,0,3.4-.7c1.2-.6,2.6-1.9,2.6-4.8A4.5,4.5,0,0,0,18.2,24Zm-1.4,6.4a3.9,3.9,0,0,1-2.1.4h-5V26.4h5.1a6,6,0,0,1,2.1.3,1.6,1.6,0,0,1,.8,1.6C17.7,29.8,17.2,30.2,16.8,30.4Z"/><path d="M41.7,20.5a5.7,5.7,0,0,0-4-1.5,5.4,5.4,0,0,0-4.2,1.6h0a6.7,6.7,0,0,0-1.8,4l-.3,1.7H43.7V24.7A5.6,5.6,0,0,0,41.7,20.5Zm-6.5,2.8.4-.6h0a2.7,2.7,0,0,1,2.1-.7,3.1,3.1,0,0,1,2.1.7l.4.6Z"/><path d="M48.9,24.1A11.2,11.2,0,0,0,47,19.2a9,9,0,0,0-4-3.5,11.7,11.7,0,0,0-5.3-1.1,11.2,11.2,0,0,0-8.3,3.3c-2.1,2.1-3.1,5.2-3.1,9.1a8.4,8.4,0,0,0-1.2-3.1,5.5,5.5,0,0,0-1.6-1.8l.5-.5a8.1,8.1,0,0,0,1.6-5,8.5,8.5,0,0,0-1.5-5.1H24C22.4,9.2,19.6,8,15.8,7.9H1.3V38.6H15a27.1,27.1,0,0,0,4.1-.4,8.6,8.6,0,0,0,3.6-1.7,9.7,9.7,0,0,0,3.7-7.4,10.2,10.2,0,0,0,3.5,7.3,12,12,0,0,0,7.9,2.9c3.7,0,6.6-1.2,8.6-3.5a8.3,8.3,0,0,0,2.4-4.5V29.8H49V28.4A27.3,27.3,0,0,0,48.9,24.1ZM22.4,32.4a5,5,0,0,1-1.5,1.7,5.3,5.3,0,0,1-2.4,1.1,13.4,13.4,0,0,1-3.5.4H4.3V10.9H15.8c2.8,0,4.7.8,5.8,2.3a6,6,0,0,1,1,3.4,4.5,4.5,0,0,1-1,3.1,4.9,4.9,0,0,1-1.5,1.2l-3,1.6,3.1,1.1a4.2,4.2,0,0,1,2.4,1.9,6.1,6.1,0,0,1,.8,3.2A6.6,6.6,0,0,1,22.4,32.4Zm9.1-5.6v1.6A6.2,6.2,0,0,0,38,34.9a5.5,5.5,0,0,0,3.8-1.3,3.2,3.2,0,0,0,1-1h2.3a4.7,4.7,0,0,1-.9,1.2c-1.5,1.7-3.6,2.5-6.4,2.5a8.7,8.7,0,0,1-6-2.2c-1.7-1.4-2.5-3.7-2.5-7s.8-5.6,2.3-7.2a8,8,0,0,1,6.1-2.3,8.7,8.7,0,0,1,4,.8,5.7,5.7,0,0,1,2.8,2.5,8.2,8.2,0,0,1,1.4,3.6,15.5,15.5,0,0,1,.1,2.3Zm9.4,3-.3.6a2.2,2.2,0,0,1-.7.9,2.9,2.9,0,0,1-1.9.6,3.6,3.6,0,0,1-2.1-.5,2.4,2.4,0,0,1-1.1-1.6Z"/></svg>