<svg id="Layer_1" data-name="Layer 1" xmlns="http://www.w3.org/2000/svg" viewBox="0 0 50 50"><path d="M45.62,10.79H33.39a3.87,3.87,0,0,0,0-.49V5.5a3.48,3.48,0,0,0-3.5-3.45H20.06a3.48,3.48,0,0,0-3.5,3.45v4.8a3.87,3.87,0,0,0,.05.49H4.38a3.48,3.48,0,0,0-3.5,3.45v10a2.46,2.46,0,0,0,1.45,2.23v19A2.49,2.49,0,0,0,4.83,48H45.17a2.49,2.49,0,0,0,2.5-2.47v-19a2.46,2.46,0,0,0,1.45-2.23v-10A3.48,3.48,0,0,0,45.62,10.79ZM19.56,10.3V5.5a.49.49,0,0,1,.5-.49h9.88a.49.49,0,0,1,.5.49v4.8a.49.49,0,0,1-.5.49H20.06A.49.49,0,0,1,19.56,10.3ZM3.88,14.24a.49.49,0,0,1,.5-.49H45.62a.49.49,0,0,1,.5.49v9.48H3.88ZM26.76,27.17V32a.51.51,0,0,1-.5.5H23.74a.51.51,0,0,1-.5-.5V27.17a.49.49,0,0,1,.5-.49h2.52A.49.49,0,0,1,26.76,27.17ZM5.33,45V26.68h15a3.87,3.87,0,0,0-.05.49V32a3.48,3.48,0,0,0,3.5,3.46h2.52A3.48,3.48,0,0,0,29.76,32V27.17a3.87,3.87,0,0,0-.05-.49h15V45Z" fill="#231f20"/></svg>