<svg width="50" height="50" viewBox="0 0 50 50" fill="none" xmlns="http://www.w3.org/2000/svg">
<path fill-rule="evenodd" clip-rule="evenodd" d="M12.0607 9.93934C11.4749 9.35355 10.5251 9.35355 9.93934 9.93934C9.35355 10.5251 9.35355 11.4749 9.93934 12.0607L22.8787 25L9.93934 37.9393C9.35355 38.5251 9.35355 39.4749 9.93934 40.0607C10.5251 40.6464 11.4749 40.6464 12.0607 40.0607L25 27.1213L37.9393 40.0607C38.5251 40.6464 39.4749 40.6464 40.0607 40.0607C40.6464 39.4749 40.6464 38.5251 40.0607 37.9393L27.1213 25L40.0607 12.0607C40.6464 11.4749 40.6464 10.5251 40.0607 9.93934C39.4749 9.35355 38.5251 9.35355 37.9393 9.93934L25 22.8787L12.0607 9.93934Z" fill="black"/>
</svg>
