<svg width="50" height="50" viewBox="0 0 50 50" fill="none" xmlns="http://www.w3.org/2000/svg">
<path fill-rule="evenodd" clip-rule="evenodd" d="M36 3.5C36.8284 3.5 37.5 4.17157 37.5 5V7H44C45.6569 7 47 8.34315 47 10V44C47 45.6569 45.6569 47 44 47H6C4.34315 47 3 45.6569 3 44V10C3 8.34315 4.34315 7 6 7H12.5V5C12.5 4.17157 13.1716 3.5 14 3.5C14.8284 3.5 15.5 4.17157 15.5 5V7H34.5V5C34.5 4.17157 35.1716 3.5 36 3.5ZM12.5 10V14C12.5 14.8284 13.1716 15.5 14 15.5C14.8284 15.5 15.5 14.8284 15.5 14V10H34.5V14C34.5 14.8284 35.1716 15.5 36 15.5C36.8284 15.5 37.5 14.8284 37.5 14V10H44V18.5H6V10H12.5ZM6 21.5L6 44H44V21.5H6Z" fill="black"/>
</svg>
