<svg id="Layer_1" data-name="Layer 1" xmlns="http://www.w3.org/2000/svg" viewBox="0 0 50 50"><path d="M25,1.24A23.76,23.76,0,1,0,48.76,25,23.79,23.79,0,0,0,25,1.24Zm0,44.52A20.76,20.76,0,1,1,45.76,25,20.78,20.78,0,0,1,25,45.76Z"/><path d="M34.16,25.31a24.67,24.67,0,0,0-7.55-2.86,32.21,32.21,0,0,1-6.35-1.95A2.53,2.53,0,0,1,19,18.13a3,3,0,0,1,1.65-2.77,8,8,0,0,1,3.86-.93h.6c3.57.07,5.46,1.38,5.63,3.94h5q-.21-6.81-8.54-7.7V7.5H23.48v3.06a11.27,11.27,0,0,0-6.61,2.26A7.08,7.08,0,0,0,14,18.58q0,3.86,2.28,5.39a24.12,24.12,0,0,0,7.23,2.77,39.09,39.09,0,0,1,6.53,2,2.73,2.73,0,0,1,1.58,2.67A3.92,3.92,0,0,1,30,34.64a7.49,7.49,0,0,1-4.71,1.28q-6.91,0-7-5.12h-5c.32,5.5,3.69,8.47,10.1,9V42.5h3.68V39.73a11.53,11.53,0,0,0,6.42-2.42,7.9,7.9,0,0,0,3-6.35Q36.62,26.94,34.16,25.31Z"/></svg>