<svg width="50" height="50" viewBox="0 0 50 50" fill="none" xmlns="http://www.w3.org/2000/svg">
<path fill-rule="evenodd" clip-rule="evenodd" d="M25 8.5C25.8284 8.5 26.5 9.17157 26.5 10L26.5 30.462L32.2727 24.6893C32.8585 24.1036 33.8082 24.1036 34.394 24.6893C34.9798 25.2751 34.9798 26.2249 34.394 26.8107L26.0607 35.144C25.4749 35.7298 24.5251 35.7298 23.9394 35.144L15.606 26.8107C15.0202 26.2249 15.0202 25.2751 15.606 24.6893C16.1918 24.1036 17.1416 24.1036 17.7273 24.6893L23.5 30.462L23.5 10C23.5 9.17157 24.1716 8.5 25 8.5ZM12.5 39.6667C12.5 38.8382 13.1716 38.1667 14 38.1667H36C36.8284 38.1667 37.5 38.8382 37.5 39.6667C37.5 40.4951 36.8284 41.1667 36 41.1667H14C13.1716 41.1667 12.5 40.4951 12.5 39.6667Z" fill="black"/>
</svg>
