<svg id="Layer_1" data-name="Layer 1" xmlns="http://www.w3.org/2000/svg" viewBox="0 0 50 50"><path d="M25,.93A24.07,24.07,0,1,0,49.07,25,24.1,24.1,0,0,0,25,.93ZM46.07,25c0,.23,0,.45,0,.67a43.54,43.54,0,0,0-15.75,1.56l-.07,0c-.22-.58-.44-1.16-.67-1.72A71.19,71.19,0,0,0,26,18,37.45,37.45,0,0,0,39.48,9.74,21,21,0,0,1,46.07,25ZM37.16,7.82a35.25,35.25,0,0,1-12.62,7.5A45.64,45.64,0,0,0,17,5.52a21,21,0,0,1,20.17,2.3ZM14.14,7a40.67,40.67,0,0,1,7.49,9.32l-.57.16A40.06,40.06,0,0,1,5.18,17.92,21.13,21.13,0,0,1,14.14,7ZM3.93,25a20.48,20.48,0,0,1,.42-4.17,32.61,32.61,0,0,0,4.94.36,47,47,0,0,0,12.56-1.83L23.17,19a68.25,68.25,0,0,1,3.6,7.68c.2.49.4,1,.59,1.52-7.66,2.71-13.95,7.25-16.83,12.11A21,21,0,0,1,3.93,25Zm9,17.21c2.35-4.4,8.18-8.63,15.46-11.2a56,56,0,0,1,2.82,14.14,21,21,0,0,1-18.28-2.94ZM34.09,44A60.45,60.45,0,0,0,31.2,30.09a40.16,40.16,0,0,1,14.53-1.43A21.1,21.1,0,0,1,34.09,44Z"/></svg>