<svg width="50" height="50" viewBox="0 0 50 50" fill="none" xmlns="http://www.w3.org/2000/svg">
<path fill-rule="evenodd" clip-rule="evenodd" d="M20.2167 20.9167C21.1555 20.9167 21.9167 20.1556 21.9167 19.2167L21.9167 9C21.9167 8.17157 21.2451 7.5 20.4167 7.5C19.5882 7.5 18.9167 8.17157 18.9167 9L18.9167 17.9167L10 17.9167C9.17157 17.9167 8.5 18.5882 8.5 19.4167C8.5 20.2451 9.17157 20.9167 10 20.9167L20.2167 20.9167ZM30.6167 28.25C29.6778 28.25 28.9167 29.0111 28.9167 29.95V40.1667C28.9167 40.9951 29.5882 41.6667 30.4167 41.6667C31.2451 41.6667 31.9167 40.9951 31.9167 40.1667V31.25H40.8333C41.6618 31.25 42.3333 30.5784 42.3333 29.75C42.3333 28.9216 41.6618 28.25 40.8333 28.25H30.6167ZM30.6167 20.9167C29.6778 20.9167 28.9167 20.1555 28.9167 19.2167V9C28.9167 8.17157 29.5882 7.5 30.4167 7.5C31.2451 7.5 31.9167 8.17157 31.9167 9V17.9167H40.8333C41.6618 17.9167 42.3333 18.5882 42.3333 19.4167C42.3333 20.2451 41.6618 20.9167 40.8333 20.9167H30.6167ZM21.9167 29.95C21.9167 29.0111 21.1556 28.25 20.2167 28.25H10C9.17157 28.25 8.5 28.9216 8.5 29.75C8.5 30.5784 9.17157 31.25 10 31.25H18.9167V40.1667C18.9167 40.9951 19.5882 41.6667 20.4167 41.6667C21.2451 41.6667 21.9167 40.9951 21.9167 40.1667V29.95Z" fill="black"/>
</svg>
