<svg width="50" height="50" viewBox="0 0 50 50" fill="none" xmlns="http://www.w3.org/2000/svg">
<path fill-rule="evenodd" clip-rule="evenodd" d="M15.2051 2.84028C15.4855 2.55799 15.8664 2.39862 16.2643 2.39723L33.91 2.33564C34.3078 2.33425 34.6899 2.49096 34.9722 2.77128L47.4931 15.2051C47.7754 15.4855 47.9348 15.8664 47.9362 16.2643L47.9978 33.91C47.9991 34.3078 47.8424 34.6899 47.5621 34.9722L35.1283 47.4931C34.8479 47.7754 34.467 47.9348 34.0691 47.9362L16.4234 47.9978C16.0256 47.9991 15.6435 47.8424 15.3612 47.5621L2.84028 35.1283C2.55799 34.8479 2.39862 34.467 2.39724 34.0691L2.33564 16.4234C2.33425 16.0256 2.49096 15.6435 2.77128 15.3612L15.2051 2.84028ZM5.33779 17.0343L5.39505 33.4374L17.0343 44.9956L33.4374 44.9384L44.9956 33.2991L44.9384 16.896L33.2991 5.33779L16.896 5.39505L5.33779 17.0343ZM34.394 17.2727C34.9798 17.8585 34.9798 18.8083 34.394 19.394L27.9547 25.8334L34.394 32.2727C34.9798 32.8585 34.9798 33.8083 34.394 34.394C33.8082 34.9798 32.8585 34.9798 32.2727 34.394L25.8334 27.9547L19.394 34.394C18.8082 34.9798 17.8585 34.9798 17.2727 34.394C16.6869 33.8083 16.6869 32.8585 17.2727 32.2727L23.712 25.8334L17.2727 19.394C16.6869 18.8083 16.6869 17.8585 17.2727 17.2727C17.8585 16.6869 18.8082 16.6869 19.394 17.2727L25.8334 23.7121L32.2727 17.2727C32.8585 16.6869 33.8082 16.6869 34.394 17.2727Z" fill="black"/>
</svg>
