<svg id="Layer_1" data-name="Layer 1" xmlns="http://www.w3.org/2000/svg" viewBox="0 0 50 50"><path d="M46,18.23V45.79H4V10H25.65V7H2.5A1.5,1.5,0,0,0,1,8.52V47.29a1.5,1.5,0,0,0,1.5,1.5h45a1.5,1.5,0,0,0,1.5-1.5V18.23Z"/><path d="M16.51,27.38l-2,7.68A1.48,1.48,0,0,0,15,36.5a1.5,1.5,0,0,0,1.05.43,1.39,1.39,0,0,0,.4-.06L24,34.76a1.5,1.5,0,0,0,.82-.59L47.58,10.39a1.52,1.52,0,0,0,0-2.08L42,2.52a1.55,1.55,0,0,0-2.17,0l-22.95,24A1.48,1.48,0,0,0,16.51,27.38Zm2.88.85L40.94,5.72l3.48,3.63L22.73,32l-4.63,1.3Z"/></svg>