<svg width="24" height="22" viewBox="0 0 24 22" fill="none" xmlns="http://www.w3.org/2000/svg">
<path fill-rule="evenodd" clip-rule="evenodd" d="M4 0.5C2.89543 0.5 2 1.39543 2 2.5V3.5C2 3.55666 2.00236 3.61278 2.00698 3.66825C0.838141 4.07811 0 5.19118 0 6.5V18.5C0 20.1569 1.34315 21.5 3 21.5H21C22.6569 21.5 24 20.1569 24 18.5V6.5C24 4.84315 22.6569 3.5 21 3.5H11.874C11.4299 1.77477 9.86384 0.5 8 0.5H4ZM9.73244 3.5C9.38663 2.9022 8.74028 2.5 8 2.5H4V3.5H9.73244ZM3 5.5C2.44772 5.5 2 5.94772 2 6.5V18.5C2 19.0523 2.44772 19.5 3 19.5H21C21.5523 19.5 22 19.0523 22 18.5V6.5C22 5.94772 21.5523 5.5 21 5.5H3Z" fill="black"/>
</svg>
