<svg width="50" height="50" viewBox="0 0 50 50" fill="none" xmlns="http://www.w3.org/2000/svg">
<path fill-rule="evenodd" clip-rule="evenodd" d="M6.45 4.75C5.51112 4.75 4.75 5.51111 4.75 6.45V16.6667C4.75 17.4951 5.42157 18.1667 6.25 18.1667C7.07843 18.1667 7.75 17.4951 7.75 16.6667V7.75H16.6667C17.4951 7.75 18.1667 7.07843 18.1667 6.25C18.1667 5.42157 17.4951 4.75 16.6667 4.75H6.45ZM43.55 45.25C44.4889 45.25 45.25 44.4889 45.25 43.55V33.3333C45.25 32.5049 44.5784 31.8333 43.75 31.8333C42.9216 31.8333 42.25 32.5049 42.25 33.3333V42.25H33.3333C32.5049 42.25 31.8333 42.9216 31.8333 43.75C31.8333 44.5784 32.5049 45.25 33.3333 45.25H43.55ZM43.55 4.75C44.4889 4.75 45.25 5.51112 45.25 6.45V16.6667C45.25 17.4951 44.5784 18.1667 43.75 18.1667C42.9216 18.1667 42.25 17.4951 42.25 16.6667V7.75L33.3333 7.75C32.5049 7.75 31.8333 7.07843 31.8333 6.25C31.8333 5.42157 32.5049 4.75 33.3333 4.75H43.55ZM4.75 43.55C4.75 44.4889 5.51111 45.25 6.45 45.25H16.6667C17.4951 45.25 18.1667 44.5784 18.1667 43.75C18.1667 42.9216 17.4951 42.25 16.6667 42.25H7.75L7.75 33.3333C7.75 32.5049 7.07843 31.8333 6.25 31.8333C5.42157 31.8333 4.75 32.5049 4.75 33.3333V43.55Z" fill="black"/>
</svg>
