<svg id="Layer_1" data-name="Layer 1" xmlns="http://www.w3.org/2000/svg" viewBox="0 0 50 50"><path d="M44.1,13.4a10.8,10.8,0,0,0-1.9-3.5c1-3.8.9-6.4-.5-8.2a1.6,1.6,0,0,0-1.1-.5c-2.8-.2-5.6.7-8.7,2.7L28,3.4A32.9,32.9,0,0,0,18,4C14.7,1.6,12,.7,9.9,1.4a1.2,1.2,0,0,0-.9.8,13,13,0,0,0-.6,8.4A13.5,13.5,0,0,0,6,18.3v.6a14.3,14.3,0,0,0,11.9,14,8,8,0,0,0-.6,3v2.9a6.6,6.6,0,0,1-4.6-.2C8.8,36.8,7,31.2,7,31.1a1.5,1.5,0,0,0-1.9-.9,1.5,1.5,0,0,0-1,1.9c.1.2,2.3,6.8,7.4,9.2a8.1,8.1,0,0,0,3.8.8,7.1,7.1,0,0,0,2-.2v4.4a7.7,7.7,0,0,0,.2,1.5A1.4,1.4,0,0,0,18.9,49h.3a1.4,1.4,0,0,0,1.2-1.7,2.8,2.8,0,0,1-.1-.9V35.9a5.1,5.1,0,0,1,1.3-3.3,1.6,1.6,0,0,0,.3-1.6,1.7,1.7,0,0,0-1.4-.9h-.3A11.2,11.2,0,0,1,9,18.9v-.6a11.1,11.1,0,0,1,2.2-6.5,1.9,1.9,0,0,0,.2-1.3,11.2,11.2,0,0,1,0-6.3c.9,0,2.6.5,5.3,2.6a1.9,1.9,0,0,0,1.5.2h0a29.9,29.9,0,0,1,9.5-.6,32.7,32.7,0,0,1,4.2.6,1.6,1.6,0,0,0,1.2-.2,12.6,12.6,0,0,1,6.5-2.7c.3.9.5,2.5-.5,5.7a1.7,1.7,0,0,0,.3,1.4,9.4,9.4,0,0,1,1.9,3.2,10.7,10.7,0,0,1,.7,3.9v.6A11.2,11.2,0,0,1,30.7,30.1a1.4,1.4,0,0,0-1.3.9,1.4,1.4,0,0,0,.2,1.6,4.6,4.6,0,0,1,1.3,3.3V46.3a2.8,2.8,0,0,1-.1.9,1.5,1.5,0,0,0,3,.6,7.6,7.6,0,0,0,.1-1.5V35.9a7.7,7.7,0,0,0-.6-3A14.2,14.2,0,0,0,45,18.9v-.6A14.1,14.1,0,0,0,44.1,13.4Z"/></svg>