<svg id="Layer_1" data-name="Layer 1" xmlns="http://www.w3.org/2000/svg" viewBox="0 0 50 50"><path d="M25,2.33a23.12,23.12,0,0,0-7,45.24,1.83,1.83,0,0,0,1.63-.28,1.88,1.88,0,0,0,.76-1.51v-5.5l-1.18.23c-.74.14-1.63.25-1.76.26a6.12,6.12,0,0,1-1.85-.15A4.08,4.08,0,0,1,13,38.91c-.17-.28-.31-.57-.45-.86a10.41,10.41,0,0,0-.68-1.26c.21.26.38.5.51.69,1.23,1.8,3.69,3.16,6,2.27a5.34,5.34,0,0,0,1.3-.74h.64v-.93a3,3,0,0,1,1.08-1.85l2.16-1.73-2.76-.05A9.46,9.46,0,0,1,11.64,25a9.1,9.1,0,0,1,1.08-4.4,7.65,7.65,0,0,1,1-1.47l.33-.38L14,18.3c-.33-1.54-.67-3.64,0-4.6.88-.15,2.48.54,4.77,2.06l.36.24.42-.11c.27-.06.56-.12.83-.16a24.75,24.75,0,0,1,7.39-.24l2,.25q.38,0,.72.12l.42.1.36-.25c1.68-1.13,3.72-2.35,4.93-2,.41.73.37,2.31-.13,4.71l-.1.48.33.38a6.15,6.15,0,0,1,.59.78,9.11,9.11,0,0,1,1.45,4.46c0,.18,0,.36,0,.56a9.46,9.46,0,0,1-9.23,9.4l-2.74.05,2.13,1.73a3,3,0,0,1,1.14,2.41v7.19a1.88,1.88,0,0,0,.76,1.49,1.78,1.78,0,0,0,1.08.36,1.89,1.89,0,0,0,.53-.08,23.08,23.08,0,0,0,16.5-22.11A23.33,23.33,0,0,0,25,2.33Zm6.6,43.28v-7A5.12,5.12,0,0,0,31,36.24,11.48,11.48,0,0,0,40.29,25c0-.24,0-.46,0-.68a11.1,11.1,0,0,0-1.77-5.43c-.14-.21-.29-.42-.44-.62.44-2.3.67-4.74-.55-6.13L37.38,12l-.2-.09c-2-.9-4.38.34-6.74,1.89L30,13.75l-2-.25a26.92,26.92,0,0,0-8,.26l-.56.1c-2.17-1.41-4.58-2.67-6.42-2l-.2.07-.15.15c-1.44,1.43-1.25,3.86-.8,6.14A10.76,10.76,0,0,0,11,19.67,11.29,11.29,0,0,0,9.64,25a11.48,11.48,0,0,0,9.28,11.2,4.68,4.68,0,0,0-.44,1.22,3.74,3.74,0,0,1-.74.42c-1.35.51-2.9-.4-3.67-1.53-1.61-2.36-3.38-3.43-5.13-3.11a1.67,1.67,0,0,0-1.39,1.18c-.14.66.2,1.27,1,1.84A7.34,7.34,0,0,1,10,37.53a5.88,5.88,0,0,1,.83,1.39c.16.34.33.67.53,1A6,6,0,0,0,15,42.55a7.7,7.7,0,0,0,2.47.21l.82-.09v2.92A21.08,21.08,0,0,1,3.54,25.48,21.33,21.33,0,0,1,25,4.33,21.34,21.34,0,0,1,46.46,25.48,21.07,21.07,0,0,1,31.59,45.61Z"/></svg>