<svg id="Layer_1" data-name="Layer 1" xmlns="http://www.w3.org/2000/svg" viewBox="0 0 50 50"><path d="M25,1.1A23.9,23.9,0,1,0,48.9,25,23.9,23.9,0,0,0,25,1.1ZM45.9,23.5H33.8c-.1-7.4-1.5-14.7-3.9-18.8A21,21,0,0,1,45.9,23.5ZM25,45.9c-2.3,0-5.6-7.5-5.8-19.4H30.8C30.6,38.4,27.3,45.9,25,45.9ZM19.2,23.5C19.4,11.6,22.7,4.1,25,4.1s5.6,7.5,5.8,19.4Zm.9-18.8c-2.4,4.1-3.8,11.4-3.9,18.8H4.1A21,21,0,0,1,20.1,4.7ZM4.1,26.5H16.2c.1,7.4,1.5,14.7,3.9,18.8A21,21,0,0,1,4.1,26.5ZM29.9,45.3c2.4-4.1,3.8-11.4,3.9-18.8H45.9A21,21,0,0,1,29.9,45.3Z"/></svg>