<svg id="Layer_1" data-name="Layer 1" xmlns="http://www.w3.org/2000/svg" viewBox="0 0 50 50"><path d="M42.26,7.11a6.28,6.28,0,0,0-2.76.64L25.07,18.43,13.55,9.89l-2.29-1.7A6.2,6.2,0,0,0,7.74,7.11,6.29,6.29,0,0,0,1.45,13.4V38.87a4,4,0,0,0,4,4h8.69V27.57l11,8.15,10.77-8V42.89h8.62a4,4,0,0,0,4-4V13.4A6.29,6.29,0,0,0,42.26,7.11Zm3.29,31.76a1,1,0,0,1-1,1H38.91V21.76L25.14,32l-14-10.39v18.3H5.47a1,1,0,0,1-1-1V13.4a3.3,3.3,0,0,1,3.29-3.29,3.15,3.15,0,0,1,1.77.52L25.07,22.17l13.24-9.82,2.63-2a3.28,3.28,0,0,1,4.61,3Z"/></svg>