<svg id="Layer_1" data-name="Layer 1" xmlns="http://www.w3.org/2000/svg" viewBox="0 0 50 50"><path d="M45.35,8.7A7.52,7.52,0,1,0,35.93,16v2.54A1.39,1.39,0,0,1,34.6,20L19.22,20a13.89,13.89,0,0,0-5.15.76V16a7.53,7.53,0,1,0-3.79,0V34a7.52,7.52,0,1,0,3.79,0V25.39c.58-1.35,3.61-1.69,5.06-1.61l15.47,0a5.19,5.19,0,0,0,5.12-5.23V16A7.54,7.54,0,0,0,45.35,8.7ZM8.44,8.7a3.74,3.74,0,1,1,3.73,3.73A3.74,3.74,0,0,1,8.44,8.7Zm7.47,32.6a3.74,3.74,0,1,1-3.74-3.73A3.74,3.74,0,0,1,15.91,41.3ZM37.83,12.43A3.73,3.73,0,1,1,41.56,8.7,3.74,3.74,0,0,1,37.83,12.43Z"/></svg>