<svg id="Layer_1" data-name="Layer 1" xmlns="http://www.w3.org/2000/svg" viewBox="0 0 50 50"><path d="M44.23,7.22A12.17,12.17,0,0,0,34.08,4.84a14.76,14.76,0,0,0-5.54,2.57,18.6,18.6,0,0,0-2.6,2.33l-.32.32L25,10.7l-.62-.64-.31-.31a18.14,18.14,0,0,0-2.61-2.34,14.71,14.71,0,0,0-5.55-2.57A12.12,12.12,0,0,0,5.77,7.22a12.31,12.31,0,0,0-4.42,9.67c0,4.47,2.07,8.81,6.07,12.9A158.27,158.27,0,0,0,24,44.66l1,.77,1-.77A157.27,157.27,0,0,0,42.58,29.79c4-4.1,6.05-8.44,6.07-12.9h0A12.34,12.34,0,0,0,44.23,7.22Zm-4,20.27A153.48,153.48,0,0,1,25,41.26,154.6,154.6,0,0,1,9.78,27.49c-3.39-3.46-5.12-7-5.13-10.61a9,9,0,0,1,3.2-7.11,8.7,8.7,0,0,1,5.48-1.91,9.17,9.17,0,0,1,1.88.2,11.39,11.39,0,0,1,4.31,2A15.57,15.57,0,0,1,21.66,12l.39.4c.22.22.78.78,1.12,1.2h0l.07.09.14.21,0,0h0A13.7,13.7,0,0,1,25,17.21a9.29,9.29,0,0,1,2.59-4.45l.36-.37.4-.4a15.17,15.17,0,0,1,2.14-1.93,11.54,11.54,0,0,1,4.29-2,8.83,8.83,0,0,1,7.37,1.71,9.15,9.15,0,0,1,3.2,7.11C45.34,20.45,43.61,24,40.22,27.49Z"/></svg>