<svg id="Layer_1" data-name="Layer 1" xmlns="http://www.w3.org/2000/svg" viewBox="0 0 50 50"><path d="M36.21,1.07H13.79A12.73,12.73,0,0,0,1.07,13.79V36.21A12.74,12.74,0,0,0,13.79,48.93H36.21A12.74,12.74,0,0,0,48.93,36.21V13.79A12.73,12.73,0,0,0,36.21,1.07Zm9.72,35.14a9.73,9.73,0,0,1-9.72,9.72H13.79a9.73,9.73,0,0,1-9.72-9.72V13.79a9.73,9.73,0,0,1,9.72-9.72H36.21a9.73,9.73,0,0,1,9.72,9.72Z"/><path d="M25,13.39A11.61,11.61,0,1,0,36.61,25,11.63,11.63,0,0,0,25,13.39Zm0,20.22A8.61,8.61,0,1,1,33.61,25,8.62,8.62,0,0,1,25,33.61Z"/><path d="M38.07,8.72a3,3,0,1,0,3,3A3,3,0,0,0,38.07,8.72Z"/></svg>