<svg width="50" height="50" viewBox="0 0 50 50" fill="none" xmlns="http://www.w3.org/2000/svg">
<path fill-rule="evenodd" clip-rule="evenodd" d="M25 5.66669C14.3225 5.66669 5.66666 14.3225 5.66666 25C5.66666 35.6775 14.3225 44.3334 25 44.3334C35.6775 44.3334 44.3333 35.6775 44.3333 25C44.3333 14.3225 35.6775 5.66669 25 5.66669ZM2.66666 25C2.66666 12.6657 12.6656 2.66669 25 2.66669C37.3344 2.66669 47.3333 12.6657 47.3333 25C47.3333 37.3344 37.3344 47.3334 25 47.3334C12.6656 47.3334 2.66666 37.3344 2.66666 25ZM25 23.5C25.8284 23.5 26.5 24.1716 26.5 25V33.3333C26.5 34.1618 25.8284 34.8333 25 34.8333C24.1716 34.8333 23.5 34.1618 23.5 33.3333V25C23.5 24.1716 24.1716 23.5 25 23.5ZM26.5 16.6667C26.5 15.8383 25.8284 15.1667 25 15.1667C24.1716 15.1667 23.5 15.8383 23.5 16.6667V16.875C23.5 17.7034 24.1716 18.375 25 18.375C25.8284 18.375 26.5 17.7034 26.5 16.875V16.6667Z" fill="black"/>
</svg>
