<svg id="Layer_1" data-name="Layer 1" xmlns="http://www.w3.org/2000/svg" viewBox="0 0 32 32"><path d="M13.55,25a1,1,0,0,1-.24,0,7.18,7.18,0,0,1-.74-.24,9.1,9.1,0,0,1-5.93-8.55,9.33,9.33,0,0,1,18.65,0,9.14,9.14,0,0,1-5.87,8.52,4.24,4.24,0,0,1-.76.26,1.14,1.14,0,0,1-.93-.21,1,1,0,0,1-.37-.77V21.25a1.12,1.12,0,0,0-.34-.79l-1-1-1.1,1a1,1,0,0,0-.31.64l0,.45-.05,0,.07.65v1.64a1.16,1.16,0,0,1-.42.88A1.05,1.05,0,0,1,13.55,25ZM12.5,23a6.65,6.65,0,0,0,.61.27v-.24A3,3,0,0,1,12.5,23Zm6.26-2.51a2.91,2.91,0,0,1,.1.72v2a7.65,7.65,0,0,0,4.93-7.13,7.83,7.83,0,0,0-15.65,0A7.63,7.63,0,0,0,9,19.61a.66.66,0,0,1,0-.14l0-.37.38-.27a1.47,1.47,0,0,1,1.14,0h.05A4.55,4.55,0,0,1,9.7,16.1v-.17a4.75,4.75,0,0,1,.89-2.72A2.83,2.83,0,0,1,11,10.69l.18-.2.26,0a3.66,3.66,0,0,1,2.4.75A11,11,0,0,1,16,11.08c.65,0,1.29.1,1.91.18H18a4.13,4.13,0,0,1,2.51-.83l.44,0,.19.4a4.11,4.11,0,0,1,.24,2.43A5,5,0,0,1,22,14.42a4.78,4.78,0,0,1,.25,1.51v.17A4.6,4.6,0,0,1,18.76,20.53Zm-9.26,0a6.68,6.68,0,0,0,.72.89v0a1.69,1.69,0,0,0-.11-.23,2.31,2.31,0,0,0-.41-.49Zm2.69-.34h0a.94.94,0,0,0,.82.32A3.91,3.91,0,0,1,12.19,20.16Zm3.55-1h1.81a3.11,3.11,0,0,0,3.16-3.08v-.17a3.21,3.21,0,0,0-.17-1A3,3,0,0,0,20,14l-.22-.27.06-.34A4.88,4.88,0,0,0,19.94,12a3.83,3.83,0,0,0-1.31.68l-.27.2L18,12.8l-.29-.05A16.07,16.07,0,0,0,16,12.58a9,9,0,0,0-2.08.15l-.32.07-.27-.17A4.58,4.58,0,0,0,12,12a3,3,0,0,0,.1,1.26l.08.37-.24.28a3.26,3.26,0,0,0-.77,2v.17a3.11,3.11,0,0,0,3.13,3.08Z"/></svg>