<svg id="Layer_1" data-name="Layer 1" xmlns="http://www.w3.org/2000/svg" viewBox="0 0 32 32"><path d="M16,7.24a9,9,0,0,0-9.07,8.92,8.87,8.87,0,0,0,5.77,8.32c.22.08.44.16.7.23l.18,0a.8.8,0,0,0,.5-.17.9.9,0,0,0,.32-.68V22.24l-.09-.58-.59.1-.22,0a2.29,2.29,0,0,1-1.82-.42,2.71,2.71,0,0,0,2.45.15l.27-.12,0-.3a1.25,1.25,0,0,1,.39-.8l.94-.87H14.33A3.37,3.37,0,0,1,11,16.1v-.17a3.49,3.49,0,0,1,.83-2.21l.16-.19-.06-.24a2.75,2.75,0,0,1,0-1.6,3.88,3.88,0,0,1,1.59.73l.18.12.21,0A9.13,9.13,0,0,1,16,12.33c.58,0,1.16.09,1.78.17l.31.05.22,0,.18-.13a3.63,3.63,0,0,1,1.66-.77,4.29,4.29,0,0,1,0,1.7l0,.23.15.18A3.4,3.4,0,0,1,21,15.93v.17a3.37,3.37,0,0,1-3.41,3.33H16.34l.86.85a1.4,1.4,0,0,1,.41,1V24a.77.77,0,0,0,.28.57.8.8,0,0,0,.71.16,4.46,4.46,0,0,0,.73-.24A8.88,8.88,0,0,0,25,16.16,9,9,0,0,0,16,7.24Zm3,16.29-.34.12v-2.4a2.3,2.3,0,0,0-.18-.9A4.35,4.35,0,0,0,22,16.1v-.17a4.34,4.34,0,0,0-.24-1.43,4.26,4.26,0,0,0-.59-1.14,4.05,4.05,0,0,0-.2-2.39l-.13-.27h-.3a4.06,4.06,0,0,0-2.43.84l-.19,0c-.61-.07-1.24-.15-1.87-.17a10.74,10.74,0,0,0-2.18.14,3.69,3.69,0,0,0-2.31-.77l-.18,0-.12.13a2.69,2.69,0,0,0-.36,2.41A4.45,4.45,0,0,0,10,15.93v.17a4.35,4.35,0,0,0,3.59,4.26,3,3,0,0,0-.1.32A1.33,1.33,0,0,1,12,20.29,2.45,2.45,0,0,0,10.54,19l-.06,0a1.28,1.28,0,0,0-1,0l-.27.2,0,.25a1,1,0,0,0,.53.88l.1.07a2.82,2.82,0,0,1,.46.54,1.22,1.22,0,0,1,.13.28,2.32,2.32,0,0,0,.23.48,2.93,2.93,0,0,0,2.69,1.06v.86L13,23.54a7.86,7.86,0,0,1-5.14-7.38,8.08,8.08,0,0,1,16.15,0A7.92,7.92,0,0,1,19,23.53Z"/></svg>