<svg id="Layer_1" data-name="Layer 1" xmlns="http://www.w3.org/2000/svg" viewBox="0 0 50 50"><path d="M7.4,2.67A6.42,6.42,0,0,0,2.74,4.5,5.87,5.87,0,0,0,1.09,8.76,5.85,5.85,0,0,0,2.74,13a6.37,6.37,0,0,0,4.6,1.84A6.12,6.12,0,0,0,13.77,8.8v0A6.05,6.05,0,0,0,7.4,2.67Zm-.06,9.2a3.37,3.37,0,0,1-2.46-.94,2.92,2.92,0,0,1-.79-2.17A2.9,2.9,0,0,1,4.88,6.6,3.43,3.43,0,0,1,7.4,5.67a3.07,3.07,0,0,1,3.37,3.14C10.76,10.64,9.39,11.87,7.34,11.87Z"/><path d="M1.33,47.88H13.47V15.48H1.33Zm3-29.4h6.14v26.4H4.33Z"/><path d="M36.68,14.82a12.59,12.59,0,0,0-8.1,2.87l-.23-2.21H17.49l.08,1.57c.11,2.54.23,5.63.23,9.31V47.88H30V29.42a5.13,5.13,0,0,1,.27-1.78,3.41,3.41,0,0,1,3.22-2.43c.85,0,3.13,0,3.13,4.88V47.88H48.71V28.94C48.71,20.1,44.21,14.82,36.68,14.82Zm9,30.06H39.57V30.09c0-7.11-4.29-7.88-6.13-7.88a6.37,6.37,0,0,0-6,4.37A8,8,0,0,0,27,29.42V44.88H20.8V26.36c0-3-.07-5.63-.17-7.88h5l.42,4h2.35l.44-.69a9.26,9.26,0,0,1,7.82-4c5.82,0,9,3.95,9,11.12Z"/></svg>