<svg width="50" height="50" viewBox="0 0 50 50" fill="none" xmlns="http://www.w3.org/2000/svg">
<path fill-rule="evenodd" clip-rule="evenodd" d="M24.6359 7.63569C24.9887 7.47444 25.3904 7.45619 25.7564 7.58478L46.4971 14.8705C47.072 15.0724 47.4676 15.602 47.4981 16.2106C47.5286 16.8191 47.188 17.3857 46.6362 17.6441L25.8955 27.3584C25.5433 27.5233 25.1409 27.5451 24.773 27.419L3.51372 20.1333C2.93291 19.9342 2.53204 19.4013 2.50183 18.7881C2.47162 18.1749 2.81817 17.6051 3.3766 17.35L24.6359 7.63569ZM25.3327 10.6156L8.0453 18.515L25.1721 24.3845L42.0395 16.4843L25.3327 10.6156ZM47.3512 23.3486C47.7109 24.0948 47.3977 24.9914 46.6515 25.3512L25.9107 35.3512C25.551 35.5246 25.1369 35.5474 24.7602 35.4146L3.50098 27.9146C2.71974 27.6389 2.30985 26.7822 2.58546 26.001C2.86107 25.2197 3.71781 24.8098 4.49905 25.0854L25.1699 32.3779L45.3486 22.6488C46.0948 22.2891 46.9914 22.6023 47.3512 23.3486ZM46.6515 32.3512C47.3977 31.9914 47.7109 31.0948 47.3512 30.3486C46.9914 29.6023 46.0948 29.2891 45.3486 29.6488L25.1699 39.3779L4.49905 32.0854C3.71781 31.8098 2.86107 32.2197 2.58546 33.001C2.30985 33.7822 2.71974 34.6389 3.50098 34.9146L24.7602 42.4146C25.1369 42.5474 25.551 42.5246 25.9107 42.3512L46.6515 32.3512Z" fill="black"/>
</svg>
