<svg id="Layer_1" data-name="Layer 1" xmlns="http://www.w3.org/2000/svg" viewBox="0 0 50 50"><path d="M49.33,46.5,36.91,34.09c3.15-5.41,5-10.72,5.07-15.27l0-1.53H42A17.11,17.11,0,0,0,25,1.1,16.89,16.89,0,0,0,11.17,8.34L3.52.69.69,3.52,9.2,12A17,17,0,0,0,8,17.29H8l0,1.52c.11,7.88,5,16.8,15.88,28.93l1,1.16L26,47.81a68.92,68.92,0,0,0,8.68-10.26L46.5,49.33ZM25,4.1A14.12,14.12,0,0,1,39,18.33c0,.12,0,.24,0,.36l-.09,1.54a32,32,0,0,1-4.18,11.65l-7.54-7.54a6.81,6.81,0,1,0-8.63-8.63L13.33,10.5A13.88,13.88,0,0,1,25,4.1ZM21.18,17.9A3.81,3.81,0,1,1,25,21.7a2.83,2.83,0,0,1-.5-.05L21.23,18.4A4.23,4.23,0,0,1,21.18,17.9Zm3.88,26.65c-8.91-10.14-13.3-17.74-14-24.26h0L11,18.69c0-.12,0-.24,0-.36a14.65,14.65,0,0,1,.56-3.94l21,21A63.82,63.82,0,0,1,25.06,44.55Z"/></svg>