<svg width="50" height="50" viewBox="0 0 50 50" fill="none" xmlns="http://www.w3.org/2000/svg">
<path d="M10 17V15.5C9.17157 15.5 8.5 16.1716 8.5 17H10ZM32.1765 17L33.2476 15.9499C32.9655 15.6621 32.5794 15.5 32.1765 15.5V17ZM41 26L42.0711 27.0501L43.1006 26L42.0711 24.9499L41 26ZM32.1765 35V36.5C32.5794 36.5 32.9655 36.3379 33.2476 36.0501L32.1765 35ZM10 35H8.5C8.5 35.8284 9.17157 36.5 10 36.5V35ZM10 18.5H32.1765V15.5H10V18.5ZM31.1054 18.0501L39.9289 27.0501L42.0711 24.9499L33.2476 15.9499L31.1054 18.0501ZM39.9289 24.9499L31.1054 33.9499L33.2476 36.0501L42.0711 27.0501L39.9289 24.9499ZM32.1765 33.5H10V36.5H32.1765V33.5ZM11.5 35V17H8.5V35H11.5Z" fill="black"/>
</svg>
