<svg width="50" height="50" viewBox="0 0 50 50" fill="none" xmlns="http://www.w3.org/2000/svg">
<path fill-rule="evenodd" clip-rule="evenodd" d="M23.5 15C23.5 14.1716 24.1716 13.5 25 13.5H42C42.8284 13.5 43.5 14.1716 43.5 15C43.5 15.8284 42.8284 16.5 42 16.5L25 16.5C24.1716 16.5 23.5 15.8284 23.5 15ZM6.5 25C6.5 24.1716 7.17157 23.5 8 23.5H42C42.8284 23.5 43.5 24.1716 43.5 25C43.5 25.8284 42.8284 26.5 42 26.5H8C7.17157 26.5 6.5 25.8284 6.5 25ZM8 33.9167C7.17157 33.9167 6.5 34.5882 6.5 35.4167C6.5 36.2451 7.17157 36.9167 8 36.9167H25C25.8284 36.9167 26.5 36.2451 26.5 35.4167C26.5 34.5882 25.8284 33.9167 25 33.9167H8Z" fill="black"/>
</svg>
