<svg id="Layer_1" data-name="Layer 1" xmlns="http://www.w3.org/2000/svg" viewBox="0 0 50 50"><path d="M7.5,18.86A6.14,6.14,0,1,0,13.64,25,6.14,6.14,0,0,0,7.5,18.86Zm0,9.28A3.14,3.14,0,1,1,10.64,25,3.15,3.15,0,0,1,7.5,28.14Z"/><path d="M25.11,18.86A6.14,6.14,0,1,0,31.25,25,6.15,6.15,0,0,0,25.11,18.86Zm0,9.28A3.14,3.14,0,1,1,28.25,25,3.15,3.15,0,0,1,25.11,28.14Z"/><path d="M42.75,18.86A6.14,6.14,0,1,0,48.9,25,6.15,6.15,0,0,0,42.75,18.86Zm0,9.28A3.14,3.14,0,1,1,45.9,25,3.15,3.15,0,0,1,42.75,28.14Z"/></svg>