<svg width="50" height="50" viewBox="0 0 50 50" fill="none" xmlns="http://www.w3.org/2000/svg">
<path fill-rule="evenodd" clip-rule="evenodd" d="M26.659 10.6525C27.1737 10.9042 27.5 11.4271 27.5 12V36C27.5 36.5729 27.1737 37.0958 26.659 37.3475C26.1444 37.5992 25.5313 37.5358 25.0791 37.184L17.7711 31.5H8C7.17157 31.5 6.5 30.8284 6.5 30V18C6.5 17.1716 7.17157 16.5 8 16.5H17.7711L25.0791 10.816C25.5313 10.4642 26.1444 10.4008 26.659 10.6525ZM24.5 15.067L19.2066 19.184C18.9433 19.3888 18.6193 19.5 18.2857 19.5H9.5V28.5H18.2857C18.6193 28.5 18.9433 28.6112 19.2066 28.816L24.5 32.933V15.067ZM45.0607 18.9393C45.6464 19.5251 45.6464 20.4749 45.0607 21.0607L41.1213 25L45.0607 28.9393C45.6464 29.5251 45.6464 30.4749 45.0607 31.0607C44.4749 31.6464 43.5251 31.6464 42.9393 31.0607L39 27.1213L35.0607 31.0607C34.4749 31.6464 33.5251 31.6464 32.9393 31.0607C32.3536 30.4749 32.3536 29.5251 32.9393 28.9393L36.8787 25L32.9393 21.0607C32.3536 20.4749 32.3536 19.5251 32.9393 18.9393C33.5251 18.3535 34.4749 18.3535 35.0607 18.9393L39 22.8787L42.9393 18.9393C43.5251 18.3535 44.4749 18.3535 45.0607 18.9393Z" fill="black"/>
</svg>
