<svg id="Layer_1" data-name="Layer 1" xmlns="http://www.w3.org/2000/svg" viewBox="0 0 32 32"><title>si-notification</title><path d="M27.3,26.83H4.7l.24-.38A19.19,19.19,0,0,0,6.67,23a8.58,8.58,0,0,0,.65-3.25V13.68c0-3.69,2.89-6.87,6.9-7.64a2.31,2.31,0,0,1,4.62.08,1,1,0,0,1,0,.17,9,9,0,0,1,1.45.56A8.3,8.3,0,0,1,23.71,10a7.24,7.24,0,0,1,.87,2.13,8.56,8.56,0,0,1,.15,2.2v.32c0,.11,0,.21,0,.31l0,5.68a3.66,3.66,0,0,0,.06.68l.08.29c0,.19.1.37.15.56h0a19,19,0,0,0,2,4.31Zm-21.7-.5H26.4a18.31,18.31,0,0,1-1.84-4h0c-.06-.19-.12-.39-.17-.58l-.08-.3a4.37,4.37,0,0,1-.07-.79l0-5.69c0-.1,0-.21,0-.32v-.32a8,8,0,0,0-.14-2.08,7,7,0,0,0-.81-2A7.78,7.78,0,0,0,20.05,7.3a8.49,8.49,0,0,0-1.56-.59l-.22-.06,0-.22a1.63,1.63,0,0,0,0-.31,1.81,1.81,0,1,0-3.62,0l0,.34-.23,0c-3.88.64-6.7,3.67-6.7,7.18v6.07a9,9,0,0,1-.68,3.42A20,20,0,0,1,5.6,26.33Z" fill="#231f20"/><path d="M17.1,30.37H16a1.25,1.25,0,0,1-1.25-1.25v-1a.3.3,0,0,1,.3-.3h3a.3.3,0,0,1,.31.3v1A1.25,1.25,0,0,1,17.1,30.37Zm-1.89-2.06v.81a.76.76,0,0,0,.75.75H17.1a.76.76,0,0,0,.75-.75v-.81Z" fill="#231f20"/></svg>