<svg id="Layer_1" data-name="Layer 1" xmlns="http://www.w3.org/2000/svg" viewBox="0 0 50 50"><path d="M46.43,29.53h-.9V25A1.5,1.5,0,0,0,44,23.5H26.5V20.33h.9a2.5,2.5,0,0,0,2.5-2.5V13a2.5,2.5,0,0,0-2.5-2.5H22.6A2.5,2.5,0,0,0,20.1,13v4.79a2.5,2.5,0,0,0,2.5,2.5h.9V23.5H6A1.5,1.5,0,0,0,4.48,25v4.67h-.9a2.5,2.5,0,0,0-2.5,2.5V37a2.5,2.5,0,0,0,2.5,2.5h4.8a2.5,2.5,0,0,0,2.5-2.5V32.17a2.5,2.5,0,0,0-2.5-2.5h-.9V26.5h16v3.17h-.9a2.5,2.5,0,0,0-2.5,2.5V37a2.5,2.5,0,0,0,2.5,2.5h4.8A2.5,2.5,0,0,0,29.9,37V32.17a2.5,2.5,0,0,0-2.5-2.5h-.9V26.5h16v3h-.9a2.5,2.5,0,0,0-2.5,2.5v4.8a2.5,2.5,0,0,0,2.5,2.5h4.8a2.5,2.5,0,0,0,2.5-2.5V32A2.5,2.5,0,0,0,46.43,29.53Zm-23.33-16h3.8v3.79H23.1ZM7.88,36.46H4.08V32.67h3.8Zm19,0H23.1V32.67h3.8Zm19-.13h-3.8v-3.8h3.8Z" fill="#231f20"/></svg>