<svg id="Layer_1" data-name="Layer 1" xmlns="http://www.w3.org/2000/svg" viewBox="0 0 50 50"><path d="M36.8,14.8V32.7a17.9,17.9,0,0,1-.2,2.4,13,13,0,0,1-.9,4A11.9,11.9,0,0,1,33.9,42a9.3,9.3,0,0,1-2.3,2.1,9.6,9.6,0,0,1-2.7,1.3,10.6,10.6,0,0,1-3.1.5,10.1,10.1,0,0,1-3-.2,13.2,13.2,0,0,1-3-1A16.7,16.7,0,0,1,17.2,43a12.1,12.1,0,0,1-2.1-2.4,17.3,17.3,0,0,1-1.4-3.1,19.1,19.1,0,0,1-.5-5.4V13.9a13.8,13.8,0,0,1,.3-3.6,9.2,9.2,0,0,1,1.6-3.1,8.2,8.2,0,0,1,2.5-2,7.6,7.6,0,0,1,3-1,6.9,6.9,0,0,1,3.2.1,7.4,7.4,0,0,1,2.9,1.2,9.9,9.9,0,0,1,2.4,2.6,7.5,7.5,0,0,1,.8,1.8l.3,1v.2a2,2,0,0,1,.1.7,2.2,2.2,0,0,1,.1.8.4.4,0,0,0,0,.5V31.6c0,1.7,0,3.2-.8,4.4a4.4,4.4,0,0,1-2.2,1.5,4.6,4.6,0,0,1-2.6.2,4.4,4.4,0,0,1-2.2-1.4,8,8,0,0,1-1-2.3,17.7,17.7,0,0,1-.1-2.4V12.8h-3V31.5a16.2,16.2,0,0,0,.2,3.1,8.6,8.6,0,0,0,1.6,3.5,7.1,7.1,0,0,0,3.8,2.5,7.7,7.7,0,0,0,7.9-2.8c1.5-2,1.4-4.2,1.4-6.2V13a.3.3,0,0,1,0-.4,3.8,3.8,0,0,0-.1-1,5.1,5.1,0,0,0-.2-1.3v-.2a9.3,9.3,0,0,0-.4-1.3,9.7,9.7,0,0,0-1.1-2.3,10.4,10.4,0,0,0-3.2-3.4,11.2,11.2,0,0,0-4-1.8,11.9,11.9,0,0,0-4.2-.1,11.7,11.7,0,0,0-4.1,1.4,9.9,9.9,0,0,0-3.3,2.8,10,10,0,0,0-2.1,4.1,13.8,13.8,0,0,0-.5,4.5V32.1a20,20,0,0,0,.7,6.3,14.3,14.3,0,0,0,1.7,3.8,14.8,14.8,0,0,0,5.9,5.2,21.7,21.7,0,0,0,3.6,1.2l3.2.3H26a15.1,15.1,0,0,0,3.7-.6,14.9,14.9,0,0,0,3.6-1.7,12.7,12.7,0,0,0,3-2.7,15.1,15.1,0,0,0,2.2-3.7,23.1,23.1,0,0,0,1.1-4.7,26.4,26.4,0,0,0,.2-2.8V14.8Z"/></svg>