<svg width="50" height="50" viewBox="0 0 50 50" fill="none" xmlns="http://www.w3.org/2000/svg">
<path fill-rule="evenodd" clip-rule="evenodd" d="M14.83 2.5L14.7712 2.5H14.7711C13.9671 2.49997 13.2735 2.49995 12.7026 2.54737C12.0997 2.59743 11.5005 2.70801 10.9256 3.00664C10.1037 3.43358 9.43358 4.10372 9.00664 4.92562C8.70801 5.50052 8.59743 6.09973 8.54737 6.70255C8.49995 7.27353 8.49997 7.96712 8.5 8.77112V8.77119L8.5 8.83V41.17L8.5 41.2288V41.2289C8.49997 42.0329 8.49995 42.7265 8.54737 43.2975C8.59743 43.9003 8.70801 44.4995 9.00664 45.0744C9.43358 45.8963 10.1037 46.5664 10.9256 46.9934C11.5005 47.292 12.0997 47.4026 12.7026 47.4526C13.2735 47.5001 13.9671 47.5 14.771 47.5H14.7712H14.83H33.17H33.2288H33.229C34.0329 47.5 34.7265 47.5001 35.2975 47.4526C35.9003 47.4026 36.4995 47.292 37.0744 46.9934C37.8963 46.5664 38.5664 45.8963 38.9934 45.0744C39.292 44.4995 39.4026 43.9003 39.4526 43.2975C39.5001 42.7265 39.5 42.0328 39.5 41.2288V41.17V8.83001V8.7712C39.5 7.96716 39.5001 7.27355 39.4526 6.70255C39.4026 6.09973 39.292 5.50052 38.9934 4.92562C38.5664 4.10372 37.8963 3.43358 37.0744 3.00664C36.4995 2.70801 35.9003 2.59743 35.2975 2.54737C34.7265 2.49995 34.0329 2.49997 33.2289 2.5H33.2288L33.17 2.5H14.83ZM12.3085 5.66888C12.3839 5.62976 12.5369 5.57145 12.9508 5.53708C13.3828 5.50121 13.9506 5.5 14.83 5.5H33.17C34.0494 5.5 34.6173 5.50121 35.0492 5.53708C35.4631 5.57145 35.6161 5.62976 35.6915 5.66888C35.9654 5.8112 36.1888 6.03458 36.3311 6.30854C36.3702 6.38386 36.4286 6.53687 36.4629 6.95084C36.4988 7.38275 36.5 7.95059 36.5 8.83001V41.17C36.5 42.0494 36.4988 42.6173 36.4629 43.0492C36.4286 43.4631 36.3702 43.6161 36.3311 43.6915C36.1888 43.9654 35.9654 44.1888 35.6915 44.3311C35.6161 44.3702 35.4631 44.4286 35.0492 44.4629C34.6173 44.4988 34.0494 44.5 33.17 44.5H14.83C13.9506 44.5 13.3828 44.4988 12.9508 44.4629C12.5369 44.4286 12.3839 44.3702 12.3085 44.3311C12.0346 44.1888 11.8112 43.9654 11.6689 43.6915C11.6298 43.6161 11.5715 43.4631 11.5371 43.0492C11.5012 42.6173 11.5 42.0494 11.5 41.17V8.83C11.5 7.95059 11.5012 7.38275 11.5371 6.95084C11.5715 6.53687 11.6298 6.38386 11.6689 6.30854C11.8112 6.03458 12.0346 5.8112 12.3085 5.66888ZM25 39C24.1716 39 23.5 39.6716 23.5 40.5C23.5 41.3284 24.1716 42 25 42H25.0434C25.8718 42 26.5434 41.3284 26.5434 40.5C26.5434 39.6716 25.8718 39 25.0434 39H25Z" fill="black"/>
</svg>
