<svg id="Layer_1" data-name="Layer 1" xmlns="http://www.w3.org/2000/svg" viewBox="0 0 50 50"><path d="M4,25v-.42l-3-.06V25a23.53,23.53,0,0,0,.7,5.79l2.91-.73A20.44,20.44,0,0,1,4,25Z" fill="#231f20"/><path d="M6.61,14.88,4,13.44a23.86,23.86,0,0,0-2.29,5.87L4.61,20A21.17,21.17,0,0,1,6.61,14.88Z" fill="#231f20"/><path d="M3.54,35.72a23.9,23.9,0,0,0,3.53,5.21l2.24-2a21.67,21.67,0,0,1-3.09-4.56Z" fill="#231f20"/><path d="M48.39,19.68a23.77,23.77,0,0,0-2.19-5.91l-2.65,1.41a21.25,21.25,0,0,1,1.92,5.16Z" fill="#231f20"/><path d="M33.93,2.73a23.92,23.92,0,0,0-6.12-1.55l-.34,3a20.55,20.55,0,0,1,5.34,1.36Z" fill="#231f20"/><path d="M22.86,4.12l-.3-3a23.92,23.92,0,0,0-6.13,1.45l1.07,2.8A21.37,21.37,0,0,1,22.86,4.12Z" fill="#231f20"/><path d="M32,44.78l1,2.83a24.2,24.2,0,0,0,5.61-2.88l-1.71-2.46A21.21,21.21,0,0,1,32,44.78Z" fill="#231f20"/><path d="M40.4,39.25l2.21,2a24.07,24.07,0,0,0,3.63-5.15l-2.65-1.39A21.11,21.11,0,0,1,40.4,39.25Z" fill="#231f20"/><path d="M43.24,9.43a23.7,23.7,0,0,0-4.68-4.21l-1.7,2.47A20.83,20.83,0,0,1,41,11.38Z" fill="#231f20"/><path d="M46,25a20.9,20.9,0,0,1-.72,5.47l2.9.78A23.88,23.88,0,0,0,49,25v-.09Z" fill="#231f20"/><path d="M22,45.78l-.42,3A25.36,25.36,0,0,0,25,49a23.55,23.55,0,0,0,2.91-.17l-.36-3A21.62,21.62,0,0,1,22,45.78Z" fill="#231f20"/><path d="M11,44.45a23.62,23.62,0,0,0,5.55,3l1.06-2.8A20.69,20.69,0,0,1,12.73,42Z" fill="#231f20"/><path d="M11.76,5A23.75,23.75,0,0,0,7,9.14l2.25,2A21.14,21.14,0,0,1,13.42,7.5Z" fill="#231f20"/><polygon points="26.5 18.93 23.5 18.93 23.5 23.5 18.93 23.5 18.93 26.5 23.5 26.5 23.5 31.07 26.5 31.07 26.5 26.5 31.07 26.5 31.07 23.5 26.5 23.5 26.5 18.93" fill="#231f20"/></svg>