<svg width="50" height="50" viewBox="0 0 50 50" fill="none" xmlns="http://www.w3.org/2000/svg">
<path fill-rule="evenodd" clip-rule="evenodd" d="M25 42.8333C34.8491 42.8333 42.8333 34.8491 42.8333 25C42.8333 15.1509 34.8491 7.16667 25 7.16667C15.1509 7.16667 7.16666 15.1509 7.16666 25C7.16666 34.8491 15.1509 42.8333 25 42.8333ZM25 45.8333C36.5059 45.8333 45.8333 36.5059 45.8333 25C45.8333 13.4941 36.5059 4.16667 25 4.16667C13.4941 4.16667 4.16666 13.4941 4.16666 25C4.16666 36.5059 13.4941 45.8333 25 45.8333ZM20.8333 17.25C21.6618 17.25 22.3333 17.9216 22.3333 18.75V31.25C22.3333 32.0784 21.6618 32.75 20.8333 32.75C20.0049 32.75 19.3333 32.0784 19.3333 31.25V18.75C19.3333 17.9216 20.0049 17.25 20.8333 17.25ZM30.6667 18.75C30.6667 17.9216 29.9951 17.25 29.1667 17.25C28.3382 17.25 27.6667 17.9216 27.6667 18.75V31.25C27.6667 32.0784 28.3382 32.75 29.1667 32.75C29.9951 32.75 30.6667 32.0784 30.6667 31.25V18.75Z" fill="black"/>
</svg>
