<svg width="50" height="50" viewBox="0 0 50 50" fill="none" xmlns="http://www.w3.org/2000/svg">
<path fill-rule="evenodd" clip-rule="evenodd" d="M42.8333 25C42.8333 34.8491 34.8491 42.8333 25 42.8333C15.1509 42.8333 7.16666 34.8491 7.16666 25C7.16666 15.1509 15.1509 7.16667 25 7.16667C34.8491 7.16667 42.8333 15.1509 42.8333 25ZM45.8333 25C45.8333 36.5059 36.5059 45.8333 25 45.8333C13.4941 45.8333 4.16666 36.5059 4.16666 25C4.16666 13.4941 13.4941 4.16667 25 4.16667C36.5059 4.16667 45.8333 13.4941 45.8333 25ZM22.8155 15.7065C22.3657 15.3444 21.748 15.2727 21.2272 15.5221C20.7064 15.7714 20.375 16.2976 20.375 16.875V33.375C20.375 33.9524 20.7064 34.4786 21.2272 34.7279C21.748 34.9773 22.3657 34.9056 22.8155 34.5435L33.0655 26.2935C33.4193 26.0088 33.625 25.5791 33.625 25.125C33.625 24.6709 33.4193 24.2412 33.0655 23.9565L22.8155 15.7065ZM29.7327 25.125L23.375 30.2422V20.0078L29.7327 25.125Z" fill="black"/>
</svg>
