<svg id="Layer_1" data-name="Layer 1" xmlns="http://www.w3.org/2000/svg" viewBox="0 0 50 50"><path d="M46.51,20.16H41.16a16.94,16.94,0,0,0-1.5-3.51l3.42-3.41a2,2,0,0,0,0-2.79L39,6.35a2,2,0,0,0-2.79,0L32.58,10A16.35,16.35,0,0,0,29.86,8.9V3.36a2,2,0,0,0-2-2h-5.8a2,2,0,0,0-2,2V8.92A17,17,0,0,0,17.39,10L13.71,6.35a2,2,0,0,0-2.79,0l-4.1,4.1a2,2,0,0,0,0,2.79l3.54,3.53a16.29,16.29,0,0,0-1.44,3.39H3.37a2,2,0,0,0-2,2v5.8a2,2,0,0,0,2,2H8.92a17,17,0,0,0,1.4,3.32l-3.5,3.5a2,2,0,0,0,0,2.78L11,43.64a2,2,0,0,0,2.76,0L17.32,40a16.7,16.7,0,0,0,2.85,1.16v5.4a2,2,0,0,0,2,2H28a2,2,0,0,0,2-2v-5.4a16.53,16.53,0,0,0,2.7-1.08l3.63,3.63a2,2,0,0,0,2.78,0l4.11-4.11a2,2,0,0,0,0-2.78l-3.45-3.46a17,17,0,0,0,1.48-3.46h5.35a2,2,0,0,0,2-2v-5.8A2,2,0,0,0,46.51,20.16Zm-1,6.74H38.81l-.27,1.17a13.78,13.78,0,0,1-2,4.68l-.68,1,4.43,4.44-2.65,2.65L33.1,36.34l-1,.6a13.4,13.4,0,0,1-4,1.59l-1.18.26v6.74H23.17V38.79L22,38.53a13.59,13.59,0,0,1-4.14-1.67l-1-.62-4.52,4.52L9.67,38.11l4.47-4.47-.67-1a13.71,13.71,0,0,1-1.93-4.55l-.27-1.17H4.4V23.16h6.88L11.54,22a13.66,13.66,0,0,1,2-4.61l.68-1L9.67,11.84,12.31,9.2l4.58,4.58,1-.61A13.77,13.77,0,0,1,22,11.54l1.17-.27V4.39h3.74v6.87l1.18.26a13.9,13.9,0,0,1,4,1.59l1,.6,4.5-4.51,2.65,2.64-4.41,4.41.69,1a13.74,13.74,0,0,1,2,4.72l.26,1.17h6.68Z"/></svg>