<svg id="Layer_1" data-name="Layer 1" xmlns="http://www.w3.org/2000/svg" viewBox="0 0 50 50"><path d="M48.9,30.6V19.4H43.3a19.8,19.8,0,0,0-1.2-3.1l3.7-3.7L38,4.7,34.4,8.3a19.4,19.4,0,0,0-4.2-1.7V1.1H19.1V6.8a21.7,21.7,0,0,0-3.5,1.5L12,4.7,4.1,12.6l3.8,3.7a19.8,19.8,0,0,0-1.2,3.1H1.1V30.6H6.7a17,17,0,0,0,2.4,5.1L5.6,39.2,13.5,47l4.3-4.2,1.3.4v5.7H30.2V43.4l2-.7L36.5,47l7.9-7.8-3.5-3.5a17,17,0,0,0,2.4-5.1Zm-8.2-1.9a14.4,14.4,0,0,1-3,6.2L36.9,36l3.2,3.2-3.6,3.6-3.6-3.7-1,.5a24.2,24.2,0,0,1-3.5,1.2l-1.2.2v4.9H22.1v-5l-1.2-.3a15.7,15.7,0,0,1-2.8-1l-1-.4-3.6,3.6L9.9,39.2,13.1,36l-.8-1.1a14.4,14.4,0,0,1-3-6.2L9,27.6H4.1V22.4H9l.3-1.1a12.5,12.5,0,0,1,1.8-4.5l.5-1L8.4,12.6,12,9l3.2,3.1,1-.6a15.1,15.1,0,0,1,4.7-2.1l1.2-.3v-5h5.1V9l1.2.2a16,16,0,0,1,5.4,2.3l1,.6L38,9l3.6,3.6-3.3,3.3.6,1a15.7,15.7,0,0,1,1.8,4.4l.3,1.1h4.9v5.2H41Z"/><path d="M25,17.7A7.3,7.3,0,1,0,32.3,25,7.3,7.3,0,0,0,25,17.7Zm0,11.6A4.3,4.3,0,1,1,29.3,25,4.3,4.3,0,0,1,25,29.3Z"/></svg>