<svg id="Layer_1" data-name="Layer 1" xmlns="http://www.w3.org/2000/svg" viewBox="0 0 50 50"><path d="M35.13,17V6a4.52,4.52,0,0,0-9,0V17a4.52,4.52,0,0,0,9,0Zm-6,0V6a1.52,1.52,0,0,1,3,0V17a1.52,1.52,0,0,1-3,0Z"/><path d="M19.36,28.53A4.51,4.51,0,0,0,14.85,33v11a4.51,4.51,0,0,0,9,0V33A4.52,4.52,0,0,0,19.36,28.53Zm1.51,15.52a1.51,1.51,0,1,1-3,0V33a1.51,1.51,0,0,1,3,0Z"/><path d="M44.05,26.13H33a4.52,4.52,0,1,0,0,9h11a4.52,4.52,0,0,0,0-9Zm0,6H33a1.52,1.52,0,1,1,0-3h11a1.52,1.52,0,0,1,0,3Z"/><path d="M6,23.87H17a4.51,4.51,0,1,0,0-9H6a4.51,4.51,0,0,0,0,9Zm0-6H17a1.51,1.51,0,1,1,0,3H6a1.51,1.51,0,1,1,0-3Z"/><path d="M17.12,10.7H22V5.83a4.89,4.89,0,1,0-4.87,4.87Zm0-6.77A1.91,1.91,0,0,1,19,5.83V7.7H17.12a1.91,1.91,0,0,1-1.91-1.9A1.87,1.87,0,0,1,17.08,3.93Z"/><path d="M49.07,17a4.78,4.78,0,0,0-4.78-4.77,5,5,0,0,0-5,5V22h4.78A5,5,0,0,0,49.07,17Zm-6.77.22a2,2,0,0,1,2-2A1.78,1.78,0,0,1,46.07,17a2,2,0,0,1-2,2H42.3Z"/><path d="M32.87,39.29H28v4.89a4.89,4.89,0,1,0,4.86-4.89Zm0,6.78A1.89,1.89,0,0,1,31,44.18V42.29h1.86a1.92,1.92,0,0,1,1.92,1.92A1.88,1.88,0,0,1,32.9,46.07Z"/><path d="M.93,32.93a4.87,4.87,0,0,0,4.86,4.86,4.92,4.92,0,0,0,4.91-4.91V28H5.84A4.91,4.91,0,0,0,.93,32.93Zm6.77,0a1.92,1.92,0,0,1-1.91,1.91,1.86,1.86,0,0,1-1.86-1.86A1.91,1.91,0,0,1,5.84,31H7.7Z"/></svg>