<svg id="Layer_1" data-name="Layer 1" xmlns="http://www.w3.org/2000/svg" viewBox="0 0 50 50"><path d="M40.73,33.23A7.66,7.66,0,0,0,34.82,36L17.94,26.44A7.64,7.64,0,0,0,18.08,25c0-.21,0-.41,0-.61L35.1,14.15a7.78,7.78,0,1,0-1.56-2.56L17.18,21.41a7.67,7.67,0,1,0-.39,7.83L33.4,38.66a7.55,7.55,0,0,0-.34,2.24,7.67,7.67,0,1,0,7.67-7.67Zm0-28.93A4.67,4.67,0,1,1,36.06,9,4.66,4.66,0,0,1,40.73,4.3ZM10.41,29.67A4.67,4.67,0,1,1,15.08,25,4.67,4.67,0,0,1,10.41,29.67ZM40.73,45.56a4.67,4.67,0,1,1,4.66-4.66A4.67,4.67,0,0,1,40.73,45.56Z"/></svg>