<svg id="Layer_1" data-name="Layer 1" xmlns="http://www.w3.org/2000/svg" viewBox="0 0 50 50"><path d="M48.6,12.2a1.4,1.4,0,0,0-1.2-.6h0L12,11.8l-1.3-3a1.4,1.4,0,0,0-1.4-.9H2.6A1.4,1.4,0,0,0,1.1,9.4a1.5,1.5,0,0,0,1.5,1.5H8.3l1.3,2.9,3.5,14.5h0l1.3,4.4a1.6,1.6,0,0,0,1.4,1.1H41.4a1.5,1.5,0,0,0,1.5-1.5,1.5,1.5,0,0,0-1.5-1.5H17l-.4-1.4H43.3a1.5,1.5,0,0,0,1.4-1.1l4.2-14.8A1.4,1.4,0,0,0,48.6,12.2ZM42.1,26.4H15.8L12.9,14.8l32.5-.2Z"/><path d="M19.9,35.5a3.3,3.3,0,1,0,3.3,3.3A3.3,3.3,0,0,0,19.9,35.5Zm0,4.6a1.3,1.3,0,1,1,1.3-1.3A1.3,1.3,0,0,1,19.9,40.1Z"/><path d="M36,35.5a3.3,3.3,0,1,0,3.3,3.3A3.3,3.3,0,0,0,36,35.5Zm0,4.6a1.3,1.3,0,1,1,1.3-1.3A1.3,1.3,0,0,1,36,40.1Z"/></svg>