<svg width="50" height="50" viewBox="0 0 50 50" fill="none" xmlns="http://www.w3.org/2000/svg">
<path fill-rule="evenodd" clip-rule="evenodd" d="M12.5 5.66669C11.0273 5.66669 9.83334 6.86059 9.83334 8.33335V41.6667C9.83334 43.1395 11.0273 44.3334 12.5 44.3334H37.5C38.9728 44.3334 40.1667 43.1395 40.1667 41.6667V8.33335C40.1667 6.86059 38.9728 5.66669 37.5 5.66669H12.5ZM6.83334 8.33335C6.83334 5.20374 9.3704 2.66669 12.5 2.66669H37.5C40.6296 2.66669 43.1667 5.20374 43.1667 8.33335V41.6667C43.1667 44.7963 40.6296 47.3334 37.5 47.3334H12.5C9.3704 47.3334 6.83334 44.7963 6.83334 41.6667V8.33335ZM23.5 12.5C23.5 11.6716 24.1716 11 25 11H25.0217C25.8501 11 26.5217 11.6716 26.5217 12.5C26.5217 13.3284 25.8501 14 25.0217 14H25C24.1716 14 23.5 13.3284 23.5 12.5ZM18.1667 29.1666C18.1667 25.3927 21.226 22.3333 25 22.3333C28.7739 22.3333 31.8333 25.3927 31.8333 29.1666C31.8333 32.9406 28.7739 36 25 36C21.226 36 18.1667 32.9406 18.1667 29.1666ZM25 19.3333C19.5692 19.3333 15.1667 23.7358 15.1667 29.1666C15.1667 34.5974 19.5692 39 25 39C30.4308 39 34.8333 34.5974 34.8333 29.1666C34.8333 23.7358 30.4308 19.3333 25 19.3333Z" fill="black"/>
</svg>
