<svg id="Layer_1" data-name="Layer 1" xmlns="http://www.w3.org/2000/svg" viewBox="0 0 50 50"><path d="M43.15,1.29H9.47A4.42,4.42,0,0,0,5.14,5.68l-3.37,21a4.4,4.4,0,0,0,3.31,4.83l.24.08,15.12-.16.11,10.5c.09,2.06,1.22,5.75,4.86,6.52l1.27.26,9.09-20.44h7.38a5.13,5.13,0,0,0,5.12-5.12V6.4A5.12,5.12,0,0,0,43.15,1.29ZM25,44.68a4.93,4.93,0,0,1-1.17-2.84l-.15-13.67-17.81.18c-.77-.31-.9-.82-.86-1.16L8.34,6.13V6c.1-1.21.64-1.48,1.08-1.5H33.08l0,21.81ZM45,23.15A1.89,1.89,0,0,1,43.15,25H36.33V4.51h6.82A1.89,1.89,0,0,1,45,6.4Z"/></svg>