<svg id="Layer_1" data-name="Layer 1" xmlns="http://www.w3.org/2000/svg" viewBox="0 0 50 50"><path d="M6.85,48.71H40.53a4.42,4.42,0,0,0,4.33-4.39l3.37-21a4.41,4.41,0,0,0-3.31-4.83l-.24-.08-15.12.16-.11-10.5C29.36,6,28.23,2.32,24.59,1.55l-1.28-.26L14.23,21.73H6.85a5.13,5.13,0,0,0-5.12,5.12V43.6A5.12,5.12,0,0,0,6.85,48.71ZM25.05,5.32a4.93,4.93,0,0,1,1.17,2.84l.15,13.67,17.81-.18c.77.31.9.82.86,1.16L41.66,43.87V44c-.1,1.21-.64,1.48-1.08,1.5H16.91l0-21.81ZM5,26.85A1.89,1.89,0,0,1,6.85,25h6.81V45.49H6.85A1.89,1.89,0,0,1,5,43.6Z"/></svg>