<svg id="Layer_1" data-name="Layer 1" xmlns="http://www.w3.org/2000/svg" viewBox="0 0 50 50"><path d="M42.39,13.11l-.49.22a8.55,8.55,0,0,0,.91-1.92l.9-2.69-2.38,1.53a14.05,14.05,0,0,1-3.77,1.54,8.4,8.4,0,0,0-9.62-1.24,8,8,0,0,0-4.31,7.93A20.21,20.21,0,0,1,10.36,11.3l-.91-1.11-.73,1.24a8.34,8.34,0,0,0,1.06,9.7,2,2,0,0,1-1.1-.25L7.07,20l.11,1.85a8,8,0,0,0,5,6.54,3.18,3.18,0,0,1-2,.29l-2.57-.52,1.56,2.1a11.07,11.07,0,0,0,6.28,3.66c-1.48.83-4.07,1.71-8.22,1.46l-4-.24,3.4,2.09a22.33,22.33,0,0,0,11.66,3.23,22.73,22.73,0,0,0,11.33-3c6.79-3.91,10.62-10.87,10.57-19.16a15.78,15.78,0,0,0,3.52-3.74l2-3.16Zm-3.78,3.83-.45.31v.54c.2,7.77-3.28,14.29-9.56,17.9a20.89,20.89,0,0,1-17.33,1.53c5.35-.68,7.31-3.29,7.4-3.43l1.08-1.49-1.84-.09a10.8,10.8,0,0,1-5.58-1.77,6.9,6.9,0,0,0,2.77-1.8l1.11-1.29L14.55,27a6.4,6.4,0,0,1-5-3.88,6,6,0,0,0,2.7-.58l1.42-.7-1.25-1a6.31,6.31,0,0,1-2.52-7,22,22,0,0,0,14.88,6.75H26l-.24-1.2a6.22,6.22,0,0,1,3.1-7,6.36,6.36,0,0,1,7.66,1.27l.38.39.53-.1a16.8,16.8,0,0,0,1.87-.51,5.12,5.12,0,0,1-1.12.88l-4.77,2.52,5.36-.64c.36,0,.71-.09,1-.15A13.27,13.27,0,0,1,38.61,16.94Z"/></svg>