<svg width="50" height="50" viewBox="0 0 50 50" fill="none" xmlns="http://www.w3.org/2000/svg">
<path d="M27.4073 40.8918L26.3395 41.9453C26.9213 42.535 27.871 42.5415 28.4607 41.9597L27.4073 40.8918ZM13.6223 26.9191L12.1268 26.803C12.0932 27.2364 12.2492 27.6631 12.5545 27.9726L13.6223 26.9191ZM14.5445 15.0389L14.4486 13.5419C13.7034 13.5897 13.1068 14.1783 13.049 14.9228L14.5445 15.0389ZM26.4361 14.2776L27.5039 13.2241C27.1986 12.9147 26.7741 12.7529 26.3402 12.7806L26.4361 14.2776ZM40.221 28.2503L41.2745 29.3181C41.8642 28.7363 41.8707 27.7866 41.2888 27.1969L40.221 28.2503ZM28.4751 39.8384L14.6901 25.8656L12.5545 27.9726L26.3395 41.9453L28.4751 39.8384ZM15.1178 27.0352L16.04 15.155L13.049 14.9228L12.1268 26.803L15.1178 27.0352ZM14.6403 16.5358L26.5319 15.7745L26.3402 12.7806L14.4486 13.5419L14.6403 16.5358ZM25.3683 15.331L39.1532 29.3038L41.2888 27.1969L27.5039 13.2241L25.3683 15.331ZM39.1676 27.1825L26.3538 39.824L28.4607 41.9597L41.2745 29.3181L39.1676 27.1825Z" fill="black"/>
<ellipse cx="19.2407" cy="20.12" rx="1" ry="1" transform="rotate(45 19.2407 20.12)" fill="black"/>
</svg>
