<svg width="50" height="50" viewBox="0 0 50 50" fill="none" xmlns="http://www.w3.org/2000/svg">
<path fill-rule="evenodd" clip-rule="evenodd" d="M15.644 3.10603C15.0582 2.52024 14.1085 2.52024 13.5227 3.10603C12.9369 3.69181 12.9369 4.64156 13.5227 5.22735L21.3786 13.0833H8.33332C5.20371 13.0833 2.66666 15.6204 2.66666 18.75V41.6666C2.66666 44.7963 5.20371 47.3333 8.33332 47.3333H41.6667C44.7963 47.3333 47.3333 44.7963 47.3333 41.6666V18.75C47.3333 15.6204 44.7963 13.0833 41.6667 13.0833H28.6214L36.4773 5.22735C37.0631 4.64156 37.0631 3.69181 36.4773 3.10603C35.8915 2.52024 34.9418 2.52024 34.356 3.10603L25 12.462L15.644 3.10603ZM24.9889 16.0833C24.9963 16.0834 25.0037 16.0834 25.0111 16.0833H41.6667C43.1394 16.0833 44.3333 17.2772 44.3333 18.75V41.6666C44.3333 43.1394 43.1394 44.3333 41.6667 44.3333H8.33332C6.86056 44.3333 5.66666 43.1394 5.66666 41.6666V18.75C5.66666 17.2772 6.86056 16.0833 8.33332 16.0833H24.9889Z" fill="black"/>
</svg>
