<svg width="50" height="50" viewBox="0 0 50 50" fill="none" xmlns="http://www.w3.org/2000/svg">
<path fill-rule="evenodd" clip-rule="evenodd" d="M45 25C45 36.0457 36.0457 45 25 45C13.9543 45 5 36.0457 5 25C5 13.9543 13.9543 5 25 5C36.0457 5 45 13.9543 45 25ZM48 25C48 37.7025 37.7025 48 25 48C12.2975 48 2 37.7025 2 25C2 12.2975 12.2975 2 25 2C37.7025 2 48 12.2975 48 25ZM24.4167 14.5833C24.4167 13.7549 23.7451 13.0833 22.9167 13.0833C22.0882 13.0833 21.4167 13.7549 21.4167 14.5833V28.9666C21.4167 29.9055 22.1778 30.6666 23.1167 30.6666H33.3333C34.1618 30.6666 34.8333 29.9951 34.8333 29.1666C34.8333 28.3382 34.1618 27.6666 33.3333 27.6666H24.4167V14.5833Z" fill="black"/>
</svg>
