<svg id="Layer_1" data-name="Layer 1" xmlns="http://www.w3.org/2000/svg" viewBox="0 0 50 50"><path d="M24.39,15.15a7,7,0,1,0-7-7A7,7,0,0,0,24.39,15.15Zm0-10.51A3.5,3.5,0,1,1,20.9,8.13,3.5,3.5,0,0,1,24.39,4.64Z" fill="#231f20"/><path d="M32.84,19.29H17.16a2.94,2.94,0,0,0-2.94,2.94V38.5A10.4,10.4,0,0,0,24.61,48.89h.78A10.4,10.4,0,0,0,35.78,38.5V22.23A2.94,2.94,0,0,0,32.84,19.29ZM32.25,38.5a6.87,6.87,0,0,1-6.86,6.86h-.78a6.87,6.87,0,0,1-6.86-6.86V22.82h14.5Z" fill="#231f20"/><path d="M39.68,17.91a5.77,5.77,0,1,0-5.77-5.77A5.77,5.77,0,0,0,39.68,17.91Zm0-8a2.25,2.25,0,1,1-2.24,2.24A2.25,2.25,0,0,1,39.68,9.9Z" fill="#231f20"/><path d="M46.13,20.23H38.29v3.53h7V35.33a4.77,4.77,0,0,1-4.76,4.77h-.36v3.53h.36a8.3,8.3,0,0,0,8.29-8.3V22.89A2.66,2.66,0,0,0,46.13,20.23Z" fill="#231f20"/><path d="M9.39,6.37a5.77,5.77,0,1,0,5.77,5.77A5.78,5.78,0,0,0,9.39,6.37Zm0,8a2.25,2.25,0,1,1,2.24-2.25A2.25,2.25,0,0,1,9.39,14.39Z" fill="#231f20"/><path d="M1.22,22.89V35.33a8.3,8.3,0,0,0,8.29,8.3h.36V40.1H9.51a4.77,4.77,0,0,1-4.76-4.77V23.76h6.91V20.23H3.87A2.66,2.66,0,0,0,1.22,22.89Z" fill="#231f20"/></svg>