<svg id="Layer_1" data-name="Layer 1" xmlns="http://www.w3.org/2000/svg" viewBox="0 0 50 50"><path d="M46.19,18.85h0a0,0,0,0,0,0,0" fill="none" stroke="#221f1f" stroke-miterlimit="10" stroke-width="0.5"/><path d="M33,24.54H17A13.51,13.51,0,0,0,3.49,38V49h43V38A13.51,13.51,0,0,0,33,24.54ZM43.49,46h-37V38A10.51,10.51,0,0,1,17,27.54H33A10.51,10.51,0,0,1,43.49,38Z"/><path d="M25,22.9A10.65,10.65,0,1,0,14.35,12.25,10.65,10.65,0,0,0,25,22.9ZM25,4.6a7.65,7.65,0,1,1-7.65,7.65A7.66,7.66,0,0,1,25,4.6Z"/></svg>