<svg id="Layer_1" data-name="Layer 1" xmlns="http://www.w3.org/2000/svg" viewBox="0 0 50 50"><path d="M22.7,24.5H11a9.7,9.7,0,0,0-9.7,9.8v7.9H32.4V34.3A9.7,9.7,0,0,0,22.7,24.5ZM30.3,40H3.4V34.3A7.7,7.7,0,0,1,11,26.6H22.7a7.7,7.7,0,0,1,7.6,7.7Z"/><path d="M16.9,23.3a7.8,7.8,0,1,0-7.8-7.8A7.8,7.8,0,0,0,16.9,23.3Zm0-13.3a5.6,5.6,0,1,1-5.6,5.5A5.5,5.5,0,0,1,16.9,10Z"/><path d="M40.1,26.5H31.8A15.7,15.7,0,0,1,33,28.4h7.1a6.7,6.7,0,0,1,6.7,6.7v5.1h-12a12.3,12.3,0,0,1-.2,2H48.7V35.1A8.7,8.7,0,0,0,40.1,26.5Z"/><path d="M34.9,25.4a6.9,6.9,0,1,0-6.8-6.9A6.8,6.8,0,0,0,34.9,25.4Zm0-11.3a4.5,4.5,0,1,1-4.5,4.4A4.5,4.5,0,0,1,34.9,14.1Z"/></svg>