<svg width="50" height="50" viewBox="0 0 50 50" fill="none" xmlns="http://www.w3.org/2000/svg">
<path fill-rule="evenodd" clip-rule="evenodd" d="M5.66666 9.83334V17.25H44.3333V9.83334H5.66666ZM5.66666 40.1667V20.25H44.3333V40.1667H5.66666ZM2.66666 9.33334C2.66666 7.95263 3.78595 6.83334 5.16666 6.83334H44.8333C46.214 6.83334 47.3333 7.95263 47.3333 9.33334V40.6667C47.3333 42.0474 46.214 43.1667 44.8333 43.1667H5.16666C3.78595 43.1667 2.66666 42.0474 2.66666 40.6667V9.33334ZM9.37501 14.5833C9.95031 14.5833 10.4167 14.117 10.4167 13.5417C10.4167 12.9664 9.95031 12.5 9.37501 12.5C8.79971 12.5 8.33334 12.9664 8.33334 13.5417C8.33334 14.117 8.79971 14.5833 9.37501 14.5833ZM18.75 13.5417C18.75 14.117 18.2836 14.5833 17.7083 14.5833C17.133 14.5833 16.6667 14.117 16.6667 13.5417C16.6667 12.9664 17.133 12.5 17.7083 12.5C18.2836 12.5 18.75 12.9664 18.75 13.5417ZM13.5417 14.5833C14.117 14.5833 14.5833 14.117 14.5833 13.5417C14.5833 12.9664 14.117 12.5 13.5417 12.5C12.9664 12.5 12.5 12.9664 12.5 13.5417C12.5 14.117 12.9664 14.5833 13.5417 14.5833Z" fill="black"/>
</svg>
