<svg width="50" height="50" viewBox="0 0 50 50" fill="none" xmlns="http://www.w3.org/2000/svg">
<path fill-rule="evenodd" clip-rule="evenodd" d="M25 41C34.3888 41 42 33.3888 42 24C42 14.6112 34.3888 7 25 7C15.6112 7 8 14.6112 8 24C8 33.3888 15.6112 41 25 41ZM39.2027 38.0813C42.7864 34.467 45 29.492 45 24C45 12.9543 36.0457 4 25 4C13.9543 4 5 12.9543 5 24C5 35.0457 13.9543 44 25 44C29.4717 44 33.6006 42.5325 36.9315 40.0527C36.9341 40.0554 36.9367 40.058 36.9393 40.0607L43.9393 47.0607C44.5251 47.6464 45.4749 47.6464 46.0607 47.0607C46.6464 46.4749 46.6464 45.5251 46.0607 44.9393L39.2027 38.0813ZM17.25 24C17.25 23.1716 17.9216 22.5 18.75 22.5H31.25C32.0784 22.5 32.75 23.1716 32.75 24C32.75 24.8284 32.0784 25.5 31.25 25.5H18.75C17.9216 25.5 17.25 24.8284 17.25 24Z" fill="black"/>
</svg>
