<?xml version="1.0" standalone="no"?>
<!DOCTYPE svg PUBLIC "-//W3C//DTD SVG 1.1//EN" "http://www.w3.org/Graphics/SVG/1.1/DTD/svg11.dtd" >
<svg xmlns="http://www.w3.org/2000/svg">
<metadata>Generated by IcoMoon</metadata>
<defs>
<font id="stunicons" horiz-adv-x="1024">
<font-face units-per-em="1024" ascent="960" descent="-64" />
<missing-glyph horiz-adv-x="1024" />
<glyph unicode="&#x20;" horiz-adv-x="512" d="" />
<glyph unicode="&#xe900;" glyph-name="si-activity" d="M970.752 404.992l-270.336 10.24c-13.179-0.129-24.361-8.537-28.604-20.266l-0.068-0.214-94.208-229.376-96.256 688.128c-2.687 14.174-14.21 25.002-28.523 26.61l-0.149 0.014c-0.057 0-0.125 0.001-0.192 0.001-14.813 0-27.465-9.251-32.495-22.291l-0.081-0.238-147.456-450.56h-219.136c-16.966 0-30.72-13.754-30.72-30.72s13.754-30.72 30.72-30.72v0h241.664c0.354-0.016 0.77-0.025 1.188-0.025 12.923 0 23.849 8.55 27.431 20.302l0.053 0.203 114.688 348.16 94.208-671.744c2.447-13.605 13.019-24.177 26.425-26.594l0.199-0.030h4.096c13.179 0.129 24.361 8.537 28.604 20.266l0.068 0.214 129.024 315.392 247.808-8.192c0.019 0 0.042 0 0.064 0 17.377 0 31.594 13.526 32.699 30.623l0.005 0.097c0 16.966-13.754 30.72-30.72 30.72v0z" />
<glyph unicode="&#xe901;" glyph-name="si-alarm-warning" d="M948.224 23.859v269.722c0 240.92-195.304 436.224-436.224 436.224s-436.224-195.304-436.224-436.224v0-269.722h-36.25v-65.126h944.947v65.126zM140.902 23.859v269.722c0 204.952 166.146 371.098 371.098 371.098s371.098-166.146 371.098-371.098v0-269.722zM764.938 714.657l62.801 125.904 84.119-41.959-62.801-125.904-84.119 41.959zM462.848 937.267h94.003v-140.698h-94.003v140.698zM109.904 800.576l84.119 41.959 62.801-125.904-84.119-41.959-62.801 125.904zM221.389 344.371h65.331c0 102.4 111.616 201.318 225.28 201.318v65.126c-149.299 0-290.611-129.434-290.611-266.445z" />
<glyph unicode="&#xe902;" glyph-name="si-alert" d="M449.923 871.254c27.591 47.787 96.563 47.787 124.154 0l409.41-709.12c27.591-47.786-6.896-107.52-62.075-107.52h-818.822c-55.179 0-89.666 59.734-62.077 107.52l409.41 709.12zM520.868 840.534c-3.94 6.827-13.795 6.827-17.736 0l-409.411-709.12c-3.941-6.826 0.985-15.36 8.868-15.36h818.822c7.883 0 12.808 8.534 8.868 15.36l-409.412 709.12zM512 606.72c16.966 0 30.72-13.754 30.72-30.72v-170.666c0-16.968-13.754-30.72-30.72-30.72s-30.72 13.752-30.72 30.72v170.666c0 16.966 13.754 30.72 30.72 30.72zM512 265.386c-16.966 0-30.72-13.754-30.72-30.72s13.754-30.72 30.72-30.72h0.426c16.966 0 30.72 13.754 30.72 30.72s-13.754 30.72-30.72 30.72h-0.426z" />
<glyph unicode="&#xe903;" glyph-name="si-align-justify" d="M128 734.72c-16.966 0-30.72-13.754-30.72-30.72s13.754-30.72 30.72-30.72h768c16.966 0 30.72 13.754 30.72 30.72s-13.754 30.72-30.72 30.72h-768zM128 564.054c-16.966 0-30.72-13.754-30.72-30.72 0-16.968 13.754-30.72 30.72-30.72h768c16.966 0 30.72 13.752 30.72 30.72 0 16.966-13.754 30.72-30.72 30.72h-768zM97.28 362.666c0 16.968 13.754 30.72 30.72 30.72h768c16.966 0 30.72-13.752 30.72-30.72 0-16.966-13.754-30.72-30.72-30.72h-768c-16.966 0-30.72 13.754-30.72 30.72zM128 222.72c-16.966 0-30.72-13.754-30.72-30.72s13.754-30.72 30.72-30.72h768c16.966 0 30.72 13.754 30.72 30.72s-13.754 30.72-30.72 30.72h-768z" />
<glyph unicode="&#xe904;" glyph-name="si-align-left" d="M128 734.72c-16.966 0-30.72-13.754-30.72-30.72s13.754-30.72 30.72-30.72h768c16.966 0 30.72 13.754 30.72 30.72s-13.754 30.72-30.72 30.72h-768zM389.12 560.64c-16.966 0-30.72-13.754-30.72-30.72s13.754-30.72 30.72-30.72h512c16.966 0 30.72 13.754 30.72 30.72s-13.754 30.72-30.72 30.72h-512zM97.28 362.666c0 16.968 13.754 30.72 30.72 30.72h768c16.966 0 30.72-13.752 30.72-30.72 0-16.966-13.754-30.72-30.72-30.72h-768c-16.966 0-30.72 13.754-30.72 30.72zM389.12 232.96c-16.966 0-30.72-13.754-30.72-30.72s13.754-30.72 30.72-30.72h512c16.966 0 30.72 13.754 30.72 30.72s-13.754 30.72-30.72 30.72h-512z" />
<glyph unicode="&#xe905;" glyph-name="si-align-right" d="M128 734.72c-16.966 0-30.72-13.754-30.72-30.72s13.754-30.72 30.72-30.72h768c16.966 0 30.72 13.754 30.72 30.72s-13.754 30.72-30.72 30.72h-768zM122.88 560.64c-16.966 0-30.72-13.754-30.72-30.72s13.754-30.72 30.72-30.72h512c16.966 0 30.72 13.754 30.72 30.72s-13.754 30.72-30.72 30.72h-512zM97.28 362.666c0 16.968 13.754 30.72 30.72 30.72h768c16.966 0 30.72-13.752 30.72-30.72 0-16.966-13.754-30.72-30.72-30.72h-768c-16.966 0-30.72 13.754-30.72 30.72zM122.88 232.96c-16.966 0-30.72-13.754-30.72-30.72s13.754-30.72 30.72-30.72h512c16.966 0 30.72 13.754 30.72 30.72s-13.754 30.72-30.72 30.72h-512z" />
<glyph unicode="&#xe906;" glyph-name="si-apps" d="M122.88 867.84c-16.966 0-30.72-13.754-30.72-30.72v-327.68c0-16.966 13.754-30.72 30.72-30.72h327.68c16.966 0 30.72 13.754 30.72 30.72v327.68c0 16.966-13.754 30.72-30.72 30.72h-327.68zM153.6 540.16v266.24h266.24v-266.24h-266.24zM122.88 418.986c-16.966 0-30.72-13.754-30.72-30.72v-327.68c0-16.966 13.754-30.72 30.72-30.72h327.68c16.966 0 30.72 13.754 30.72 30.72v327.68c0 16.966-13.754 30.72-30.72 30.72h-327.68zM153.6 91.306v266.24h266.24v-266.24h-266.24zM542.72 837.12c0 16.966 13.754 30.72 30.72 30.72h327.68c16.966 0 30.72-13.754 30.72-30.72v-327.68c0-16.966-13.754-30.72-30.72-30.72h-327.68c-16.966 0-30.72 13.754-30.72 30.72v327.68zM604.16 806.4v-266.24h266.24v266.24h-266.24zM573.44 418.986c-16.966 0-30.72-13.754-30.72-30.72v-327.68c0-16.966 13.754-30.72 30.72-30.72h327.68c16.966 0 30.72 13.754 30.72 30.72v327.68c0 16.966-13.754 30.72-30.72 30.72h-327.68zM604.16 91.306v266.24h266.24v-266.24h-266.24z" />
<glyph unicode="&#xe907;" glyph-name="si-archive" d="M22.528 931.328v-413.696h32.768v-552.96h905.216v552.96h40.96v413.696zM899.072 26.112h-782.336v491.52h782.336zM940.032 579.072h-856.064v290.816h856.064zM397.312 396.8h231.424c16.966 0 30.72 13.754 30.72 30.72v0c0 16.966-13.754 30.72-30.72 30.72v0h-231.424c-16.966 0-30.72-13.754-30.72-30.72v0c-0.050-0.637-0.079-1.378-0.079-2.127 0-15.835 12.837-28.672 28.672-28.672 0.749 0 1.49 0.029 2.224 0.085l-0.097-0.006z" />
<glyph unicode="&#xe908;" glyph-name="si-arrow-down" d="M542.72 945.254v-878.797l417.792 407.757 42.803-44.032-491.11-479.437-491.52 481.075 43.008 43.827 417.587-408.781v878.387h61.44z" />
<glyph unicode="&#xe909;" glyph-name="si-arrow-down-fill" d="M56.32 796.57h911.36l-455.68-697.139-455.68 697.139z" />
<glyph unicode="&#xe90a;" glyph-name="si-arrow-left" d="M1003.52 478.72h-878.797l407.757 417.587-44.032 43.008-479.437-491.11 481.075-491.52 43.827 42.803-408.781 417.792h878.387v61.44z" />
<glyph unicode="&#xe90b;" glyph-name="si-arrow-right" d="M14.746 478.72h878.797l-407.757 417.587 44.032 43.008 479.437-491.11-481.075-491.52-43.827 42.803 408.781 417.792h-878.387v61.44z" />
<glyph unicode="&#xe90c;" glyph-name="si-arrow-up" d="M542.72-49.254v878.797l417.792-407.757 42.803 44.032-491.11 479.437-491.52-481.075 43.008-43.827 417.587 408.781v-878.387h61.44z" />
<glyph unicode="&#xe90d;" glyph-name="si-arrow-up-fill" d="M967.68 99.43h-911.36l455.68 697.139 455.68-697.139z" />
<glyph unicode="&#xe90e;" glyph-name="si-award" d="M731.136 435.712c50.733 53.764 81.916 126.454 81.916 206.427 0 166.269-134.787 301.056-301.056 301.056s-301.056-134.787-301.056-301.056c0-0.572 0.002-1.144 0.005-1.715v0.088c0.363-79.762 32.334-151.988 84.022-204.855l-0.054 0.055-114.688-462.848 331.776 145.408 331.776-145.408zM512 880.128c132.336 0 239.616-107.28 239.616-239.616s-107.28-239.616-239.616-239.616c-132.336 0-239.616 107.28-239.616 239.616v0c0 132.336 107.28 239.616 239.616 239.616v0zM270.336 79.36l75.776 311.296c46.83-30.738 104.223-49.029 165.888-49.029s119.058 18.291 167.049 49.743l-1.161-0.714 75.776-311.296-241.664 106.496zM401.408 484.864l110.592 57.344 110.592-57.344-20.48 122.88 88.064 86.016-122.88 18.432-55.296 110.592-55.296-110.592-122.88-18.432 88.064-86.016zM497.664 654.848l14.336 30.72 14.336-30.72 32.768-4.096-24.576-22.528 6.144-32.768-28.672 16.384-28.672-16.384 6.144 32.768-24.576 22.528z" />
<glyph unicode="&#xe90f;" glyph-name="si-behance" d="M376.832 531.968c22.501 15.297 37.087 40.776 37.087 69.662 0 2.152-0.081 4.284-0.24 6.395l0.017-0.281c0 53.248-30.72 73.728-49.152 79.872h-2.048c-21.474 6.504-46.153 10.248-71.707 10.248-0.71 0-1.42-0.003-2.129-0.009l0.108 0.001h-151.552v-186.368h163.84c0.569-0.008 1.24-0.013 1.913-0.013 27.283 0 52.785 7.621 74.495 20.851l-0.632-0.358zM198.656 638.464h90.112c1.138 0.023 2.48 0.036 3.825 0.036 17.558 0 34.589-2.254 50.819-6.49l-1.396 0.309c4.096-2.048 10.24-6.144 10.24-24.576s-6.144-22.528-8.192-24.576c-10.712-5.319-23.329-8.431-36.672-8.431-2.23 0-4.439 0.087-6.625 0.258l0.289-0.018h-102.4zM372.736 468.48c-18.852 7.839-40.75 12.391-63.711 12.391-2.082 0-4.156-0.037-6.22-0.112l0.299 0.009h-165.888v-212.992h163.84c2.806-0.214 6.076-0.336 9.375-0.336 22.014 0 42.76 5.427 60.973 15.016l-0.717-0.344c24.576 12.288 53.248 38.912 53.248 98.304 0.102 1.622 0.16 3.518 0.16 5.427 0 36.038-20.685 67.245-50.83 82.395l-0.53 0.241zM344.064 337.408c-10.447-5.366-22.795-8.511-35.877-8.511-2.511 0-4.994 0.116-7.446 0.342l0.315-0.023h-102.4v90.112h104.448c1.312 0.050 2.853 0.079 4.4 0.079 13.808 0 27.085-2.278 39.474-6.478l-0.866 0.255c10.018-5.734 16.659-16.359 16.659-28.535 0-1.493-0.1-2.962-0.293-4.402l0.018 0.168c0-30.72-10.24-38.912-18.432-43.008zM854.016 540.16c-20.711 19.068-48.471 30.757-78.962 30.757-1.040 0-2.077-0.014-3.111-0.041l0.153 0.003c-2.156 0.15-4.672 0.235-7.209 0.235-30.842 0-58.735-12.625-78.794-32.989l-0.013-0.014c-20.424-21.61-33.92-49.96-36.824-81.38l-0.040-0.54-6.144-34.816h251.904v32.768c-0.573 34.504-16.296 65.225-40.788 85.875l-0.172 0.141zM720.896 482.816l8.192 12.288c9.817 9.060 22.986 14.616 37.453 14.616 1.956 0 3.889-0.102 5.793-0.3l-0.238 0.020c0.821 0.038 1.783 0.060 2.751 0.060 15.332 0 29.394-5.435 40.366-14.482l-0.108 0.087 8.192-12.288zM1001.472 466.432c-5.212 38.001-19.020 72.017-39.401 101.088l0.489-0.736c-19.613 31.473-47.556 56.122-80.764 71.21l-1.156 0.47c-29.78 14.283-64.738 22.627-101.645 22.627-2.426 0-4.843-0.036-7.252-0.108l0.353 0.008c-2.168 0.074-4.717 0.115-7.276 0.115-63.597 0-121.149-25.882-162.697-67.688l-0.012-0.012c-43.008-43.008-63.488-106.496-63.488-186.368-4.208 23.967-12.806 45.33-24.984 64.162l0.408-0.674c-8.295 14.789-19.298 27.1-32.442 36.639l-0.326 0.225 10.24 10.24c20.484 27.283 32.802 61.718 32.802 99.030 0 1.185-0.012 2.367-0.037 3.546l0.003-0.176c0.057 1.659 0.089 3.61 0.089 5.568 0 36.974-11.527 71.255-31.183 99.447l0.374-0.567h-2.048c-32.768 47.104-90.112 71.68-167.936 73.728h-296.96v-628.736h280.576c30.149 0.656 59.117 3.609 87.343 8.696l-3.375-0.504c28.329 6.096 53.161 18.249 74.068 35.081l-0.34-0.265c45.184 35.774 74.315 90.118 75.772 151.314l0.004 0.238c2.403-59.765 29.561-112.745 71.433-149.293l0.247-0.211c42.748-36.913 98.853-59.397 160.209-59.397 0.557 0 1.113 0.002 1.669 0.006h-0.086c75.776 0 135.168 24.576 176.128 71.68 24.905 24.103 42.443 55.682 48.991 91.113l0.161 1.047v30.72h4.096v28.672c0.55 9.285 0.864 20.143 0.864 31.073 0 20.072-1.058 39.898-3.121 59.423l0.208-2.433zM458.752 296.448c-7.656-14.026-17.995-25.673-30.415-34.608l-0.305-0.208c-13.613-11.112-30.248-19.048-48.483-22.425l-0.669-0.103c-20.033-5.232-43.031-8.237-66.73-8.237-1.74 0-3.477 0.016-5.209 0.048l0.26-0.004h-219.136v505.856h235.52c57.344 0 96.256-16.384 118.784-47.104 12.839-19.107 20.492-42.631 20.492-67.942 0-0.594-0.004-1.187-0.013-1.78l0.001 0.090c0.1-1.605 0.157-3.48 0.157-5.369 0-22.111-7.787-42.403-20.767-58.284l0.131 0.165c-8.452-10.014-18.65-18.251-30.171-24.313l-0.549-0.263-61.44-32.768 63.488-22.528c21.057-6.572 38.219-20.409 48.933-38.513l0.219-0.399c10.336-17.792 16.436-39.153 16.436-61.939 0-1.265-0.019-2.525-0.056-3.781l0.004 0.184c0.040-1.234 0.063-2.685 0.063-4.141 0-26.546-7.652-51.304-20.871-72.189l0.328 0.554zM645.12 411.136v-32.768c-0.1-1.881-0.156-4.084-0.156-6.3 0-70.127 56.849-126.976 126.976-126.976 2.216 0 4.419 0.057 6.607 0.169l-0.307-0.013c1.483-0.070 3.221-0.11 4.969-0.11 27.856 0 53.351 10.112 73.013 26.865l-0.158-0.132c8.321 5.302 15.178 12.159 20.322 20.216l0.158 0.264h47.104c-5.025-9.464-11.169-17.568-18.403-24.549l-0.029-0.027c-30.72-34.816-73.728-51.2-131.072-51.2-1.307-0.034-2.846-0.054-4.389-0.054-45.576 0-87.156 17.112-118.664 45.262l0.173-0.152c-34.816 28.672-51.2 75.776-51.2 143.36s16.384 114.688 47.104 147.456c29.588 29.292 70.306 47.39 115.252 47.39 3.404 0 6.784-0.104 10.137-0.308l-0.46 0.022c2.085 0.087 4.532 0.137 6.991 0.137 27.191 0 52.959-6.091 76.014-16.982l-1.085 0.461c24.623-10.397 44.423-28.214 57.041-50.615l0.303-0.585c14.664-20.806 24.84-45.8 28.573-72.851l0.099-0.877c1.4-11.198 2.199-24.157 2.199-37.303 0-3.447-0.055-6.88-0.164-10.3l0.013 0.499zM837.632 349.696l-6.144-12.288c-3.199-7.466-8.095-13.677-14.226-18.352l-0.11-0.080c-9.917-7.702-22.542-12.348-36.252-12.348-0.935 0-1.866 0.022-2.791 0.064l0.131-0.005c-1.56-0.118-3.378-0.185-5.213-0.185-13.953 0-27 3.876-38.124 10.609l0.329-0.185c-11.581 7.218-19.842 18.835-22.478 32.459l-0.050 0.309z" />
<glyph unicode="&#xe910;" glyph-name="si-bookmark" d="M23.962 936.038v-977.306l488.038 283.034 488.038-283.034v977.306zM938.598 65.434l-426.598 247.398-426.598-247.398v809.165h853.197z" />
<glyph unicode="&#xe911;" glyph-name="si-briefcase" d="M966.656 669.184h-249.856v153.6c0 16.966-13.754 30.72-30.72 30.72v0h-348.16c-16.966 0-30.72-13.754-30.72-30.72v0-153.6h-249.856c-16.966 0-30.72-13.754-30.72-30.72v0-565.248c-0.050-0.637-0.079-1.378-0.079-2.127 0-15.835 12.837-28.672 28.672-28.672 0.749 0 1.49 0.029 2.224 0.085l-0.097-0.006h909.312c0.637-0.050 1.378-0.079 2.127-0.079 15.835 0 28.672 12.837 28.672 28.672 0 0.749-0.029 1.49-0.085 2.224l0.006-0.097v565.248c0 16.966-13.754 30.72-30.72 30.72v0zM368.64 792.064h286.72v-122.88h-286.72zM337.92 607.744h595.968c-14.868-125.103-120.316-221.189-248.206-221.189-0.58 0-1.16 0.002-1.739 0.006h-343.975c-0.49-0.003-1.070-0.005-1.65-0.005-127.89 0-233.339 96.086-248.091 220.006l-0.115 1.184zM88.064 103.936v348.16c56.898-77.348 147.566-126.983 249.828-126.983 0.73 0 1.459 0.003 2.188 0.008l-0.112-0.001h344.064c0.617-0.004 1.346-0.007 2.076-0.007 102.261 0 192.929 49.635 249.227 126.128l0.6 0.855v-348.16zM544.768 448c0-18.097-14.671-32.768-32.768-32.768s-32.768 14.671-32.768 32.768c0 18.097 14.671 32.768 32.768 32.768s32.768-14.671 32.768-32.768z" />
<glyph unicode="&#xe912;" glyph-name="si-briefcase-2" d="M934.298 739.021h-250.47c0.101 1.5 0.159 3.252 0.159 5.018s-0.058 3.517-0.171 5.254l0.012-0.236v98.304c-0.347 39.097-32.122 70.657-71.268 70.657-0.145 0-0.29 0-0.435-0.001h-201.296c-0.122 0.001-0.267 0.001-0.412 0.001-39.146 0-70.921-31.56-71.268-70.624v-98.337c0.143-3.666 0.51-7.123 1.091-10.506l-0.067 0.47h-250.47c-0.122 0.001-0.267 0.001-0.412 0.001-39.146 0-70.921-31.56-71.268-70.624v-204.833c0.111-20.224 12.122-37.617 29.382-45.541l0.314-0.129v-389.12c-0.004-0.244-0.007-0.531-0.007-0.82 0-28.164 22.831-50.995 50.995-50.995 0.074 0 0.149 0 0.223 0h826.151c0.061 0 0.134 0 0.206 0 28.020 0 50.762 22.599 50.993 50.564v389.142c17.574 8.054 29.585 25.446 29.696 45.656v204.815c0.002 0.183 0.003 0.399 0.003 0.616 0 39.362-31.909 71.27-71.27 71.27-0.145 0-0.29 0-0.435-0.001h0.022zM400.589 749.056v98.304c0 0.001 0 0.001 0 0.002 0 5.542 4.493 10.035 10.035 10.035 0.072 0 0.144-0.001 0.215-0.002h202.331c0.061 0.001 0.133 0.002 0.205 0.002 5.542 0 10.035-4.493 10.035-10.035 0-0.001 0-0.001 0-0.002v0-98.304c0-0.001 0-0.001 0-0.002 0-5.542-4.493-10.035-10.035-10.035-0.072 0-0.144 0.001-0.215 0.002h-202.331c-0.061-0.001-0.133-0.002-0.205-0.002-5.542 0-10.035 4.493-10.035 10.035 0 0.001 0 0.001 0 0.002v0zM79.462 668.365c0 0.001 0 0.001 0 0.002 0 5.542 4.493 10.035 10.035 10.035 0.072 0 0.144-0.001 0.215-0.002h844.584c0.061 0.001 0.133 0.002 0.205 0.002 5.542 0 10.035-4.493 10.035-10.035 0-0.001 0-0.001 0-0.002v0-194.15h-865.075zM548.045 403.558v-98.918c-0.112-5.61-4.63-10.128-10.229-10.24h-51.621c-5.61 0.112-10.128 4.63-10.24 10.229v98.929c0 0.001 0 0.001 0 0.002 0 5.542 4.493 10.035 10.035 10.035 0.072 0 0.144-0.001 0.215-0.002h51.599c0.061 0.001 0.133 0.002 0.205 0.002 5.542 0 10.035-4.493 10.035-10.035 0-0.001 0-0.001 0-0.002v0zM109.158 38.4v375.194h307.2c-0.514-2.913-0.881-6.369-1.019-9.884l-0.005-0.151v-98.918c0.232-39.186 32.051-70.862 71.269-70.862 0.144 0 0.289 0 0.433 0.001h51.588c39.042 0.231 70.63 31.819 70.861 70.839v98.94c-0.143 3.666-0.51 7.123-1.091 10.506l0.067-0.47h307.2v-375.194z" />
<glyph unicode="&#xe913;" glyph-name="si-calendar" d="M737.28 888.32c16.966 0 30.72-13.754 30.72-30.72v-40.96h133.12c33.933 0 61.44-27.508 61.44-61.44v-696.32c0-33.933-27.507-61.44-61.44-61.44h-778.24c-33.932 0-61.44 27.507-61.44 61.44v696.32c0 33.932 27.508 61.44 61.44 61.44h133.12v40.96c0 16.966 13.754 30.72 30.72 30.72s30.72-13.754 30.72-30.72v-40.96h389.12v40.96c0 16.966 13.754 30.72 30.72 30.72zM256 755.2h-133.12v-174.080h778.24v174.080h-133.12v-81.92c0-16.966-13.754-30.72-30.72-30.72s-30.72 13.754-30.72 30.72v81.92h-389.12v-81.92c0-16.966-13.754-30.72-30.72-30.72s-30.72 13.754-30.72 30.72v81.92zM122.88 519.68v-460.8h778.24v460.8h-778.24z" />
<glyph unicode="&#xe914;" glyph-name="si-camera" d="M798.72 843.264v67.584h-573.44v-67.584h-200.704v-858.112h974.848v858.112zM937.984 46.592h-851.968v735.232h200.704v67.584h450.56v-67.584h200.704zM512 658.944c-116.501 0-210.944-94.443-210.944-210.944s94.443-210.944 210.944-210.944c116.501 0 210.944 94.443 210.944 210.944v0c0 116.501-94.443 210.944-210.944 210.944v0zM512 298.496c-82.569 0-149.504 66.935-149.504 149.504s66.935 149.504 149.504 149.504c82.569 0 149.504-66.935 149.504-149.504v0c0-82.569-66.935-149.504-149.504-149.504v0z" />
<glyph unicode="&#xe915;" glyph-name="si-chart-1" d="M797.094 417.28h-315.814v315.814c-143.905-15.329-256-137.122-256-285.094 0-158.351 128.369-286.72 286.72-286.72 147.972 0 269.765 112.095 285.094 256zM797.094 478.72c-14.254 133.812-120.562 240.12-254.374 254.374v-254.374h254.374zM860.16 448c0-192.283-155.877-348.16-348.16-348.16s-348.16 155.877-348.16 348.16c0 192.283 155.877 348.16 348.16 348.16s348.16-155.877 348.16-348.16z" />
<glyph unicode="&#xe916;" glyph-name="si-chat-history" d="M512 931.328c-266.935 0-483.328-216.393-483.328-483.328v0c-0.007-0.944-0.011-2.060-0.011-3.178 0-98.077 29.845-189.183 80.948-264.732l-1.065 1.67-59.392-192.512 210.944 47.104c71.080-44.984 157.608-71.682 250.371-71.682 0.539 0 1.077 0.001 1.616 0.003h-0.083c266.935 0 483.328 216.393 483.328 483.328s-216.393 483.328-483.328 483.328v0zM512 26.112c-0.998-0.009-2.178-0.014-3.359-0.014-84.124 0-162.354 25.234-227.533 68.546l1.517-0.948-12.288 8.192-131.072-30.72 36.864 120.832-8.192 12.288c-48.655 67.205-77.827 151.29-77.827 242.188 0 0.536 0.001 1.071 0.003 1.607v-0.083c0 233.002 188.886 421.888 421.888 421.888s421.888-188.886 421.888-421.888c0-233.002-188.886-421.888-421.888-421.888v0zM542.72 478.72v331.776h-61.44v-393.216h393.216v61.44h-331.776z" />
<glyph unicode="&#xe917;" glyph-name="si-check" d="M932.045 939.315l-445.645-891.085-413.901 292.454-35.43-50.176 472.269-333.824 477.594 955.187-54.886 27.443z" />
<glyph unicode="&#xe918;" glyph-name="si-chevron-down" d="M949.043 761.754l-437.043-530.842-437.043 530.842-47.514-39.117 484.557-588.39 484.557 588.39-47.514 39.117z" />
<glyph unicode="&#xe919;" glyph-name="si-chevron-left" d="M198.246 448l588.39-484.557 39.117 47.514-530.842 437.043 530.842 437.043-39.117 47.514-588.39-484.557z" />
<glyph unicode="&#xe91a;" glyph-name="si-chevron-right" d="M825.754 448l-588.39-484.557-39.117 47.514 530.842 437.043-530.842 437.043 39.117 47.514 588.39-484.557z" />
<glyph unicode="&#xe91b;" glyph-name="si-chevron-up" d="M512 761.754l-484.557-588.39 47.514-39.117 437.043 530.842 437.043-530.842 47.514 39.117-484.557 588.39z" />
<glyph unicode="&#xe91c;" glyph-name="si-close" d="M247.003 756.442c-11.997 11.997-31.449 11.997-43.445 0s-11.997-31.448 0-43.445l264.998-264.997-264.998-264.997c-11.997-11.997-11.997-31.449 0-43.446 11.996-11.995 31.448-11.995 43.445 0l264.997 264.999 264.997-264.999c11.997-11.995 31.449-11.995 43.446 0 11.995 11.997 11.995 31.449 0 43.446l-264.999 264.997 264.999 264.997c11.995 11.997 11.995 31.449 0 43.445-11.997 11.997-31.449 11.997-43.446 0l-264.997-264.998-264.997 264.998z" />
<glyph unicode="&#xe91d;" glyph-name="si-cloud" d="M1001.472 413.184c-14.336 104.448-96.256 210.944-243.712 204.8-51.2 98.304-167.936 161.792-292.864 155.648s-231.424-86.016-274.432-215.040c-137.216-34.816-178.176-145.408-167.936-233.472s88.064-202.752 208.896-202.752h550.912c163.84 26.624 233.472 165.888 219.136 290.816zM774.144 183.808h-538.624c-88.064-2.048-143.36 75.776-151.552 147.456s24.576 149.504 137.216 172.032l18.432 4.096 4.096 18.432c47.104 159.744 172.032 182.272 225.28 186.368 3.918 0.206 8.507 0.324 13.122 0.324 85.134 0 160.935-39.958 209.671-102.143l0.438-0.581c-47.755-13.294-88.602-38.228-120.754-71.598l-0.078-0.082 47.104-40.96c31.755 32.489 74.388 54.227 121.999 59.316l0.881 0.076c131.072 14.336 188.416-73.728 198.656-151.552 1.331-8.549 2.091-18.41 2.091-28.448 0-98.077-72.571-179.205-166.944-192.615l-1.035-0.121z" />
<glyph unicode="&#xe91e;" glyph-name="si-contrast" d="M512 937.472c-270.328 0-489.472-219.144-489.472-489.472s219.144-489.472 489.472-489.472c270.328 0 489.472 219.144 489.472 489.472v0c0 270.328-219.144 489.472-489.472 489.472v0zM512 19.968c-236.396 0-428.032 191.636-428.032 428.032s191.636 428.032 428.032 428.032c236.396 0 428.032-191.636 428.032-428.032v0c-1.157-235.929-192.103-426.875-427.921-428.032h-0.111zM487.424 828.928v-761.856c487.424 18.432 518.144 727.040 0 761.856z" />
<glyph unicode="&#xe91f;" glyph-name="si-copyright" d="M512 937.472c-270.328 0-489.472-219.144-489.472-489.472s219.144-489.472 489.472-489.472c270.328 0 489.472 219.144 489.472 489.472v0c-0.349 270.187-219.285 489.123-489.438 489.472h-0.034zM512 19.968c-236.396 0-428.032 191.636-428.032 428.032s191.636 428.032 428.032 428.032c236.396 0 428.032-191.636 428.032-428.032v0c-0.349-236.255-191.777-427.683-427.999-428.032h-0.033zM516.915 600.166c1.835 0.121 3.979 0.19 6.138 0.19 44.55 0 82.25-29.329 94.844-69.733l0.189-0.704h137.421c-27.238 113.050-112.026 178.586-237.568 178.586-145.818 0-249.446-102.4-249.446-260.506s103.629-260.506 249.446-260.506c125.542 0 210.33 71.066 237.568 178.586h-137.421c-12.027-40.536-48.942-69.6-92.645-69.6-3.002 0-5.971 0.137-8.903 0.405l0.377-0.028c-70.861 0-118.374 52.838-118.374 151.142s47.514 152.166 118.374 152.166z" />
<glyph unicode="&#xe920;" glyph-name="si-dashboard" d="M23.347 264.909h458.138v671.13h-458.138zM84.787 874.598h335.258v-548.25h-335.258zM542.515 631.091v-671.13h458.138v671.13zM939.213 21.402h-335.258v548.25h335.258zM24.371-38.195h457.114v257.434h-457.114zM85.811 157.798h334.234v-134.554h-334.234zM1000.038 934.4h-457.114v-257.434h457.114zM938.598 738.406h-334.234v134.554h334.234z" />
<glyph unicode="&#xe921;" glyph-name="si-delete" d="M183.091 96.973c0.116-73.36 59.555-132.799 132.904-132.915h395.48c73.36 0.116 132.799 59.555 132.915 132.904v580.005h-661.299zM244.531 615.526h538.419v-518.554c0-39.475-32.001-71.475-71.475-71.475v0h-395.469c-39.475 0-71.475 32.001-71.475 71.475v0zM110.387 931.942v-214.835h803.226v214.835zM852.173 778.547h-680.346v91.955h680.346z" />
<glyph unicode="&#xe922;" glyph-name="si-document" d="M906.035 585.216v2.253c0.003 0.153 0.004 0.334 0.004 0.516 0 8.384-3.451 15.963-9.010 21.392l-325.843 317.036c-5.343 5.062-12.526 8.228-20.447 8.396l-0.033 0.001h-316.416c-64.295-0.233-116.326-52.408-116.326-116.735 0 0 0 0 0-0.001v0-740.557c0 0 0 0 0-0.001 0-64.327 52.031-116.502 116.304-116.735h555.44c64.295 0.233 116.326 52.408 116.326 116.735 0 0 0 0 0 0.001v0 507.699zM580.608 830.976l219.136-213.402h-219.136zM789.709 22.221h-555.418c-30.338 0.116-54.887 24.737-54.887 55.091 0 0.072 0 0.144 0 0.216v-0.011 740.966c0 0.061 0 0.133 0 0.205 0 30.354 24.549 54.975 54.876 55.091h284.888v-286.72c0-16.966 13.754-30.72 30.72-30.72v0h294.707v-479.232c-0.116-30.266-24.62-54.77-54.875-54.886h-0.011z" />
<glyph unicode="&#xe923;" glyph-name="si-dollar-sign" d="M512 934.605c-268.744 0-486.605-217.86-486.605-486.605s217.86-486.605 486.605-486.605c268.744 0 486.605 217.86 486.605 486.605v0c-0.349 268.604-218.001 486.255-486.571 486.605h-0.033zM512 22.835c-234.812 0-425.165 190.353-425.165 425.165s190.353 425.165 425.165 425.165c234.812 0 425.165-190.353 425.165-425.165v0c-0.233-234.718-190.447-424.932-425.143-425.165h-0.022zM699.597 441.651c-44.55 26.371-96.319 46.667-151.358 58.010l-3.266 0.563c-49.446 9.887-92.979 23.68-134.318 41.582l4.27-1.646c-15.612 9.122-25.934 25.8-25.934 44.888 0 1.284 0.047 2.558 0.139 3.819l-0.010-0.169c-0.018 0.551-0.028 1.198-0.028 1.848 0 23.86 13.601 44.544 33.473 54.721l0.347 0.161c22.22 12.007 48.637 19.063 76.702 19.063 0.826 0 1.651-0.006 2.475-0.018l-0.124 0.001h12.288c73.114-1.434 111.821-28.262 115.302-80.691h102.4q-4.301 139.469-174.899 157.696v64.922h-76.186v-62.669c-51.14-0.756-98.103-18.028-135.949-46.703l0.576 0.418c-35.83-26.708-58.784-68.965-58.784-116.583 0-0.486 0.002-0.971 0.007-1.456l-0.001 0.074q0-79.053 46.694-110.387c42.66-25.288 92.193-44.912 144.833-56.151l3.238-0.579c51.501-11.087 96.211-25.192 139.049-42.907l-5.315 1.947c19.341-9.076 32.495-28.387 32.495-50.771 0-1.376-0.050-2.74-0.147-4.092l0.011 0.181c0.005-0.337 0.008-0.735 0.008-1.134 0-26.643-12.979-50.255-32.958-64.858l-0.227-0.158c-24.16-16.626-54.052-26.554-86.263-26.554-3.588 0-7.147 0.123-10.674 0.366l0.476-0.026q-141.517 0-143.36 104.858h-102.4c6.554-112.64 75.571-173.466 206.848-184.32v-55.296h75.366v56.73c50.071 3.011 95.386 21.187 131.991 49.947l-0.509-0.386c37.586 29.895 61.47 75.625 61.47 126.934 0 1.095-0.011 2.188-0.033 3.278l0.003-0.163q2.662 82.33-47.718 115.712z" />
<glyph unicode="&#xe924;" glyph-name="si-download" d="M512 785.92c16.966 0 30.72-13.754 30.72-30.72v-419.062l118.225 118.225c11.997 11.995 31.447 11.995 43.444 0 11.997-11.997 11.997-31.449 0-43.446l-170.666-170.666c-11.997-11.997-31.449-11.997-43.444 0l-170.668 170.666c-11.997 11.997-11.997 31.449 0 43.446 11.997 11.995 31.449 11.995 43.444 0l118.225-118.225v419.062c0 16.966 13.754 30.72 30.72 30.72zM256 147.626c0 16.968 13.754 30.72 30.72 30.72h450.56c16.966 0 30.72-13.752 30.72-30.72 0-16.966-13.754-30.72-30.72-30.72h-450.56c-16.966 0-30.72 13.754-30.72 30.72z" />
<glyph unicode="&#xe925;" glyph-name="si-dribbble" d="M512 940.954c-272.251 0-492.954-220.703-492.954-492.954s220.703-492.954 492.954-492.954c272.251 0 492.954 220.703 492.954 492.954v0c-0.35 272.11-220.843 492.604-492.92 492.954h-0.034zM943.514 448c0-4.71 0-9.216 0-13.722-22.422 2.004-48.504 3.147-74.853 3.147-88.254 0-173.513-12.821-254.017-36.702l6.31 1.606h-1.434c-4.506 11.878-9.011 23.757-13.722 35.226-25.207 61.761-49.793 112.339-77.109 161.184l3.79-7.379c107.451 38.301 199.528 95.963 276.357 169.437l-0.287-0.272c83.107-78.525 134.867-189.471 134.963-312.507v-0.018zM761.037 799.846c-71.945-66.641-158.137-119.047-253.387-152.071l-5.070-1.529c-44.245 76.507-95.441 142.441-154.325 200.611l-0.094 0.093c48.439 20.522 104.769 32.449 163.884 32.449 93.453 0 179.944-29.807 250.486-80.432l-1.288 0.879zM289.587 816.64c59.282-54.936 110.162-117.745 151.282-187.027l2.113-3.846-11.674-3.277c-70.402-21.855-151.342-34.443-235.222-34.443-31.708 0-62.995 1.799-93.766 5.3l3.765-0.348c34.908 94.916 99.164 172.149 181.604 222.564l1.896 1.078zM80.486 448c-0.001 0.264-0.001 0.577-0.001 0.889 0 29.919 3.133 59.106 9.088 87.252l-0.485-2.74c29.749-4.695 64.054-7.376 98.986-7.376 0.768 0 1.537 0.001 2.304 0.004h-0.119c91.947 0.876 180.365 14.507 264.038 39.202l-6.81-1.724 27.034 7.373c24.078-42.747 48.831-94.506 70.381-147.901l3.347-9.386c4.096-10.035 8.192-20.48 12.083-31.13-156.877-55.501-285.696-148.48-344.678-248.013-83.306 78.613-135.168 189.771-135.168 313.043 0 0.178 0 0.356 0 0.534v-0.028zM264.806 95.539c48.128 90.112 167.526 176.742 316.621 229.376 29.815-85.089 50.39-183.681 57.551-285.971l0.203-3.616c-37.658-11.95-80.969-18.837-125.888-18.837-93.147 0-179.377 29.612-249.791 79.934l1.305-0.886zM698.163 58.88c-9.366 104.966-30.321 201.714-61.779 293.588l2.592-8.711c68.295 20.459 146.773 32.234 228.002 32.234 24.491 0 48.731-1.070 72.678-3.167l-3.105 0.219c-25.334-139.432-114.667-253.751-235.836-313.036l-2.551-1.127z" />
<glyph unicode="&#xe926;" glyph-name="si-edit" d="M942.080 586.65v-564.429h-860.16v732.979h443.392v61.44h-474.112c-0.001 0-0.002 0-0.003 0-16.966 0-30.72-13.754-30.72-30.72 0-0.144 0.001-0.288 0.003-0.431v0.022-794.010c0-16.966 13.754-30.72 30.72-30.72v0h921.6c16.966 0 30.72 13.754 30.72 30.72v0 595.149zM338.125 399.258l-40.96-157.286c-0.43-1.914-0.677-4.113-0.677-6.369 0-9.247 4.141-17.527 10.669-23.086l0.043-0.035c5.533-5.439 13.126-8.799 21.503-8.806h0.001c2.925 0.009 5.743 0.457 8.394 1.283l-0.202-0.054 154.624 43.213c6.988 2.054 12.786 6.324 16.727 11.983l0.066 0.1 466.125 487.014c5.22 5.554 8.427 13.052 8.427 21.299s-3.207 15.746-8.442 21.315l0.015-0.016-114.278 118.579c-5.721 5.611-13.567 9.074-22.221 9.074s-16.5-3.463-22.226-9.079l0.005 0.005-470.016-491.52c-4.214-4.71-6.984-10.791-7.57-17.499l-0.008-0.114zM397.107 381.85l441.344 461.005 71.27-74.342-444.211-463.872-94.822-26.624z" />
<glyph unicode="&#xe927;" glyph-name="si-error" d="M311.4 901.831c5.743 5.781 13.543 9.045 21.692 9.074l361.384 1.261c8.147 0.028 15.972-3.181 21.754-8.922l256.428-254.645c5.782-5.743 9.046-13.543 9.075-21.692l1.262-361.384c0.027-8.147-3.183-15.972-8.923-21.754l-254.644-256.428c-5.743-5.782-13.543-9.046-21.692-9.075l-361.384-1.262c-8.147-0.027-15.972 3.183-21.754 8.923l-256.428 254.644c-5.781 5.743-9.045 13.543-9.073 21.692l-1.262 361.384c-0.028 8.147 3.181 15.972 8.922 21.754l254.645 256.428zM109.318 611.138l1.173-335.935 238.372-236.712 335.935 1.171 236.712 238.373-1.171 335.935-238.373 236.712-335.935-1.173-236.712-238.372zM704.389 606.255c11.997-11.997 11.997-31.449 0-43.444l-131.877-131.879 131.877-131.877c11.997-11.997 11.997-31.449 0-43.444-11.997-11.997-31.447-11.997-43.444 0l-131.877 131.877-131.879-131.877c-11.997-11.997-31.447-11.997-43.444 0-11.997 11.995-11.997 31.447 0 43.444l131.877 131.877-131.877 131.879c-11.997 11.995-11.997 31.447 0 43.444s31.447 11.997 43.444 0l131.879-131.879 131.877 131.879c11.997 11.997 31.447 11.997 43.444 0z" />
<glyph unicode="&#xe928;" glyph-name="si-exit" d="M1003.11 0.307l-447.898 447.898 447.488 447.693-43.418 43.418-447.488-447.488-447.898 447.693-43.418-43.418 447.693-447.898-447.693-447.693 43.418-43.622 447.898 447.898 447.898-447.898 43.418 43.418z" />
<glyph unicode="&#xe929;" glyph-name="si-exit-full-screen" d="M414.038 531.626c19.227 0 34.816 15.587 34.816 34.816v209.238c0 16.966-13.754 30.72-30.72 30.72-16.968 0-30.72-13.754-30.72-30.72v-182.614h-182.614c-16.966 0-30.72-13.752-30.72-30.72 0-16.966 13.754-30.72 30.72-30.72h209.238zM627.030 381.44c-19.229 0-34.816-15.587-34.816-34.816v-209.238c0-16.966 13.752-30.72 30.72-30.72 16.966 0 30.72 13.754 30.72 30.72v182.614h182.612c16.968 0 30.72 13.754 30.72 30.72s-13.752 30.72-30.72 30.72h-209.236zM627.030 531.626c-19.229 0-34.816 15.589-34.816 34.816v209.238c0 16.966 13.752 30.72 30.72 30.72 16.966 0 30.72-13.754 30.72-30.72v-182.614h182.612c16.968 0 30.72-13.752 30.72-30.72 0-16.966-13.752-30.72-30.72-30.72h-209.236zM448.854 346.624c0 19.229-15.587 34.816-34.816 34.816h-209.238c-16.966 0-30.72-13.754-30.72-30.72s13.754-30.72 30.72-30.72h182.614v-182.614c0-16.966 13.752-30.72 30.72-30.72 16.966 0 30.72 13.754 30.72 30.72v209.238z" />
<glyph unicode="&#xe92a;" glyph-name="si-eye" d="M512 665.293c-280.166 0-491.52-94.413-491.52-217.293s211.354-217.293 491.52-217.293 491.52 93.389 491.52 217.293-211.354 217.293-491.52 217.293zM512 292.147c-253.542 0-430.080 81.92-430.080 155.853s176.538 155.853 430.080 155.853 430.080-81.92 430.080-155.853-176.538-155.853-430.080-155.853zM512 561.664c-62.775 0-113.664-50.889-113.664-113.664s50.889-113.664 113.664-113.664c62.775 0 113.664 50.889 113.664 113.664v0c-0.116 62.728-50.936 113.548-113.653 113.664h-0.011zM512 416.256c-17.532 0-31.744 14.212-31.744 31.744s14.212 31.744 31.744 31.744c17.532 0 31.744-14.212 31.744-31.744v0c0-0.061 0.001-0.133 0.001-0.205 0-17.419-14.121-31.539-31.539-31.539-0.072 0-0.144 0-0.217 0.001h0.011z" />
<glyph unicode="&#xe92b;" glyph-name="si-facebook" d="M586.957 681.882c0 35.84 0 35.84 31.744 35.84 27.302-0.769 53.389-3.79 78.722-8.892l-2.946 0.495 31.334-6.349 31.949 204.8-28.877 5.939c-43.778 11.083-94.223 17.832-146.113 18.63l-0.524 0.006c-159.949 0-241.254-77.414-241.254-229.99v-62.464h-93.798v-212.378h94.413v-457.933h245.76v457.933h131.482l18.432 212.378h-149.504zM668.877 579.482l-6.963-90.522h-136.397v-457.933h-122.88v457.933h-94.003v89.498h94.413v122.88c0 118.17 53.862 168.55 179.814 168.55 37.471-0.211 73.852-4.378 108.898-12.103l-3.426 0.634-12.493-83.763c-16.701 2.586-36.188 4.214-55.999 4.502l-0.321 0.004c-93.184 0-93.184-63.283-93.184-97.28v-102.4z" />
<glyph unicode="&#xe92c;" glyph-name="si-file-list" d="M20.48 939.52v-983.040h983.040v983.040zM942.080 17.92h-860.16v860.16h860.16zM149.914 806.4h724.173v-61.44h-724.173v61.44zM149.914 478.72h724.173v-61.44h-724.173v61.44zM149.914 151.859h416.154v-61.44h-416.154v61.44z" />
<glyph unicode="&#xe92d;" glyph-name="si-flag" d="M653.312 908.8v28.672h-499.712v-978.944h61.44v489.472h292.864v-38.912h362.496v499.712zM808.96 470.528h-239.616v38.912h-354.304v366.592h376.832v-28.672h217.088z" />
<glyph unicode="&#xe92e;" glyph-name="si-flash" d="M757.76 593.408h-200.704l129.024 342.016h-286.72l-133.12-479.232h169.984l-122.88-495.616zM348.16 517.632l98.304 356.352h151.552l-129.024-337.92h172.032l-188.416-270.336 61.44 251.904z" />
<glyph unicode="&#xe92f;" glyph-name="si-folder" d="M901.12 766.054h-351.232c-15.043 79.727-84.126 139.23-167.113 139.264h-226.717c0 0 0 0 0 0-36.801 0-66.648-29.775-66.764-66.549v-78.859c-40.249-14.273-68.599-51.926-68.813-96.23v-570.599c0-56.554 45.846-102.4 102.4-102.4v0h778.24c56.554 0 102.4 45.846 102.4 102.4v0 570.573c0 56.554-45.846 102.4-102.4 102.4v0zM150.733 838.758c0 0.001 0 0.003 0 0.004 0 2.828 2.292 5.12 5.12 5.12 0.072 0 0.144-0.001 0.215-0.004h226.704c0.041 0 0.089 0 0.137 0 48.997 0 90.411-32.464 103.906-77.055l0.2-0.769h-336.282zM942.080 93.082c0-22.622-18.338-40.96-40.96-40.96v0h-778.24c-22.622 0-40.96 18.338-40.96 40.96v0 570.573c0 22.622 18.338 40.96 40.96 40.96v0h778.24c22.622 0 40.96-18.338 40.96-40.96v0z" />
<glyph unicode="&#xe930;" glyph-name="si-full-screen" d="M132.096 862.72c-19.228 0-34.816-15.588-34.816-34.816v-209.238c0-16.966 13.754-30.72 30.72-30.72s30.72 13.754 30.72 30.72v182.614h182.614c16.966 0 30.72 13.754 30.72 30.72s-13.754 30.72-30.72 30.72h-209.238zM891.904 33.28c19.229 0 34.816 15.587 34.816 34.816v209.238c0 16.966-13.754 30.72-30.72 30.72s-30.72-13.754-30.72-30.72v-182.614h-182.614c-16.966 0-30.72-13.754-30.72-30.72s13.754-30.72 30.72-30.72h209.238zM891.904 862.72c19.229 0 34.816-15.588 34.816-34.816v-209.238c0-16.966-13.754-30.72-30.72-30.72s-30.72 13.754-30.72 30.72v182.614h-182.614c-16.966 0-30.72 13.754-30.72 30.72s13.754 30.72 30.72 30.72h209.238zM97.28 68.096c0-19.229 15.588-34.816 34.816-34.816h209.238c16.966 0 30.72 13.754 30.72 30.72s-13.754 30.72-30.72 30.72h-182.614v182.614c0 16.966-13.754 30.72-30.72 30.72s-30.72-13.754-30.72-30.72v-209.238z" />
<glyph unicode="&#xe931;" glyph-name="si-git-branch" d="M928.768 781.824c-0.279 84.846-69.124 153.518-154.009 153.518-85.057 0-154.010-68.952-154.010-154.010 0-71.226 48.35-131.158 114.020-148.767l1.077-0.246v-52.019c0.024-0.436 0.037-0.945 0.037-1.459 0-15.303-12.075-27.786-27.217-28.44l-0.059-0.002h-314.982c-3.563 0.16-7.742 0.251-11.942 0.251-33.508 0-65.663-5.794-95.518-16.434l1.988 0.618v97.485c66.914 17.824 115.405 77.874 115.405 149.251 0 85.17-69.044 154.214-154.214 154.214s-154.214-69.044-154.214-154.214c0-71.377 48.491-131.428 114.328-149.006l1.077-0.245v-368.64c-66.799-17.818-115.2-77.776-115.2-149.039 0-85.057 68.952-154.010 154.010-154.010s154.010 68.952 154.010 154.010c0 71.263-48.401 131.222-114.124 148.795l-1.076 0.245v176.333c11.878 27.648 73.933 34.611 103.629 32.973h316.826c58.085 0.807 104.861 48.082 104.861 106.282 0 0.291-0.001 0.583-0.004 0.873v-0.045 52.224c66.873 17.937 115.302 78.004 115.302 149.383 0 0.043 0 0.085 0 0.128v-0.007zM172.851 781.824c0 0.061 0 0.133 0 0.205 0 42.302 34.293 76.595 76.595 76.595s76.595-34.293 76.595-76.595c0-42.302-34.293-76.595-76.595-76.595-0.072 0-0.144 0-0.216 0h0.011c-42.142 0.116-76.274 34.248-76.39 76.379v0.011zM325.837 114.176c0-0.061 0-0.133 0-0.205 0-42.302-34.293-76.595-76.595-76.595s-76.595 34.293-76.595 76.595c0 42.302 34.293 76.595 76.595 76.595v0c0 0 0 0 0 0 42.23 0 76.478-34.176 76.595-76.379v-0.011zM774.758 705.434c-42.189 0-76.39 34.201-76.39 76.39s34.201 76.39 76.39 76.39c42.189 0 76.39-34.201 76.39-76.39v0c-0.116-42.142-34.248-76.274-76.379-76.39h-0.011z" />
<glyph unicode="&#xe932;" glyph-name="si-github" d="M903.168 685.568c-9.026 27.529-22.285 51.366-39.224 72.074l0.312-0.394c20.48 77.824 18.432 131.072-10.24 167.936-5.698 6.022-13.63 9.878-22.464 10.238l-0.064 0.002c-57.344 4.096-114.688-14.336-178.176-55.296l-79.872 10.24c-18.738 1.851-40.503 2.906-62.516 2.906-50.406 0-99.519-5.535-146.765-16.030l4.481 0.836c-67.584 49.152-122.88 67.584-165.888 53.248-8.71-1.82-15.627-8.057-18.381-16.211l-0.051-0.173c-13.362-30.674-21.137-66.41-21.137-103.962 0-24.202 3.229-47.649 9.28-69.935l-0.431 1.865c-30.76-43.94-49.152-98.504-49.152-157.363 0-0.117 0-0.234 0-0.351v0.018-12.288c1.007-143.553 105.142-262.488 241.956-286.465l1.756-0.255c-7.668-18.156-12.174-39.256-12.288-61.396v-59.436c-12.426-4.161-26.733-6.561-41.601-6.561-18.998 0-37.081 3.919-53.484 10.994l0.877-0.337c-79.872 36.864-116.736 151.552-116.736 153.6-4.441 11.85-15.672 20.131-28.837 20.131-3.609 0-7.073-0.622-10.289-1.766l0.215 0.067c-12.811-3.893-21.974-15.601-21.974-29.449 0-3.382 0.547-6.637 1.556-9.68l-0.062 0.217c2.048-4.096 47.104-139.264 151.552-188.416 21.069-10.4 45.869-16.483 72.090-16.483 2.016 0 4.024 0.036 6.023 0.107l-0.289-0.008c1.837-0.083 3.992-0.13 6.157-0.13 12.357 0 24.353 1.541 35.808 4.442l-1.005-0.216v-90.112c0.389-11.093 1.86-21.637 4.316-31.797l-0.22 1.077c2.073-13.976 13.988-24.578 28.378-24.578 0.103 0 0.207 0.001 0.31 0.002h6.128c14.311 1.751 25.287 13.829 25.287 28.471 0 2.249-0.259 4.438-0.749 6.538l0.038-0.194c-1.349 4.635-2.125 9.96-2.125 15.465 0 1.044 0.028 2.081 0.083 3.11l-0.006-0.144v215.040c0.541 26.065 10.548 49.693 26.709 67.68l-0.085-0.096c5.038 5.733 8.112 13.299 8.112 21.583 0 4.013-0.721 7.858-2.042 11.412l0.074-0.227c-5.647 10.484-16.242 17.665-28.573 18.427l-0.099 0.005h-6.144c-126.681 0-229.376 102.695-229.376 229.376v12.288c0.627 50.234 17.451 96.419 45.477 133.704l-0.421-0.584c3.069 5.437 4.878 11.939 4.878 18.863 0 2.747-0.285 5.428-0.826 8.014l0.044-0.253c-5.876 19.318-9.259 41.52-9.259 64.512s3.383 45.194 9.678 66.136l-0.419-1.624c18.432 0 53.248-10.24 108.544-53.248 5.728-3.504 12.66-5.58 20.077-5.58 3.79 0 7.454 0.542 10.918 1.552l-0.275-0.069c40.68 9.632 87.388 15.154 135.386 15.154 20.838 0 41.432-1.041 61.734-3.073l-2.56 0.207c32.302-2.533 61.705-6.888 90.423-13.085l-4.407 0.797c2.195-0.524 4.715-0.825 7.305-0.825 6.396 0 12.363 1.832 17.407 5.001l-0.136-0.080c36.572 29.574 82.094 49.478 131.931 55.185l1.189 0.111c6.144-18.432 10.24-51.2-10.24-116.736-0.551-2.319-0.867-4.983-0.867-7.719 0-7.905 2.634-15.194 7.073-21.039l-0.063 0.086c16.652-18.363 29.891-40.174 38.492-64.192l0.42-1.344c9.081-23.146 14.344-49.948 14.344-77.98 0-0.665-0.003-1.33-0.009-1.994l0.001 0.102v-12.288c0-0.003 0-0.006 0-0.009 0-126.681-102.695-229.376-229.376-229.376-0.72 0-1.439 0.003-2.158 0.010l0.11-0.001c-12.091-0.068-22.403-7.61-26.557-18.237l-0.067-0.195c-2.119-3.902-3.365-8.544-3.365-13.477 0-7.44 2.834-14.218 7.481-19.314l-0.020 0.023c16.481-16.947 26.644-40.113 26.644-65.652 0-0.679-0.007-1.357-0.021-2.033l0.002 0.101v-212.992c0.049-0.886 0.077-1.923 0.077-2.967 0-5.506-0.776-10.83-2.224-15.87l0.1 0.405c-0.387-1.847-0.608-3.97-0.608-6.144 0-17.302 14.026-31.328 31.328-31.328 15.128 0 27.751 10.722 30.685 24.982l0.035 0.202c1.355 7.715 2.13 16.598 2.13 25.663 0 1.778-0.030 3.55-0.089 5.314l0.007-0.257v212.992c0 0.122 0.001 0.266 0.001 0.41 0 22.033-4.519 43.011-12.68 62.058l0.391-1.027c137.1 25.183 239.616 143.756 239.616 286.274 0 0.157 0 0.314 0 0.471v-0.025 12.288c-0.151 36.091-6.899 70.561-19.099 102.329l0.667-1.977z" />
<glyph unicode="&#xe933;" glyph-name="si-globe" d="M512 937.472c-270.328 0-489.472-219.144-489.472-489.472s219.144-489.472 489.472-489.472c270.328 0 489.472 219.144 489.472 489.472v0c0 270.328-219.144 489.472-489.472 489.472v0zM940.032 478.72h-247.808c-2.048 151.552-30.72 301.056-79.872 385.024 179.409-44.482 312.804-197.302 327.584-383.521l0.096-1.503zM512 19.968c-47.104 0-114.688 153.6-118.784 397.312h237.568c-4.096-243.712-71.68-397.312-118.784-397.312zM393.216 478.72c4.096 243.712 71.68 397.312 118.784 397.312s114.688-153.6 118.784-397.312zM411.648 863.744c-49.152-83.968-77.824-233.472-79.872-385.024h-247.808c14.876 187.722 148.271 340.541 324.721 384.401l2.959 0.623zM83.968 417.28h247.808c2.048-151.552 30.72-301.056 79.872-385.024-179.409 44.482-312.804 197.302-327.584 383.521l-0.096 1.503zM612.352 32.256c49.152 83.968 77.824 233.472 79.872 385.024h247.808c-14.876-187.722-148.271-340.541-324.721-384.401l-2.959-0.623z" />
<glyph unicode="&#xe934;" glyph-name="si-gmail" d="M865.485 814.387c-20.579-0.007-40.026-4.846-57.271-13.444l0.746 0.337-295.526-218.726-282.829 209.715c-20.042 13.848-44.86 22.119-71.61 22.119-0.169 0-0.337 0-0.506-0.001h0.026c-71.145 0-128.819-57.674-128.819-128.819v0-521.626c0-45.243 36.677-81.92 81.92-81.92v0h177.971v313.344l225.28-166.912 220.57 163.84v-310.682h176.538c45.243 0 81.92 36.677 81.92 81.92v0 522.035c0 0 0 0 0 0.001 0 71.001-57.441 128.586-128.387 128.818h-0.022zM932.864 163.942c0-11.311-9.169-20.48-20.48-20.48v0h-115.507v370.893l-282.010-209.715-286.72 212.787v-374.784h-116.122c-11.311 0-20.48 9.169-20.48 20.48v0 522.445c0.116 37.166 30.214 67.263 67.368 67.379h0.011c0.219 0.003 0.478 0.004 0.738 0.004 13.222 0 25.515-3.978 35.748-10.802l-0.236 0.148 318.259-236.339 271.155 201.114 53.862 40.96c8.013 3.646 17.378 5.77 27.238 5.77 37.099 0 67.174-30.075 67.174-67.174 0-0.013 0-0.025 0-0.038v0.002z" />
<glyph unicode="&#xe935;" glyph-name="si-heart" d="M905.83 812.134c-42.191 33.858-96.38 54.339-155.352 54.339-18.605 0-36.734-2.039-54.176-5.905l1.656 0.308c-43.363-10.17-81.4-28.409-114.224-53.187l0.765 0.553c-19.749-14.693-37.162-30.352-53.022-47.471l-0.226-0.247-6.554-6.554-12.698-13.107-12.698 13.107-6.349 6.349c-16.112 17.496-33.597 33.227-52.453 47.214l-1 0.709c-32.106 24.277-70.221 42.524-111.625 52.231l-2.039 0.403c-15.814 3.586-33.976 5.641-52.618 5.641-58.881 0-112.974-20.502-155.529-54.757l0.479 0.373c-55.515-46.565-90.562-115.965-90.562-193.549 0-1.58 0.015-3.156 0.043-4.728l-0.003 0.236c0-91.546 42.394-180.429 124.314-264.192 104.338-107.658 215.151-207.37 332.449-299.178l7.11-5.36 20.48-15.77 20.48 15.77c124.432 97.099 235.249 196.815 338.73 303.678l0.829 0.86c81.92 83.968 123.904 172.851 124.314 264.192v0c0.022 1.252 0.035 2.729 0.035 4.209 0 77.671-35.038 147.158-90.171 193.517l-0.386 0.316zM823.91 397.005c-96.196-99.361-197.966-191.655-305.457-277.060l-6.453-4.95c-113.829 90.416-215.53 182.705-310.895 281.168l-0.811 0.841c-69.427 70.861-104.858 143.36-105.062 217.293-0.037 1.377-0.058 2.998-0.058 4.623 0 56.44 25.368 106.956 65.324 140.766l0.27 0.223c30.22 24.37 69.087 39.119 111.399 39.119 0.292 0 0.584-0.001 0.876-0.002h-0.045c13.657-0.038 26.944-1.528 39.744-4.323l-1.241 0.227c33.745-7.856 63.346-22.058 88.851-41.383l-0.582 0.423c16.227-12.244 30.559-25.277 43.617-39.499l0.21-0.232 7.987-8.192c4.506-4.506 15.974-15.974 22.938-24.576v0l1.434-1.843 2.867-4.301c13.246-19.509 24.484-41.938 32.595-65.812l0.583-1.976c9.266 36.083 27.822 66.994 52.974 91.070l0.070 0.066 7.373 7.578 8.192 8.192c13.236 14.41 27.571 27.381 43.018 38.947l0.809 0.58c24.838 18.771 54.278 32.951 86.248 40.633l1.612 0.327c11.582 2.641 24.883 4.154 38.537 4.154 42.646 0 81.844-14.762 112.763-39.454l-0.363 0.28c40.237-34.575 65.564-85.523 65.564-142.386 0-1.135-0.010-2.267-0.030-3.397l0.002 0.17c-0.205-73.114-35.635-145.818-105.062-217.293z" />
<glyph unicode="&#xe936;" glyph-name="si-home" d="M944.742-40.653l-4.71 564.429-428.032 425.37-428.442-425.165-4.096-564.634h362.701v249.037h139.674v-249.037zM380.723 269.824v-249.037h-239.411l3.686 477.389 367.002 364.339 366.797-364.544 3.891-477.184h-239.411v249.037z" />
<glyph unicode="&#xe937;" glyph-name="si-honour" d="M1003.52 929.28h-980.992v-61.44h49.152v-530.432l446.464-370.688 434.176 374.784v526.336h51.2zM890.88 368.128l-372.736-321.536-385.024 319.488v501.76h757.76zM352.256 712.192h317.44v-61.44h-317.44v61.44zM352.256 591.36h317.44v-61.44h-317.44v61.44z" />
<glyph unicode="&#xe938;" glyph-name="si-image" d="M22.528 937.472v-978.944h978.944v978.944zM940.032 876.032v-372.736l-251.904 149.504-604.16-585.728v808.96zM122.88 19.968l575.488 557.056 241.664-145.408v-411.648zM239.616 665.088c0.012 0 0.026 0 0.039 0 28.688 0 52.077 22.687 53.205 51.098l0.003 0.102c0 29.408-23.84 53.248-53.248 53.248v0c-28.514-1.132-51.2-24.521-51.2-53.209 0-0.014 0-0.028 0-0.042v0.002c0-28.277 22.923-51.2 51.2-51.2v0z" />
<glyph unicode="&#xe939;" glyph-name="si-info" d="M512 843.946c-218.675 0-395.947-177.271-395.947-395.946s177.272-395.948 395.947-395.948c218.675 0 395.946 177.273 395.946 395.948s-177.271 395.946-395.946 395.946zM54.613 448c0 252.606 204.778 457.386 457.387 457.386s457.386-204.78 457.386-457.386c0-252.609-204.777-457.388-457.386-457.388s-457.387 204.78-457.387 457.388zM512 478.72c16.966 0 30.72-13.754 30.72-30.72v-170.666c0-16.968-13.754-30.72-30.72-30.72s-30.72 13.752-30.72 30.72v170.666c0 16.966 13.754 30.72 30.72 30.72zM542.72 618.666c0 16.966-13.754 30.72-30.72 30.72s-30.72-13.754-30.72-30.72v-4.266c0-16.966 13.754-30.72 30.72-30.72s30.72 13.754 30.72 30.72v4.266z" />
<glyph unicode="&#xe93a;" glyph-name="si-instagram" d="M741.581 938.086h-459.162c-143.826-0.117-260.389-116.679-260.506-260.494v-459.173c0.233-143.78 116.726-260.273 260.483-260.506h459.184c143.78 0.233 260.273 116.726 260.506 260.483v459.184c-0.117 143.826-116.679 260.389-260.494 260.506h-0.011zM940.646 218.419c-0.117-109.894-89.172-198.949-199.055-199.066h-459.173c-109.894 0.117-198.949 89.172-199.066 199.055v459.173c0.117 109.894 89.172 198.949 199.055 199.066h459.173c109.894-0.117 198.949-89.172 199.066-199.055v-0.011zM512 685.773c-131.318 0-237.773-106.455-237.773-237.773s106.455-237.773 237.773-237.773c131.318 0 237.773 106.455 237.773 237.773v0c-0.233 131.224-106.548 237.54-237.75 237.773h-0.023zM512 271.667c-97.386 0-176.333 78.947-176.333 176.333s78.947 176.333 176.333 176.333c97.386 0 176.333-78.947 176.333-176.333v0c-0.116-97.339-78.994-176.216-176.321-176.333h-0.011zM779.674 781.414c-33.932 0-61.44-27.508-61.44-61.44s27.508-61.44 61.44-61.44c33.932 0 61.44 27.508 61.44 61.44v0c0 33.932-27.508 61.44-61.44 61.44v0z" />
<glyph unicode="&#xe93b;" glyph-name="si-label" d="M204.8 611.84v30.72c-16.966 0-30.72-13.754-30.72-30.72h30.72zM658.975 611.84l21.936 21.506c-5.777 5.894-13.685 9.214-21.936 9.214v-30.72zM839.68 427.52l21.936-21.506 21.084 21.506-21.084 21.506-21.936-21.506zM658.975 243.2v-30.72c8.251 0 16.159 3.32 21.936 9.214l-21.936 21.506zM204.8 243.2h-30.72c0-16.966 13.754-30.72 30.72-30.72v30.72zM204.8 581.12h454.175v61.44h-454.175v-61.44zM637.039 590.334l180.705-184.32 43.872 43.012-180.705 184.32-43.872-43.012zM817.744 449.026l-180.705-184.32 43.872-43.012 180.705 184.32-43.872 43.012zM658.975 273.92h-454.175v-61.44h454.175v61.44zM235.52 243.2v368.64h-61.44v-368.64h61.44z" />
<glyph unicode="&#xe93c;" glyph-name="si-layers" d="M504.543 803.621c7.225 3.302 15.452 3.676 22.948 1.043l424.77-149.212c11.774-4.135 19.876-14.981 20.5-27.445 0.625-12.462-6.351-24.066-17.652-29.358l-424.77-198.949c-7.213-3.377-15.454-3.824-22.989-1.241l-435.39 149.211c-11.895 4.078-20.105 14.991-20.724 27.55s6.479 24.228 17.915 29.452l435.39 198.949zM518.814 742.593l-354.046-161.78 350.757-120.207 345.444 161.796-342.155 120.191zM969.753 481.821c7.367-15.282 0.952-33.645-14.33-41.013l-424.772-204.8c-7.367-3.551-15.847-4.018-23.562-1.298l-435.389 153.6c-16 5.646-24.394 23.192-18.75 39.191 5.644 16.001 23.191 24.396 39.19 18.751l423.339-149.35 413.26 199.252c15.282 7.367 33.645 0.952 41.013-14.332zM955.423 297.447c15.282 7.369 21.697 25.731 14.33 41.013-7.369 15.284-25.731 21.699-41.013 14.332l-413.26-199.252-423.339 149.35c-16 5.644-33.546-2.75-39.19-18.751-5.644-15.999 2.75-33.544 18.75-39.191l435.389-153.6c7.715-2.72 16.196-2.253 23.562 1.298l424.772 204.8z" />
<glyph unicode="&#xe93d;" glyph-name="si-link" d="M243.712 448c1.106-16.062 14.406-28.672 30.652-28.672 0.024 0 0.048 0 0.072 0h475.132c15.835 0 28.672 12.837 28.672 28.672s-12.837 28.672-28.672 28.672h-475.136c-0.020 0-0.044 0-0.068 0-16.246 0-29.546-12.61-30.646-28.576l-0.005-0.096zM79.872 448c0 100.666 81.606 182.272 182.272 182.272h208.896v57.344h-208.896c-132.336 0-239.616-107.28-239.616-239.616s107.28-239.616 239.616-239.616h208.896v57.344h-208.896c-100.666 0-182.272 81.606-182.272 182.272v0zM761.856 687.616h-208.896v-57.344h208.896c100.666 0 182.272-81.606 182.272-182.272s-81.606-182.272-182.272-182.272v0h-208.896v-57.344h208.896c132.336 0 239.616 107.28 239.616 239.616s-107.28 239.616-239.616 239.616v0z" />
<glyph unicode="&#xe93e;" glyph-name="si-linkedin" d="M151.552 905.318c-1.031 0.029-2.245 0.046-3.462 0.046-35.815 0-68.285-14.32-91.997-37.546l0.022 0.022c-20.94-21.608-33.847-51.107-33.847-83.62 0-1.275 0.020-2.545 0.059-3.81l-0.005 0.185c-0.031-1.009-0.048-2.197-0.048-3.388 0-32.457 12.907-61.9 33.868-83.476l-0.028 0.029c23.557-23.307 55.967-37.707 91.741-37.707 0.867 0 1.733 0.008 2.596 0.025l-0.129-0.002c1.899-0.103 4.121-0.161 6.358-0.161 68.703 0 124.495 55.277 125.328 123.782l0.001 0.079c0.008 0.539 0.013 1.175 0.013 1.813 0 68.43-55.474 123.904-123.904 123.904-2.31 0-4.605-0.063-6.884-0.188l0.317 0.014zM150.323 716.902c-0.749-0.029-1.629-0.046-2.513-0.046-18.598 0-35.478 7.356-47.889 19.317l0.021-0.020c-10.081 10.68-16.278 25.122-16.278 41.011 0 1.207 0.036 2.405 0.106 3.595l-0.008-0.164c-0.062 1.013-0.097 2.198-0.097 3.39 0 15.836 6.198 30.225 16.301 40.873l-0.025-0.026c12.547 11.847 29.515 19.13 48.184 19.13 1.205 0 2.403-0.030 3.593-0.090l-0.167 0.007c1.849 0.193 3.996 0.303 6.168 0.303 34.724 0 62.874-28.149 62.874-62.874 0-0.611-0.009-1.219-0.026-1.826l0.002 0.089c-0.205-37.478-28.262-62.669-70.246-62.669zM27.238-20.582h248.627v663.552h-248.627zM88.678 581.53h125.747v-540.672h-125.747zM751.206 656.486c-0.594 0.005-1.297 0.008-2.001 0.008-62.444 0-119.703-22.197-164.318-59.132l0.431 0.346-4.71 45.261h-222.413l1.638-32.154c2.253-52.019 4.71-115.302 4.71-190.669v-440.73h249.856v378.061c-0.022 0.809-0.035 1.761-0.035 2.715 0 12.076 2.038 23.677 5.788 34.477l-0.223-0.738c8.815 28.728 34.917 49.332 65.895 49.766l0.050 0.001c17.408 0 64.102 0 64.102-99.942v-364.339h247.603v387.891c0 181.043-92.16 289.178-246.374 289.178zM935.526 40.858h-125.133v302.899c0 145.613-87.859 161.382-125.542 161.382-57.005-0.443-105.268-37.379-122.61-88.578l-0.27-0.919c-5.748-16.018-9.070-34.5-9.070-53.758 0-1.549 0.021-3.093 0.064-4.632l-0.005 0.227v-316.621h-126.976v379.29c0 61.44-1.434 115.302-3.482 161.382h102.4l8.602-81.92h48.128l9.011 14.131c34.673 49.788 91.633 81.963 156.108 81.963 1.422 0 2.841-0.016 4.256-0.047l-0.211 0.004c119.194 0 184.32-80.896 184.32-227.738z" />
<glyph unicode="&#xe93f;" glyph-name="si-location-off" d="M1010.278 7.68l-254.362 254.157c64.512 110.797 102.4 219.546 103.834 312.73v31.334h0.41c-10.246 184.644-162.003 330.614-348.065 331.571h-0.095c-116.831-0.227-220.041-58.339-282.505-147.175l-0.733-1.1-156.672 156.672-57.958-57.958 174.285-173.67c-13.223-31.835-22.017-68.715-24.522-107.309l-0.054-1.031v-31.13c2.253-161.382 102.4-344.064 325.222-592.486l20.48-23.757 22.938 22.323c64.73 62.94 123.176 131.656 174.734 205.536l3.033 4.588 242.074-241.254zM512 876.032c158.652-1.386 286.729-130.32 286.729-289.167 0-0.796-0.003-1.591-0.010-2.385l0.001 0.122c0-2.458 0-4.915 0-7.373l-1.843-31.539c-13.838-89.623-43.904-170.039-87.248-241.507l1.642 2.915-154.419 154.419c55.626 19.18 94.873 71.080 94.873 132.147 0 77.026-62.442 139.469-139.469 139.469-61.067 0-112.967-39.247-131.852-93.893l-0.295-0.98-107.11 106.701c51.237 79.197 139.063 130.908 238.977 131.072h0.025zM433.766 593.408c0 0.061 0 0.133 0 0.205 0 43.094 34.935 78.029 78.029 78.029s78.029-34.935 78.029-78.029c0-43.022-34.818-77.912-77.813-78.029h-0.011c-3.647 0.040-7.181 0.411-10.607 1.084l0.367-0.060-66.97 66.56c-0.503 2.955-0.869 6.482-1.018 10.066l-0.006 0.174zM513.229 47.616c-182.477 207.667-272.384 363.315-286.72 496.845v0l-1.229 32.768c0 2.458 0 4.915 0 7.373 0.147 28.791 4.326 56.547 12 82.812l-0.531-2.121 430.080-430.080c-47.617-70.122-98.138-131.439-153.734-187.732l0.134 0.135z" />
<glyph unicode="&#xe940;" glyph-name="si-location-on" d="M860.16 604.262c-10.348 184.599-162.044 330.508-348.055 331.571h-0.105c-186.116-1.063-337.812-146.972-348.119-330.655l-0.041-0.916v-31.13c2.253-161.382 102.4-344.064 325.018-592.486l21.914-24.166 22.938 22.323c197.632 192.922 322.765 420.454 326.451 593.92v31.334zM798.72 575.59l-1.843-31.744c-16.179-145.613-122.88-335.053-283.034-498.074-182.682 207.667-272.384 363.52-286.72 497.050v0l-2.048 32.768c0 2.253 0 4.915 0 7.168-0.005 0.612-0.007 1.336-0.007 2.060 0 159.001 128.144 288.073 286.79 289.574l0.142 0.001c158.7-1.617 286.727-130.644 286.727-289.573 0-0.725-0.003-1.449-0.008-2.173l0.001 0.111c0-2.253 0-4.915 0-7.168zM512 731.238c-77.026 0-139.468-62.442-139.468-139.469s62.442-139.469 139.469-139.469c76.882 0 139.235 62.209 139.468 139.037v0.022c0 0.061 0 0.133 0 0.205 0 77.068-62.417 139.557-139.458 139.673h-0.011zM512 513.741c-43.094 0.001-78.028 34.935-78.028 78.029s34.935 78.029 78.029 78.029c43.094 0 78.029-34.935 78.029-78.029 0-0.144 0-0.288-0.001-0.432v0.022c-0.347-42.871-35.125-77.505-78.018-77.619h-0.011z" />
<glyph unicode="&#xe941;" glyph-name="si-lock" d="M884.736 591.36c-20.471 189.462-179.53 335.657-372.736 335.657s-352.265-146.195-372.59-333.997l-0.146-1.66h-116.736v-630.784h978.944v630.784zM512 873.984c162.010-0.287 295.156-123.481 311.187-281.299l0.109-1.325h-622.592c16.14 159.143 149.286 282.337 311.266 282.624h0.030zM940.032 22.016h-856.064v507.904h856.064zM497.664 396.8h26.624v-105.267h-26.624v105.267z" />
<glyph unicode="&#xe942;" glyph-name="si-menu-alt" d="M481.28 652.8c0 16.966 13.754 30.72 30.72 30.72h348.16c16.966 0 30.72-13.754 30.72-30.72s-13.754-30.72-30.72-30.72h-348.16c-16.966 0-30.72 13.754-30.72 30.72zM133.12 448c0 16.966 13.754 30.72 30.72 30.72h696.32c16.966 0 30.72-13.754 30.72-30.72s-13.754-30.72-30.72-30.72h-696.32c-16.966 0-30.72 13.754-30.72 30.72zM163.84 265.386c-16.966 0-30.72-13.752-30.72-30.72 0-16.966 13.754-30.72 30.72-30.72h348.16c16.966 0 30.72 13.754 30.72 30.72 0 16.968-13.754 30.72-30.72 30.72h-348.16z" />
<glyph unicode="&#xe943;" glyph-name="si-menu-bar" d="M19.866 937.267h984.474v-61.44h-984.474v61.44zM19.866 478.72h984.474v-61.44h-984.474v61.44zM19.866 18.739h984.474v-61.44h-984.474v61.44z" />
<glyph unicode="&#xe944;" glyph-name="si-message" d="M63.488 933.376v-782.336h700.416l196.608-188.416v970.752zM899.072 105.984l-110.592 106.496h-663.552v659.456h774.144z" />
<glyph unicode="&#xe945;" glyph-name="si-mic" d="M512 248.32c96.321 0.116 174.373 78.168 174.49 174.478v334.245c-6.442 91.087-81.916 162.541-174.080 162.541s-167.638-71.454-174.048-161.985l-0.032-0.555v-334.234c0.115-96.034 77.702-173.909 173.615-174.489h0.055zM398.95 757.043c5.113 58.16 53.589 103.435 112.64 103.435s107.527-45.275 112.61-103.006l0.030-0.429v-334.234c0.261-2.88 0.41-6.23 0.41-9.615 0-62.436-50.614-113.050-113.050-113.050s-113.050 50.614-113.050 113.050c0 3.385 0.149 6.734 0.44 10.043l-0.030-0.429zM646.144 158.618c104.653 50.381 155.443 141.312 155.443 277.709h-61.44c0-113.459-37.274-182.067-120.627-222.413s-186.982-33.792-253.952 18.022c-57.344 44.442-81.92 105.472-81.92 204.8h-61.44c0-79.667 12.083-180.429 105.472-252.928 42.426-32.121 95.216-52.666 152.619-56.078l0.777-0.037v-107.93h-132.915v-61.44h327.68v61.44h-133.12v108.954c38.394 4.593 73.341 15.141 105.365 30.755l-1.941-0.854z" />
<glyph unicode="&#xe946;" glyph-name="si-moon" d="M948.838 417.894c-36.857-21.096-81.013-33.537-128.075-33.537-144.326 0-261.325 116.999-261.325 261.325 0 86.896 42.413 163.886 107.666 211.398l0.748 0.519 48.947 35.226-57.344 18.432c-43.6 14.418-93.789 22.735-145.92 22.735-0.54 0-1.080-0.001-1.62-0.003h0.084c-268.402-0.005-485.982-217.588-485.982-485.99 0-268.405 217.585-485.99 485.99-485.99 246.745 0 450.542 183.885 481.827 422.091l0.264 2.459 7.373 59.597zM512 23.45c-234.473 0-424.55 190.078-424.55 424.55s190.078 424.55 424.55 424.55v0c26.153-0.049 51.732-2.356 76.597-6.738l-2.664 0.389c-53.557-57.428-86.436-134.75-86.436-219.75 0-178.145 144.415-322.56 322.56-322.56 0.003 0 0.007 0 0.010 0v0c35.959 0.058 70.533 5.898 102.871 16.641l-2.314-0.666c-49.653-183.502-214.615-316.302-410.611-316.416h-0.013z" />
<glyph unicode="&#xe947;" glyph-name="si-more-horizontal" d="M153.6 573.747c-69.448 0-125.747-56.299-125.747-125.747s56.299-125.747 125.747-125.747c69.448 0 125.747 56.299 125.747 125.747v0c0 69.448-56.299 125.747-125.747 125.747v0zM153.6 383.693c-35.516 0-64.307 28.791-64.307 64.307s28.791 64.307 64.307 64.307c35.516 0 64.307-28.791 64.307-64.307v0c-0.116-35.469-28.838-64.191-64.296-64.307h-0.011zM514.253 573.747c-69.448 0-125.747-56.299-125.747-125.747s56.299-125.747 125.747-125.747c69.448 0 125.747 56.299 125.747 125.747v0c-0.116 69.401-56.346 125.631-125.736 125.747h-0.011zM514.253 383.693c-35.516 0-64.307 28.791-64.307 64.307s28.791 64.307 64.307 64.307c35.516 0 64.307-28.791 64.307-64.307v0c-0.116-35.469-28.838-64.191-64.296-64.307h-0.011zM875.52 573.747c-69.36-0.117-125.542-56.371-125.542-125.747 0-69.448 56.299-125.747 125.747-125.747s125.747 56.299 125.747 125.747v0c-0.117 69.473-56.462 125.747-125.952 125.747 0 0 0 0 0 0v0zM875.52 383.693c-35.428 0.116-64.102 28.863-64.102 64.307 0 35.516 28.791 64.307 64.307 64.307s64.307-28.791 64.307-64.307v0c-0.116-35.541-28.955-64.307-64.512-64.307 0 0 0 0 0 0v0z" />
<glyph unicode="&#xe948;" glyph-name="si-more-vertical" d="M512 212.89c-0.061 0-0.133 0-0.205 0-69.561 0-125.952-56.391-125.952-125.952s56.391-125.952 125.952-125.952c69.561 0 125.952 56.391 125.952 125.952v0c0 0 0 0 0 0 0 69.489-56.274 125.835-125.736 125.952h-0.011zM512 22.63c-0.061 0-0.133 0-0.204 0-35.629 0-64.512 28.883-64.512 64.512s28.883 64.512 64.512 64.512c35.629 0 64.512-28.883 64.512-64.512 0-0.072 0-0.144 0-0.216v0.011c-0.116-35.469-28.838-64.191-64.296-64.307h-0.011zM512 573.338c-69.448 0-125.747-56.299-125.747-125.747s56.299-125.747 125.747-125.747c69.448 0 125.747 56.299 125.747 125.747 0 0.144 0 0.288-0.001 0.432v-0.022c-0.233 69.272-56.442 125.338-125.747 125.338 0 0 0 0-0.001 0v0zM512 383.283c-35.515 0.001-64.306 28.792-64.306 64.307s28.791 64.307 64.307 64.307c35.372 0 64.074-28.558 64.306-63.876v-0.022c0-0.061 0-0.133 0-0.205 0-35.557-28.767-64.395-64.296-64.512h-0.011zM512 683.11c0.061 0 0.133 0 0.205 0 69.561 0 125.952 56.391 125.952 125.952s-56.391 125.952-125.952 125.952c-69.561 0-125.952-56.391-125.952-125.952v0c0 0 0 0 0 0 0-69.489 56.274-125.835 125.736-125.952h0.011zM512 873.37c0.061 0 0.133 0 0.204 0 35.629 0 64.512-28.883 64.512-64.512s-28.883-64.512-64.512-64.512c-35.629 0-64.512 28.883-64.512 64.512 0 0.072 0 0.144 0 0.216v-0.011c0.116 35.469 28.838 64.191 64.296 64.307h0.011z" />
<glyph unicode="&#xe949;" glyph-name="si-movie" d="M1003.52 72.602h-983.040v750.797h983.040zM81.92 134.042h860.16v627.917h-860.16zM414.515 279.040v337.92l292.659-168.96zM475.955 510.464v-124.928l108.339 62.464z" />
<glyph unicode="&#xe94a;" glyph-name="si-mute" d="M545.976 741.837c10.541-5.155 17.224-15.864 17.224-27.597v-491.52c0-11.733-6.683-22.442-17.224-27.597-10.539-5.155-23.095-3.856-32.356 3.348l-149.668 116.408h-200.112c-16.966 0-30.72 13.754-30.72 30.72v245.76c0 16.966 13.754 30.72 30.72 30.72h200.112l149.668 116.408c9.261 7.205 21.817 8.503 32.356 3.348zM501.76 651.428l-108.409-84.316c-5.392-4.194-12.028-6.472-18.86-6.472h-179.931v-184.32h179.931c6.832 0 13.468-2.277 18.86-6.472l108.409-84.316v365.896zM922.843 572.123c11.995-11.997 11.995-31.449 0-43.446l-80.679-80.677 80.679-80.677c11.995-11.997 11.995-31.449 0-43.446-11.997-11.995-31.449-11.995-43.446 0l-80.677 80.679-80.677-80.679c-11.997-11.995-31.449-11.995-43.446 0-11.995 11.997-11.995 31.449 0 43.446l80.679 80.677-80.679 80.677c-11.995 11.997-11.995 31.449 0 43.446 11.997 11.997 31.449 11.997 43.446 0l80.677-80.679 80.677 80.679c11.997 11.997 31.449 11.997 43.446 0z" />
<glyph unicode="&#xe94b;" glyph-name="si-open-door" d="M24.576 935.424v-974.848h974.848v974.848zM81.92 857.6l401.408-96.256v-628.736l-401.408-90.112zM942.080 17.92h-712.704l311.296 69.632v720.896l-301.056 69.632h702.464zM425.984 460.288c-8.192 0-14.336-4.096-14.336-12.288s6.144-12.288 14.336-12.288c6.786 0 12.288 5.502 12.288 12.288s-5.502 12.288-12.288 12.288v0z" />
<glyph unicode="&#xe94c;" glyph-name="si-organisation-chart" d="M950.886 355.226h-18.432v92.774c0 0.002 0 0.004 0 0.006 0 16.966-13.754 30.72-30.72 30.72-0.216 0-0.432-0.002-0.647-0.007l0.032 0.001h-358.4v64.922h18.432c28.277 0 51.2 22.923 51.2 51.2v0 98.918c0 28.277-22.923 51.2-51.2 51.2v0h-98.304c-28.277 0-51.2-22.923-51.2-51.2v0-98.099c0-28.277 22.923-51.2 51.2-51.2v0h18.432v-65.741h-358.4c-0.122 0.002-0.266 0.003-0.41 0.003-16.966 0-30.72-13.754-30.72-30.72 0-0.001 0-0.002 0-0.003v0-95.642h-18.432c-28.277 0-51.2-22.923-51.2-51.2v0-98.918c0-28.277 22.923-51.2 51.2-51.2v0h98.304c28.277 0 51.2 22.923 51.2 51.2v0 98.918c0 28.277-22.923 51.2-51.2 51.2v0h-18.432v64.922h327.68v-64.922h-18.432c-28.277 0-51.2-22.923-51.2-51.2v0-98.918c0-28.277 22.923-51.2 51.2-51.2v0h98.304c0.122-0.001 0.266-0.002 0.41-0.002 28.277 0 51.2 22.923 51.2 51.2 0 0.001 0 0.001 0 0.002v0 98.918c0 28.277-22.923 51.2-51.2 51.2v0h-18.432v64.922h327.68v-61.44h-18.432c-28.277 0-51.2-22.923-51.2-51.2v0-98.304c0-28.277 22.923-51.2 51.2-51.2v0h98.304c28.277 0 51.2 22.923 51.2 51.2v0 98.304c-0.342 27.799-22.787 50.243-50.553 50.585h-0.033zM473.088 682.906h77.824v-77.619h-77.824zM161.382 213.299h-77.824v77.619h77.824zM550.502 213.299h-77.414v77.619h77.824zM939.622 215.962h-77.824v77.824h77.824z" />
<glyph unicode="&#xe94d;" glyph-name="si-paper-clip" d="M753.664 656.896v-366.592c-0.286-17.594-1.765-34.59-4.361-51.217l0.265 2.065c-1.938-29.956-8.532-57.842-19.074-83.699l0.642 1.779c-10.042-22.714-22.395-42.286-37.16-59.752l0.296 0.36c-13.23-16.853-28.797-31.117-46.369-42.559l-0.735-0.449c-15.869-11.119-34.227-20.189-53.903-26.254l-1.393-0.37c-18.927-6.25-40.726-9.976-63.358-10.239l-0.13-0.001c-5.126-0.452-11.090-0.709-17.114-0.709-15.707 0-31.004 1.751-45.709 5.067l1.383-0.262c-23.244 4.828-43.786 11.896-63.058 21.183l1.618-0.703c-20.272 10.8-37.703 22.346-53.925 35.34l0.677-0.524c-16.304 14.343-30.496 30.487-42.446 48.264l-0.562 0.888c-10.641 18.076-20.331 39.048-27.923 60.999l-0.749 2.489c-6.819 27.331-10.731 58.706-10.731 90.996 0 6.893 0.178 13.744 0.53 20.549l-0.039-0.953v372.736c-0.208 4.059-0.327 8.813-0.327 13.595 0 21.305 2.357 42.060 6.826 62.017l-0.355-1.885c7.279 24.347 18.495 45.503 33.067 63.878l-0.299-0.39c14.098 16.677 31.092 30.402 50.283 40.519l0.917 0.441c17.656 10.555 38.47 17.828 60.715 20.412l0.725 0.068c8.56 1.843 18.394 2.899 28.475 2.899 13.185 0 25.948-1.806 38.055-5.183l-0.994 0.237c22.544-4.161 42.541-12.762 59.88-24.9l-0.488 0.324c19.441-14.748 35.774-32.385 48.668-52.443l0.484-0.805c6.613-10.602 12.189-22.828 16.101-35.776l0.283-1.088 6.144-20.48v-4.096c1.315-3.841 2.074-8.267 2.074-12.869 0-0.516-0.010-1.029-0.028-1.54l0.002 0.074c1.35-4.089 2.129-8.797 2.129-13.686 0-0.949-0.029-1.892-0.087-2.826l0.006 0.128c-1.12-1.389-1.797-3.175-1.797-5.12s0.678-3.731 1.809-5.136l-0.012 0.016v-378.88c0-34.816 0-65.536-16.384-90.112-11.345-14.377-26.721-25.116-44.418-30.551l-0.638-0.169c-9.959-3.911-21.491-6.178-33.553-6.178-6.976 0-13.775 0.758-20.319 2.197l0.624-0.115c-18.136 5.044-33.488 15.088-44.951 28.545l-0.105 0.127c-8.762 13.537-15.783 29.223-20.222 45.961l-0.258 1.143c-1.384 11.892-2.173 25.67-2.173 39.632 0 3.347 0.045 6.684 0.136 10.010l-0.011-0.49v385.024h-61.44v-382.976c-0.106-3.124-0.166-6.796-0.166-10.482 0-18.717 1.55-37.072 4.528-54.943l-0.267 1.937c5.773-27.439 17.206-51.563 33.070-72.087l-0.302 0.407c19.359-24.638 46.072-42.713 76.807-50.968l1.017-0.232c11.023-2.751 23.677-4.33 36.701-4.33 50.794 0 95.979 24.015 124.821 61.311l0.27 0.364c30.72 40.96 28.672 86.016 28.672 126.976v380.928c-0.971 1.082-1.565 2.52-1.565 4.096s0.594 3.014 1.57 4.102l-0.005-0.006c0.027 0.764 0.042 1.662 0.042 2.564 0 6.356-0.762 12.534-2.2 18.448l0.109-0.532c-0.23 9.569-1.711 18.701-4.284 27.363l0.188-0.739v4.096c-2.411 10.436-5.224 19.327-8.644 27.91l0.452-1.286c-5.92 17.961-13.555 33.55-22.989 47.848l0.461-0.744c-16.659 28.187-38.656 51.492-64.783 69.152l-0.753 0.48c-23.283 16.8-50.712 29.555-80.364 36.554l-1.556 0.31c-14.646 3.128-31.473 4.919-48.718 4.919-13.166 0-26.087-1.044-38.687-3.054l1.389 0.183c-31.444-4.624-59.751-14.699-85.133-29.289l1.165 0.617c-27.001-14.355-49.556-33.639-67.221-56.847l-0.363-0.497c-19.951-23.299-34.871-51.517-42.706-82.554l-0.302-1.414c-6.763-23.034-10.654-49.497-10.654-76.868 0-5.379 0.15-10.723 0.447-16.028l-0.033 0.736v-370.688c-0.307-5.927-0.481-12.869-0.481-19.851 0-38.854 5.41-76.445 15.518-112.060l-0.7 2.887c8.467-29.589 20.35-55.442 35.514-78.981l-0.698 1.157c30.136-45.591 70.983-81.842 119.066-105.703l1.766-0.793c20.668-9.283 45.245-17.709 70.682-23.945l3.046-0.631 65.536-6.144h14.336c27.379 1.022 53.32 5.442 77.966 12.854l-2.19-0.566c28.1 9.040 52.516 20.855 74.887 35.529l-1.159-0.713c23.735 15.465 44.005 33.781 61.060 54.811l0.38 0.485c17.748 21.822 32.876 46.809 44.293 73.749l0.763 2.027c10.017 27.725 17.913 60.249 22.276 93.881l0.252 2.375c2.235 16.833 3.712 36.697 4.088 56.83l0.008 0.514v366.592z" />
<glyph unicode="&#xe94e;" glyph-name="si-pause" d="M512 82.774c-201.71 0-365.227 163.516-365.227 365.226s163.517 365.227 365.227 365.227c201.71 0 365.226-163.517 365.226-365.227s-163.516-365.226-365.226-365.226zM512 21.334c235.641 0 426.666 191.025 426.666 426.666s-191.025 426.667-426.666 426.667c-235.641 0-426.667-191.026-426.667-426.667s191.026-426.666 426.667-426.666zM426.666 606.72c16.968 0 30.72-13.754 30.72-30.72v-256c0-16.966-13.752-30.72-30.72-30.72-16.966 0-30.72 13.754-30.72 30.72v256c0 16.966 13.754 30.72 30.72 30.72zM628.054 576c0 16.966-13.754 30.72-30.72 30.72-16.968 0-30.72-13.754-30.72-30.72v-256c0-16.966 13.752-30.72 30.72-30.72 16.966 0 30.72 13.754 30.72 30.72v256z" />
<glyph unicode="&#xe94f;" glyph-name="si-phone" d="M990.413 202.24c-17.393 40.818-51.22 71.765-92.944 84.909l-1.059 0.288c-28.262 7.987-56.525 16.794-84.582 25.6l-38.502 12.083c-11.605 3.484-24.94 5.489-38.743 5.489-39.054 0-74.36-16.052-99.678-41.919l-0.024-0.025-31.539-30.72c-133.334 44.979-235.784 149.449-277.084 280.993l-0.83 3.064c31.949 28.877 93.389 96.461 59.597 172.237l-10.65 37.274-12.083 42.803-12.288 40.96c-4.77 16.462-12.434 30.756-22.49 43.013l0.167-0.209c-16.342 20.718-37.609 36.851-62.068 46.743l-1.010 0.361c-16.659 6.086-35.891 9.605-55.946 9.605-17.526 0-34.424-2.688-50.305-7.674l1.188 0.322c-20.62-7.438-38.045-19.456-51.7-34.889l-0.115-0.132-7.782-7.373c-16.516-15.046-31.706-30.69-45.896-47.216l-0.594-0.708c-6.847-7.901-13.143-16.676-18.6-26.003l-0.446-0.826c-5.615-9.992-9.238-21.8-10.023-34.377l-0.012-0.235c0-6.963 0-14.131 0-20.48v-7.578c0-16.589 0-33.382 1.434-49.766 6.209-102.088 31.535-196.834 72.431-282.738l-1.98 4.619c28.624-59.874 61.4-111.458 99.477-158.581l-1.173 1.5c38.812-48.312 81.487-90.792 128.405-128.17l1.643-1.264c44.986-36.106 95.817-68.325 150.068-94.587l4.761-2.079c49.505-24.692 107.085-45.214 167.34-58.642l5.101-0.955c46.463-10.52 99.831-16.562 154.605-16.589h20.499c0.124-0.001 0.27-0.001 0.417-0.001 24.453 0 46.981 8.242 64.958 22.099l-0.249-0.184c7.279 6.515 13.964 13.2 20.266 20.237l0.214 0.243 7.578 7.782 45.875 45.056c15.813 17.442 26.784 39.545 30.629 64.013l0.091 0.704c2.273 9.301 3.577 19.978 3.577 30.96 0 18.367-3.647 35.882-10.256 51.861l0.33-0.901zM936.55 134.246c-1.729-12.536-5.924-23.818-12.090-33.748l0.211 0.365-47.104-45.875-8.806-9.011c-4.874-5.254-9.884-10.135-15.132-14.753l-0.228-0.197c-7.982-5.389-17.818-8.602-28.405-8.602-0.022 0-0.044 0-0.066 0h0.003c-3.815-0.077-8.313-0.12-12.821-0.12-52.213 0-103.056 5.864-151.907 16.969l4.574-0.875c-60.287 13.235-113.358 31.923-163.232 56.161l4.308-1.889c-104.814 50.748-192.739 121.047-262.261 206.865l-1.111 1.417c-34.045 42.101-64.234 89.725-88.642 140.646l-1.879 4.352c-23.054 47.779-41.693 103.324-53.135 161.452l-0.728 4.436c-5.229 25.488-9.239 56.034-11.168 87.143l-0.096 1.945c0 14.95-1.434 30.31-1.434 45.67v8.602c0 4.915 0 10.035 0 15.155v0c0.075 3.579 0.898 6.948 2.317 9.982l-0.064-0.152c4.089 6.646 8.345 12.4 13.033 17.766l-0.131-0.153c12.884 15.362 26.277 29.209 40.583 42.060l0.377 0.333 9.216 8.806c6.993 8.003 15.096 14.803 24.121 20.227l0.455 0.253c10.504 3.038 22.601 4.892 35.096 5.118l0.129 0.002c0.285 0.003 0.622 0.005 0.959 0.005 10.985 0 21.496-2.030 31.178-5.736l-0.598 0.201c15.039-6.271 27.589-15.928 37.125-28.066l0.149-0.197c5.22-6.153 9.289-13.466 11.763-21.478l0.116-0.435c4.096-13.517 7.987-27.034 11.878-40.96s8.192-28.262 12.083-42.394l12.493-40.55 1.638-4.506c24.576-52.224-55.296-112.23-56.115-112.64l-17.408-12.698 5.734-20.48c44.218-171.297 175.061-304.043 341.872-350.219l3.42-0.808 15.974-3.482 56.934 55.706 2.458 2.662c13.912 12.795 32.553 20.638 53.026 20.638 7.142 0 14.062-0.955 20.638-2.743l-0.55 0.127 38.093-11.878c28.672-9.011 57.344-17.818 86.221-26.214 24.619-8.002 44.046-25.956 53.851-48.991l0.216-0.57c3.138-7.966 4.957-17.192 4.957-26.843 0-6.246-0.762-12.313-2.198-18.115l0.108 0.516z" />
<glyph unicode="&#xe950;" glyph-name="si-phone-2" d="M303.718 908.8h-1.206c-16.466 0.001-30.671 0.001-42.363-0.97-12.347-1.025-24.619-3.29-36.393-9.406-16.833-8.744-30.557-22.468-39.3-39.301-6.116-11.774-8.381-24.046-9.406-36.392-0.971-11.694-0.971-25.898-0.97-42.364v-664.735c-0.001-16.466-0.001-30.671 0.97-42.365 1.025-12.345 3.29-24.617 9.406-36.391 8.744-16.833 22.468-30.556 39.3-39.301 11.774-6.115 24.046-8.38 36.393-9.404 11.692-0.973 25.897-0.971 42.361-0.971h378.020c16.464 0 30.669-0.002 42.363 0.971 12.345 1.024 24.617 3.289 36.391 9.404 16.833 8.745 30.556 22.469 39.301 39.301 6.115 11.774 8.38 24.046 9.404 36.391 0.973 11.694 0.971 25.901 0.971 42.367v664.732c0 16.467 0.002 30.672-0.971 42.366-1.024 12.346-3.289 24.618-9.404 36.392-8.745 16.833-22.469 30.557-39.301 39.301-11.774 6.116-24.046 8.381-36.391 9.406-11.694 0.971-25.899 0.971-42.365 0.97h-376.809zM252.078 843.901c1.544 0.801 4.678 1.995 13.154 2.699 8.847 0.735 20.476 0.759 38.486 0.759h375.603c18.010 0 29.641-0.025 38.486-0.759 8.477-0.704 11.61-1.898 13.154-2.699 5.609-2.915 10.185-7.49 13.099-13.1 0.801-1.543 1.997-4.676 2.699-13.154 0.735-8.846 0.76-20.475 0.76-38.485v-662.323c0-18.010-0.025-29.641-0.76-38.486-0.702-8.477-1.898-11.61-2.699-13.154-2.914-5.609-7.49-10.185-13.099-13.099-1.544-0.801-4.678-1.997-13.154-2.699-8.845-0.735-20.476-0.76-38.486-0.76h-375.603c-18.010 0-29.639 0.025-38.486 0.76-8.477 0.702-11.61 1.898-13.154 2.699-5.609 2.914-10.185 7.49-13.099 13.099-0.801 1.544-1.995 4.678-2.699 13.154-0.735 8.845-0.76 20.476-0.76 38.486v662.323c0 18.010 0.025 29.64 0.76 38.485 0.705 8.478 1.898 11.612 2.699 13.154 2.914 5.611 7.49 10.186 13.099 13.1zM512 161.28c-16.966 0-30.72-13.754-30.72-30.72s13.754-30.72 30.72-30.72h0.889c16.966 0 30.72 13.754 30.72 30.72s-13.754 30.72-30.72 30.72h-0.889z" />
<glyph unicode="&#xe951;" glyph-name="si-pie-chart-2" d="M964.608 486.912h-405.504v415.744h-63.488c-260.148 0-471.040-210.892-471.040-471.040s210.892-471.040 471.040-471.040c260.148 0 471.040 210.892 471.040 471.040v55.296zM495.616 28.16c-212.313 15.535-378.68 191.603-378.68 406.528s166.366 390.992 377.345 406.45l1.334 0.078v-419.84h407.552c-7.943-218.831-187.256-393.216-407.3-393.216-0.089 0-0.177 0-0.266 0h0.013zM608.256 929.28h-34.816v-423.936h423.936v30.72c2.048 4.096 6.144 368.64-389.12 393.216zM638.976 568.832v292.864c239.616-30.72 284.672-217.088 292.864-292.864z" />
<glyph unicode="&#xe952;" glyph-name="si-play-1" d="M877.226 448c0 201.71-163.516 365.227-365.226 365.227s-365.227-163.517-365.227-365.227c0-201.71 163.517-365.226 365.227-365.226s365.226 163.516 365.226 365.226zM938.666 448c0-235.641-191.025-426.666-426.666-426.666s-426.667 191.025-426.667 426.666c0 235.641 191.026 426.667 426.667 426.667s426.666-191.026 426.666-426.667zM467.261 638.331c-9.212 7.416-21.862 8.884-32.528 3.777-10.666-5.106-17.453-15.882-17.453-27.707v-337.92c0-11.825 6.787-22.602 17.453-27.707 10.666-5.108 23.316-3.639 32.528 3.777l209.92 168.96c7.246 5.831 11.459 14.631 11.459 23.931s-4.213 18.1-11.459 23.931l-209.92 168.96zM608.926 445.44l-130.206-104.8v209.601l130.206-104.8z" />
<glyph unicode="&#xe953;" glyph-name="si-play-2" d="M94.208 931.328v-966.656l835.584 485.376zM155.648 824.832l651.264-374.784-651.264-378.88z" />
<glyph unicode="&#xe954;" glyph-name="si-plus" d="M1003.93 478.72h-461.21v460.39h-61.44v-460.39h-461.21v-61.44h461.21v-460.39h61.44v460.39h461.21v61.44z" />
<glyph unicode="&#xe955;" glyph-name="si-plus-2" d="M81.92 448v8.602l-61.44 1.229v-9.83c-0.002-0.563-0.004-1.23-0.004-1.897 0-41.437 5.23-81.652 15.066-120.022l-0.726 3.34 59.597 14.95c-7.94 30.479-12.498 65.47-12.498 101.526 0 0.74 0.002 1.479 0.006 2.217v-0.114zM135.373 655.258l-53.453 29.491c-19.505-34.591-35.591-74.63-46.183-116.848l-0.716-3.369 59.392-14.131c9.981 39.786 24.022 74.698 42.088 107.057l-1.128-2.199zM72.499 228.454c20.566-40.693 44.641-75.757 72.712-107.176l-0.418 0.476 45.875 40.96c-24.038 27.137-45.097 57.809-62.119 90.897l-1.165 2.491zM991.027 556.954c-10.503 45.803-25.934 86.186-46.126 123.623l1.275-2.586-54.272-28.877c16.442-30.408 29.958-65.649 38.732-102.723l0.59-2.954zM694.886 904.090c-36.479 15.058-78.84 26.226-123.007 31.517l-2.33 0.227-6.963-61.44c40.557-4.781 77.521-14.583 112.16-28.875l-2.797 1.022zM468.173 875.622l-6.144 61.44c-46.379-4.767-88.903-15.255-128.878-30.841l3.336 1.145 21.914-57.344c32.026 12.402 69.214 21.442 107.898 25.443l1.875 0.157zM655.36 42.906l20.48-57.958c43.853 15.899 81.8 35.808 116.5 60.046l-1.607-1.063-35.021 50.381c-28.905-20.183-62.049-37.535-97.335-50.44l-3.017-0.965zM827.392 156.16l45.261-40.96c28.337 30.635 53.050 65.279 73.050 102.814l1.293 2.658-54.272 28.467c-18.683-35.439-40.405-65.983-65.599-93.273l0.268 0.294zM885.555 766.874c-27.949 32.712-59.442 61.147-94.222 85.16l-1.624 1.060-34.816-50.586c32.215-21.958 60.072-46.888 84.321-75.018l0.466-0.553zM942.080 448c0-0.191 0-0.417 0-0.643 0-39.618-5.382-77.978-15.456-114.391l0.71 3.008 59.392-15.974c10.664 38.108 16.794 81.87 16.794 127.063 0 0.329 0 0.658-0.001 0.987v-0.051 1.843zM450.56 22.426l-8.602-61.44c20.511-2.87 44.207-4.509 68.286-4.509 0.617 0 1.234 0.001 1.851 0.003h-0.095c0.512-0.002 1.118-0.003 1.724-0.003 20.397 0 40.498 1.266 60.229 3.724l-2.356-0.239-7.373 61.44c-15.874-2.017-34.241-3.169-52.876-3.169-21.44 0-42.525 1.524-63.151 4.469l2.363-0.277zM225.28 49.664c32.759-24.116 70.268-44.81 110.361-60.316l3.303-1.124 21.709 57.344c-38.159 14.679-71.139 32.957-101.1 55.089l1.157-0.817zM240.845 857.6c-37.045-24.62-69.068-52.608-97.032-84.265l-0.453-0.523 46.080-40.96c24.94 28.235 52.986 52.833 83.848 73.564l1.554 0.983zM542.72 572.314h-61.44v-93.594h-93.594v-61.44h93.594v-93.594h61.44v93.594h93.594v61.44h-93.594v93.594z" />
<glyph unicode="&#xe956;" glyph-name="si-printer" d="M991.232 654.848h-182.272v225.28h-593.92v-225.28h-182.272v-524.288h165.888v-114.688h626.688v114.688h165.888zM276.48 818.688h471.040v-163.84h-471.040zM763.904 77.312h-503.808v165.888h503.808zM929.792 192h-104.448v112.64h-626.688v-112.64h-104.448v401.408h835.584zM184.32 474.624c12.442 0 22.528 10.086 22.528 22.528s-10.086 22.528-22.528 22.528v0c-12.442 0-22.528-10.086-22.528-22.528s10.086-22.528 22.528-22.528v0z" />
<glyph unicode="&#xe957;" glyph-name="si-pushpin" d="M856.064 364.032l145.408 145.408-423.936 425.984-145.408-143.36 59.392-61.44-167.936-167.936c-16.51 9.489-36.3 15.086-57.398 15.086-31.9 0-60.811-12.795-81.881-33.533l-106.481-106.481 188.416-190.464-233.472-231.424 45.056-45.056 233.472 231.424 188.416-190.464 106.496 106.496c21.472 21.181 34.772 50.598 34.772 83.122 0 18.967-4.523 36.878-12.55 52.712l0.306-0.666 169.984 169.984zM524.288 790.016l53.248 53.248 331.776-333.824-53.248-53.248-12.288 12.288-305.152 309.248zM561.152 163.328l-59.392-59.392-333.824 333.824 61.44 59.392c9.326 9.666 22.394 15.669 36.864 15.669s27.538-6.002 36.849-15.653l0.015-0.015 258.048-260.096c9.666-9.326 15.669-22.394 15.669-36.864s-6.002-27.538-15.653-36.849l-0.015-0.015zM585.728 304.64l-215.040 215.040 167.936 165.888 212.992-217.088z" />
<glyph unicode="&#xe958;" glyph-name="si-reply" d="M845.824 617.984c-114.688 112.64-264.192 135.168-327.68 141.312l-4.096 172.032-479.232-315.392 483.328-329.728v210.944h18.432c319.488 0 389.12-268.288 391.168-280.576l61.44-251.904v260.096c0 165.888-49.152 299.008-143.36 393.216zM536.576 558.592h-79.872v-153.6l-311.296 208.896 309.248 204.8 4.096-120.832h28.672c2.048 0 188.416 2.048 315.392-124.928 50.797-49.234 87.58-112.65 103.962-183.86l0.486-2.508c-65.536 83.968-178.176 172.032-370.688 172.032z" />
<glyph unicode="&#xe959;" glyph-name="si-restart" d="M999.424 448c0 269.197-218.227 487.424-487.424 487.424s-487.424-218.227-487.424-487.424c0-269.197 218.227-487.424 487.424-487.424v0c1.765-0.027 3.847-0.043 5.934-0.043 29.070 0 57.439 2.998 84.816 8.703l-2.686-0.468-10.24 83.968c-21.794-5.234-46.815-8.235-72.538-8.235-1.859 0-3.714 0.016-5.565 0.047l0.278-0.004c-0.608-0.003-1.326-0.005-2.045-0.005-223.954 0-405.504 181.55-405.504 405.504s181.55 405.504 405.504 405.504c223.954 0 405.504-181.55 405.504-405.504 0-91.025-29.992-175.045-80.633-242.718l0.758 1.059-51.2 49.152-32.768-118.784-4.096-18.432-28.672-100.352 120.832 32.768 118.784 32.768-61.44 61.44c63.495 82.56 101.924 187.274 102.4 300.946v0.11z" />
<glyph unicode="&#xe95a;" glyph-name="si-search" d="M1003.52 0.307l-253.747 253.338c62.859 72.569 101.16 167.907 101.16 272.19 0 230.175-186.593 416.768-416.768 416.768s-416.768-186.593-416.768-416.768c0-230.175 186.593-416.768 416.768-416.768 104.283 0 199.621 38.301 272.713 101.604l-0.523-0.443 253.338-253.747zM436.224 170.496c-0.121 0-0.265 0-0.41 0-195.337 0-353.69 158.352-353.69 353.69s158.352 353.69 353.69 353.69c195.337 0 353.689-158.352 353.69-353.689v0c-0.233-195.243-158.446-353.456-353.667-353.69h-0.023z" />
<glyph unicode="&#xe95b;" glyph-name="si-selector" d="M186.778 542.822l318.669 302.285 332.39-302.694c5.288-5.070 12.478-8.192 20.398-8.192 0.029 0 0.058 0 0.086 0h-0.004c8.829 0.193 16.73 4.010 22.305 10.015l0.018 0.020c4.917 5.453 7.925 12.712 7.925 20.672 0 8.986-3.832 17.076-9.952 22.726l-352.891 321.965c-5.41 4.854-12.598 7.823-20.48 7.823s-15.070-2.968-20.509-7.848l0.029 0.025-340.378-322.355c-6.218-5.643-10.107-13.756-10.107-22.777 0-16.966 13.754-30.72 30.72-30.72 8.512 0 16.215 3.462 21.779 9.054l0.001 0.001zM837.837 353.587l-332.39-302.694-318.669 302.285c-5.565 5.594-13.268 9.056-21.78 9.056-16.966 0-30.72-13.754-30.72-30.72 0-9.021 3.889-17.134 10.081-22.755l0.026-0.023 339.558-321.946c5.313-5.112 12.515-8.293 20.46-8.397h0.020c7.899 0.069 15.080 3.090 20.506 8.010l-0.026-0.023 354.304 321.946c7.805 5.642 12.825 14.72 12.825 24.97 0 16.966-13.754 30.72-30.72 30.72-9.173 0-17.407-4.021-23.036-10.396l-0.029-0.033z" />
<glyph unicode="&#xe95d;" glyph-name="si-send-2" d="M694.272-14.848l296.96 907.264v4.096c2.048 2.048 2.048 2.048 2.048 4.096v4.096c0 2.048-2.048 4.096-2.048 6.144-0.138 1.637-0.899 3.074-2.042 4.091l-0.006 0.005h-2.048v8.192h-32.768l-903.168-301.056c-11.075-3.31-19.233-12.846-20.469-24.451l-0.011-0.125c-0.026-0.477-0.042-1.036-0.042-1.598 0-8.096 3.132-15.461 8.25-20.948l-0.017 0.018 6.144-4.096 382.976-210.944 215.040-378.88c0-3.339 1.598-6.304 4.070-8.173l0.026-0.019c4.902-4.034 11.242-6.48 18.154-6.48 1.544 0 3.059 0.122 4.537 0.357l-0.163-0.021c11.47 0.338 21.093 7.881 24.522 18.244l0.054 0.188zM860.16 837.12l-415.744-419.84-313.344 172.032zM485.376 376.32l413.696 419.84-239.616-731.136z" />
<glyph unicode="&#xe95e;" glyph-name="si-settings" d="M1001.472 333.312v229.376h-114.688c-7.308 24.696-15.662 45.746-25.636 65.851l1.060-2.363 75.776 75.776-159.744 161.792-73.728-73.728c-24.653 13.826-53.216 25.702-83.218 34.144l-2.798 0.672v112.64h-227.328v-116.736c-27.796-9.203-51.49-19.597-74.005-31.881l2.325 1.161-73.728 73.728-161.792-161.792 77.824-75.776c-8.914-17.742-17.268-38.792-23.834-60.617l-0.742-2.871h-114.688v-229.376h114.688c11.34-39.779 28.15-74.529 49.895-105.567l-0.743 1.119-71.68-71.68 161.792-159.744 88.064 86.016 26.624-8.192v-116.736h227.328v112.64l40.96 14.336 88.064-88.064 161.792 159.744-71.68 71.68c21.002 29.919 37.812 64.669 48.547 101.991l0.605 2.457zM833.536 372.224c-10.617-48.953-32.087-91.768-61.825-127.451l0.385 0.475-16.384-22.528 65.536-65.536-73.728-73.728-73.728 75.776-20.48-10.24c-19.763-8.84-43.614-17.239-68.219-23.792l-3.461-0.784-24.576-4.096v-100.352h-104.448v102.4l-24.576 6.144c-22.061 5.654-41.143 12.659-59.286 21.314l1.942-0.834-20.48 8.192-73.728-73.728-73.728 73.728 65.536 65.536-16.384 22.528c-29.353 35.208-50.823 78.023-61.083 125.027l-0.357 1.949-6.144 22.528h-100.352v106.496h100.352l6.144 22.528c6.676 34.856 19.526 65.812 37.462 93.13l-0.598-0.97 10.24 20.48-65.536 65.536 73.728 73.728 65.536-63.488 20.48 12.288c27.576 18.768 59.671 33.542 94.105 42.531l2.151 0.477 24.576 6.144v102.4h104.448v-100.352l24.576-4.096c41.957-9.484 78.965-25.778 111.764-47.847l-1.172 0.743 20.48-12.288 65.536 63.488 73.728-73.728-67.584-67.584 12.288-20.48c15.834-25.938 28.502-55.98 36.401-87.902l0.463-2.21 6.144-22.528h100.352v-106.496h-100.352zM512 597.504c-82.569 0-149.504-66.935-149.504-149.504s66.935-149.504 149.504-149.504c82.569 0 149.504 66.935 149.504 149.504v0c0 82.569-66.935 149.504-149.504 149.504v0zM512 359.936c-48.636 0-88.064 39.428-88.064 88.064s39.428 88.064 88.064 88.064c48.636 0 88.064-39.428 88.064-88.064v0c0-48.636-39.428-88.064-88.064-88.064v0z" />
<glyph unicode="&#xe95f;" glyph-name="si-share" d="M834.15 279.45c-0.085 0-0.185 0-0.285 0-48.45 0-91.771-21.964-120.547-56.478l-0.204-0.252-345.702 195.789c1.802 8.856 2.845 19.045 2.867 29.473v0.018c0 4.301 0 8.397 0 12.493l348.57 209.715c29.232-31.861 71.061-51.761 117.539-51.761 87.998 0 159.334 71.336 159.334 159.334s-71.336 159.334-159.334 159.334c-87.998 0-159.334-71.336-159.334-159.334 0-19.798 3.611-38.753 10.21-56.242l-0.363 1.097-335.053-201.114c-26.917 50.118-78.969 83.619-138.845 83.619-86.754 0-157.082-70.328-157.082-157.082s70.328-157.082 157.082-157.082c54.379 0 102.304 27.632 130.501 69.621l0.357 0.564 340.173-192.922c-4.417-13.718-6.963-29.499-6.963-45.875v0c0-86.754 70.328-157.082 157.082-157.082s157.082 70.328 157.082 157.082c0 86.754-70.328 157.082-157.082 157.082v0zM834.15 871.936c52.821-0.001 95.64-42.821 95.64-95.642s-42.82-95.642-95.642-95.642c-52.605 0-95.291 42.471-95.639 94.994v0.033c-0.002 0.243-0.004 0.531-0.004 0.819 0 52.708 42.729 95.437 95.437 95.437 0.073 0 0.146 0 0.22 0h-0.011zM213.197 352.358c-52.821 0-95.642 42.82-95.642 95.642s42.82 95.642 95.642 95.642c52.821 0 95.642-42.82 95.642-95.642v0c0-52.821-42.82-95.642-95.642-95.642v0zM834.15 26.931c-0.061 0-0.133 0-0.205 0-52.821 0-95.642 42.82-95.642 95.642s42.82 95.642 95.642 95.642c52.821 0 95.642-42.82 95.642-95.642 0-0.072 0-0.144 0-0.216v0.011c-0.116-52.662-42.775-95.321-95.426-95.437h-0.011z" />
<glyph unicode="&#xe960;" glyph-name="si-shopping-bag" d="M876.544 822.784v96.256h-727.040v-96.256h-59.392v-845.824h843.776v845.824zM210.944 857.6h604.16v-34.816h-604.16zM872.448 38.4h-720.896v722.944h720.896zM360.448 486.912c40.801-30.706 92.328-49.175 148.168-49.175 1.19 0 2.378 0.008 3.563 0.025l-0.179-0.002c110.592 0 225.28 67.584 225.28 198.656h-61.44c0-94.208-86.016-137.216-163.84-137.216s-163.84 43.008-163.84 137.216h-61.44c-0.016-0.909-0.026-1.982-0.026-3.057 0-59.797 28.795-112.869 73.275-146.105l0.478-0.342z" />
<glyph unicode="&#xe961;" glyph-name="si-shopping-cart" d="M995.328 710.144c-5.248 7.478-13.831 12.307-23.543 12.307-0.363 0-0.725-0.007-1.085-0.020l0.052 0.002-724.992-4.096-26.624 61.44c-4.224 10.903-14.628 18.493-26.804 18.493-0.657 0-1.309-0.022-1.955-0.066l0.088 0.005h-137.216c-0.637 0.050-1.378 0.079-2.127 0.079-15.835 0-28.672-12.837-28.672-28.672 0-0.749 0.029-1.49 0.085-2.224l-0.006 0.097c0-16.966 13.754-30.72 30.72-30.72v0h116.736l26.624-59.392 71.68-296.96 26.624-90.112c4.145-12.456 15.232-21.475 28.559-22.521l0.113-0.007h524.288c16.966 0 30.72 13.754 30.72 30.72v0c0 16.966-13.754 30.72-30.72 30.72v0h-499.712l-8.192 28.672h546.816c13.669 0.431 25.053 9.729 28.62 22.311l0.052 0.217 86.016 303.104c0.659 2.291 1.038 4.923 1.038 7.644 0 7.293-2.723 13.95-7.208 19.010l0.026-0.030zM862.208 419.328h-538.624l-59.392 237.568 665.6 4.096zM407.552 232.96c-37.326 0-67.584-30.258-67.584-67.584s30.258-67.584 67.584-67.584c37.326 0 67.584 30.258 67.584 67.584v0c0 37.326-30.258 67.584-67.584 67.584v0zM407.552 138.752c-14.704 0-26.624 11.92-26.624 26.624s11.92 26.624 26.624 26.624c14.704 0 26.624-11.92 26.624-26.624v0c0-14.704-11.92-26.624-26.624-26.624v0zM737.28 232.96c-37.326 0-67.584-30.258-67.584-67.584s30.258-67.584 67.584-67.584c37.326 0 67.584 30.258 67.584 67.584v0c0 37.326-30.258 67.584-67.584 67.584v0zM737.28 138.752c-14.704 0-26.624 11.92-26.624 26.624s11.92 26.624 26.624 26.624c14.704 0 26.624-11.92 26.624-26.624v0c0-14.704-11.92-26.624-26.624-26.624v0z" />
<glyph unicode="&#xe962;" glyph-name="si-slack" d="M719.462 611.84v225.28c-4.591 47.243-44.098 83.871-92.16 83.871s-87.569-36.628-92.13-83.492l-0.030-0.379v-225.28c4.591-47.243 44.098-83.871 92.16-83.871s87.569 36.628 92.13 83.492l0.030 0.379zM596.582 611.84v225.28c2.507 14.892 15.305 26.096 30.72 26.096s28.213-11.204 30.694-25.913l0.026-0.183v-225.28c-2.507-14.892-15.305-26.096-30.72-26.096s-28.213 11.204-30.694 25.913l-0.026 0.183zM396.493 375.706c-0.001 0-0.002 0-0.004 0-50.724 0-91.897-40.887-92.361-91.502v-225.324c3.319-48.297 43.311-86.217 92.16-86.217s88.841 37.921 92.144 85.93l0.016 0.287v225.28c-0.575 50.47-41.452 91.203-91.922 91.545h-0.033zM427.418 57.856c0.13-1.066 0.205-2.301 0.205-3.553 0-17.079-13.846-30.925-30.925-30.925s-30.925 13.846-30.925 30.925c0 1.252 0.074 2.487 0.219 3.7l-0.014-0.147v226.304c1.843 15.482 14.893 27.372 30.72 27.372s28.877-11.89 30.706-27.225l0.014-0.147zM902.144 424.858h-226.304c-2.608 0.261-5.636 0.41-8.699 0.41-51.125 0-92.57-41.445-92.57-92.57s41.445-92.57 92.57-92.57c3.063 0 6.091 0.149 9.078 0.439l-0.379-0.030h225.28c47.243 4.591 83.871 44.098 83.871 92.16s-36.628 87.569-83.492 92.13l-0.379 0.030zM902.144 301.978h-226.304c-1.513-0.261-3.256-0.41-5.033-0.41-17.192 0-31.13 13.937-31.13 31.13s13.937 31.13 31.13 31.13c1.777 0 3.52-0.149 5.216-0.435l-0.183 0.026h225.28c14.892-2.507 26.096-15.305 26.096-30.72s-11.204-28.213-25.913-30.694l-0.183-0.026zM122.88 471.142h225.28c1.839-0.13 3.984-0.205 6.147-0.205 51.012 0 92.365 41.353 92.365 92.365s-41.353 92.365-92.365 92.365c-2.163 0-4.309-0.074-6.435-0.221l0.287 0.016h-225.28c-48.297-3.319-86.217-43.311-86.217-92.16s37.921-88.841 85.93-92.144l0.287-0.016zM122.88 594.022h225.28c1.066 0.13 2.301 0.205 3.553 0.205 17.079 0 30.925-13.846 30.925-30.925s-13.846-30.925-30.925-30.925c-1.252 0-2.487 0.074-3.7 0.219l0.147-0.014h-225.28c-1.066-0.13-2.301-0.205-3.553-0.205-17.079 0-30.925 13.846-30.925 30.925s13.846 30.925 30.925 30.925c1.252 0 2.487-0.074 3.7-0.219l-0.147 0.014zM350.618 740.864h99.942v99.738c0.001 0.121 0.001 0.265 0.001 0.409 0 55.31-44.837 100.147-100.147 100.147s-100.147-44.837-100.147-100.147c0-55.31 44.837-100.147 100.147-100.147 0.144 0 0.287 0 0.431 0.001h-0.022zM350.618 879.514c21.268-0.344 38.39-17.61 38.502-38.901v-38.309h-38.502c0 0 0 0-0.001 0-21.532 0-39 17.397-39.116 38.901v0.011c0 21.151 17.146 38.298 38.298 38.298v0zM1004.954 611.84c-0.117 53.977-43.901 97.69-97.894 97.69 0 0 0 0 0 0v0c-56.554 0-102.4-45.846-102.4-102.4v0-97.69h97.894c56.554 0 102.4 45.846 102.4 102.4v0zM866.304 607.334c0 22.622 18.338 40.96 40.96 40.96v0c20.045-0.116 36.25-16.393 36.25-36.454 0 0 0 0 0-0.001v0c0-22.622-18.338-40.96-40.96-40.96v0h-36.25zM673.178 155.341h-99.738v-100.147c0.001-55.309 44.838-100.145 100.147-100.145s100.147 44.837 100.147 100.147c0 55.31-44.837 100.147-100.147 100.147-0.216 0-0.432-0.001-0.648-0.002h0.033zM673.178 16.486c-21.201 0.232-38.298 17.472-38.298 38.705 0 0.001 0 0.002 0 0.002v0 38.707h38.093c21.717 0 39.322-17.605 39.322-39.322v0c-0.231-21.087-17.38-38.093-38.5-38.093-0.001 0-0.002 0-0.002 0v0zM19.046 285.594c0.116-54.924 44.609-99.416 99.522-99.533h0.011c55.489 0.116 100.44 45.068 100.557 100.546v99.953h-99.533c0 0-0.001 0-0.001 0-55.536 0-100.557-45.021-100.557-100.557 0-0.144 0-0.288 0.001-0.432v0.022zM157.696 285.594c-0.116-21.557-17.56-39.001-39.106-39.117h-0.011c-21.038 0-38.093 17.055-38.093 38.093v0c-0.017 0.428-0.026 0.929-0.026 1.434 0 21.604 17.513 39.117 39.117 39.117 0.009 0 0.018 0 0.028 0h38.091z" />
<glyph unicode="&#xe963;" glyph-name="si-speaker" d="M256 843.946c-30.161 0-54.613-24.451-54.613-54.613v-682.667c0-30.163 24.452-54.614 54.613-54.614h512c30.163 0 54.614 24.451 54.614 54.614v682.667c0 30.162-24.451 54.613-54.614 54.613h-512zM139.947 789.333c0 64.094 51.959 116.053 116.053 116.053h512c64.094 0 116.054-51.959 116.054-116.053v-682.667c0-64.094-51.96-116.054-116.054-116.054h-512c-64.094 0-116.053 51.96-116.053 116.054v682.667zM481.28 704c0 16.966 13.754 30.72 30.72 30.72h0.444c16.966 0 30.72-13.754 30.72-30.72s-13.754-30.72-30.72-30.72h-0.444c-16.966 0-30.72 13.754-30.72 30.72zM372.054 362.668c0 77.289 62.654 139.946 139.946 139.946 77.289 0 139.946-62.657 139.946-139.946 0-77.292-62.657-139.948-139.946-139.948-77.292 0-139.946 62.657-139.946 139.948zM512 564.054c-111.223 0-201.386-90.163-201.386-201.386s90.163-201.388 201.386-201.388c111.223 0 201.386 90.165 201.386 201.388s-90.163 201.386-201.386 201.386z" />
<glyph unicode="&#xe964;" glyph-name="si-star" d="M988.979 569.856h-363.11l-113.869 368.435-113.869-368.64h-363.11l293.683-224.051-113.050-366.592 296.346 226.509 296.346-226.509-112.026 366.592zM512 282.726l-181.043-138.24 69.222 223.846-184.32 140.083h227.738l68.403 221.798 68.403-221.798h226.918l-184.32-140.083 69.222-223.846z" />
<glyph unicode="&#xe965;" glyph-name="si-tag" d="M561.302 122.536l-21.869-21.576c11.915-12.077 31.365-12.21 43.442-0.295l-21.574 21.871zM278.985 408.697l-30.628 2.378c-0.688-8.876 2.507-17.615 8.759-23.953l21.869 21.576zM297.871 652.003l-1.964 30.659c-15.262-0.979-27.48-13.033-28.664-28.281l30.628-2.378zM541.411 667.595l21.869 21.576c-6.253 6.337-14.946 9.65-23.833 9.083l1.964-30.659zM823.726 381.434l21.576-21.869c12.077 11.915 12.21 31.365 0.293 43.442l-21.869-21.574zM583.17 144.11l-282.317 286.163-43.737-43.151 282.317-286.161 43.737 43.149zM309.613 406.319l18.887 243.306-61.256 4.755-18.887-243.306 61.256-4.755zM299.833 621.347l243.54 15.591-3.926 61.315-243.54-15.591 3.926-61.315zM519.543 646.021l282.315-286.163 43.737 43.149-282.315 286.163-43.737-43.149zM802.152 403.302l-262.427-258.898 43.149-43.739 262.427 258.9-43.149 43.737zM408.531 533.461c-7.998-7.998-20.965-7.998-28.963 0s-7.998 20.965 0 28.963c7.998 7.998 20.965 7.998 28.963 0s7.998-20.965 0-28.963z" />
<glyph unicode="&#xe966;" glyph-name="si-thumbs-down" d="M883.712 933.581h-689.766c-48.987-1.028-88.345-40.817-88.678-89.875v-0.032l-69.018-430.080c-0.464-3.433-0.728-7.402-0.728-11.432 0-42.1 28.871-77.457 67.894-87.352l0.623-0.134 4.915-1.638 309.658 3.277 2.253-215.040c1.843-42.189 24.986-117.76 99.533-133.53l26.010-5.325 186.163 418.611h151.142c57.864 0.116 104.741 46.993 104.858 104.846v343.051c-0.117 57.823-47.018 104.653-104.857 104.653 0 0 0 0 0 0v0zM512 44.954c-13.478 15.685-22.254 35.762-23.941 57.821l-0.021 0.342-3.072 279.962-364.749-3.686c-15.77 6.349-18.432 16.794-17.613 23.757l68.198 431.309v2.662c2.048 24.781 13.107 30.31 22.118 30.72h484.557v-446.669zM921.6 485.888c-0.448-20.742-17.146-37.44-37.846-37.887l-0.042-0.001h-139.674v419.635h139.674c21.022-0.459 37.888-17.609 37.888-38.699 0-0.003 0-0.006 0-0.009v0z" />
<glyph unicode="&#xe967;" glyph-name="si-thumbs-up" d="M140.288-37.581h689.766c48.987 1.028 88.345 40.817 88.678 89.875v0.032l69.018 430.080c0.45 3.386 0.707 7.302 0.707 11.277 0 42.132-28.849 77.525-67.87 87.505l-0.626 0.136-4.915 1.638-309.658-3.277-2.253 215.040c-1.843 42.394-24.986 117.76-99.533 133.53l-26.214 5.325-185.958-418.611h-151.142c-57.864-0.116-104.741-46.993-104.858-104.846v-343.051c0.117-57.823 47.018-104.653 104.857-104.653 0 0 0 0 0 0v0zM513.024 851.046c13.478-15.685 22.254-35.762 23.941-57.821l0.021-0.342 3.072-279.962 364.749 3.686c15.77-6.349 18.432-16.794 17.613-23.757l-69.222-431.309v-2.662c-2.048-24.781-13.107-30.31-22.118-30.72h-484.762v446.669zM102.4 410.112c0.448 20.742 17.146 37.44 37.846 37.887l0.042 0.001h139.469v-419.635h-139.469c-21.022 0.459-37.888 17.609-37.888 38.699 0 0.003 0 0.006 0 0.009v0z" />
<glyph unicode="&#xe968;" glyph-name="si-time" d="M921.6 448c0 226.216-183.384 409.6-409.6 409.6s-409.6-183.384-409.6-409.6c0-226.216 183.384-409.6 409.6-409.6s409.6 183.384 409.6 409.6zM983.040 448c0-260.147-210.893-471.040-471.040-471.040s-471.040 210.893-471.040 471.040c0 260.147 210.893 471.040 471.040 471.040s471.040-210.893 471.040-471.040zM500.054 661.334c0 16.966-13.754 30.72-30.72 30.72-16.968 0-30.72-13.754-30.72-30.72v-294.57c0-19.229 15.587-34.816 34.816-34.816h209.236c16.968 0 30.72 13.752 30.72 30.72 0 16.966-13.752 30.72-30.72 30.72h-182.612v267.946z" />
<glyph unicode="&#xe969;" glyph-name="si-tv" d="M320.389 896.389c-11.997 11.997-31.447 11.997-43.444 0s-11.997-31.448 0-43.445l160.889-160.89h-267.167c-64.094 0-116.053-51.96-116.053-116.054v-469.332c0-64.096 51.959-116.054 116.053-116.054h682.668c64.094 0 116.052 51.958 116.052 116.054v469.332c0 64.094-51.958 116.054-116.052 116.054h-267.168l160.889 160.89c11.997 11.997 11.997 31.448 0 43.445s-31.447 11.997-43.444 0l-191.611-191.61-191.611 191.61zM511.773 630.614c0.152-0.002 0.303-0.002 0.455 0h341.107c30.161 0 54.612-24.451 54.612-54.614v-469.332c0-30.163-24.451-54.614-54.612-54.614h-682.668c-30.162 0-54.613 24.451-54.613 54.614v469.332c0 30.163 24.451 54.614 54.613 54.614h341.106z" />
<glyph unicode="&#xe96a;" glyph-name="si-twitter" d="M396.698 93.901c-102.16 0.005-197.63 28.647-278.821 78.337l2.341-1.332-97.075 59.187 112.026-20.48c13.31-2.221 28.647-3.49 44.279-3.49 54.863 0 106.075 15.632 149.424 42.686l-1.192-0.693c-59.491 19.2-108.095 58.108-139.251 108.878l-0.627 1.099c-91.341 151.347-23.962 381.338-20.070 390.963l11.674 38.502 25.395-32.358c73.998-88.805 179.565-149.115 299.252-163.621l2.214-0.219c-0.75 6.188-1.178 13.352-1.178 20.617 0 68.698 38.263 128.459 94.64 159.134l0.951 0.473c26.552 15.433 58.433 24.543 92.442 24.543 50.469 0 96.253-20.061 129.812-52.644l-0.046 0.044c33.822 9.906 63.092 22.169 90.619 37.222l-2.351-1.177 42.803 22.528-11.878-46.899c-4.969-18.179-12.624-34.079-22.639-48.186l0.315 0.468c9.626 3.482 15.36 6.144 15.565 6.144l66.15 30.925-39.322-61.44c-23.589-32.246-50.597-60.035-80.989-83.68l-0.931-0.697c0-193.741-84.378-353.894-234.496-440.32-70.684-40.586-155.404-64.523-245.714-64.523-1.168 0-2.335 0.004-3.501 0.012l0.179-0.001zM226.304 166.605c49.83-19.436 107.516-30.7 167.833-30.7 84.468 0 163.777 22.089 232.466 60.806l-2.373-1.23c141.312 81.92 216.883 227.942 213.197 413.286v10.854l8.602 6.554s14.336 10.854 31.334 26.214c-8.176-1.604-17.887-2.774-27.778-3.258l-0.484-0.019-96.256-5.12 85.197 45.056c12.040 7.189 22.407 15.536 31.476 25.123l0.063 0.068c-15.322-6.764-33.099-11.735-51.702-14.037l-0.932-0.094h-9.83l-6.554 6.963c-26.806 28.712-64.88 46.609-107.134 46.609-26.492 0-51.34-7.035-72.78-19.339l0.714 0.378c-44.049-24.401-73.375-70.609-73.375-123.667 0-13.2 1.815-25.976 5.209-38.092l-0.237 0.992 6.554-26.624h-27.034c-131.384 6.628-248.409 63.138-333.499 150.814l-0.12 0.124c-14.541-69.222-35.021-216.883 26.419-318.259 34.459-54.507 90.635-92.618 156.076-102.254l1.211-0.146 42.189-7.987-31.949-28.672c-45.815-37.867-102.422-64.282-164.551-74.089l-1.952-0.254z" />
<glyph unicode="&#xe96b;" glyph-name="si-upload" d="M942.080 448v-438.067h-860.16v438.067h-61.44v-499.507h983.040v499.507h-61.44zM481.28 818.893v-532.48h61.44v532.48l248.627-264.602 44.646 41.984-323.994 344.883-323.994-344.883 44.646-41.984 248.627 264.602z" />
<glyph unicode="&#xe96c;" glyph-name="si-upload-2" d="M20.685 18.125h982.63v-61.44h-982.63v61.44zM482.304 817.459v-727.45h61.44v725.811l173.466-185.958 45.056 41.779-249.651 267.674-251.494-267.469 44.851-42.189 176.333 187.802z" />
<glyph unicode="&#xe96d;" glyph-name="si-user" d="M675.84 457.421h-327.68c-0.001 0-0.001 0-0.002 0-152.449 0-276.101-123.293-276.683-275.605v-225.336h880.64v225.28c-0.581 152.225-124.002 275.429-276.253 275.661h-0.022zM890.675 17.92h-757.76v163.84c0.582 118.435 96.726 214.221 215.242 214.221 0.001 0 0.002 0 0.003 0h327.68c118.341-0.231 214.255-95.928 214.835-214.165v-0.056zM512 491.008c120.46 0 218.112 97.652 218.112 218.112s-97.652 218.112-218.112 218.112c-120.46 0-218.112-97.652-218.112-218.112v0c0-120.46 97.652-218.112 218.112-218.112v0zM512 865.792c86.528 0 156.672-70.144 156.672-156.672s-70.144-156.672-156.672-156.672c-86.528 0-156.672 70.144-156.672 156.672v0c0.116 86.481 70.191 156.555 156.661 156.672h0.011z" />
<glyph unicode="&#xe96e;" glyph-name="si-users" d="M464.896 458.24h-239.616c-0.003 0-0.007 0-0.011 0-109.715 0-198.656-88.941-198.656-198.656 0-0.72 0.004-1.439 0.011-2.158l-0.001 0.11v-161.792h636.928v161.792c0.007 0.609 0.011 1.328 0.011 2.048 0 109.715-88.941 198.656-198.656 198.656-0.004 0-0.007 0-0.011 0v0zM620.544 140.8h-550.912v116.736c0 0.004 0 0.009 0 0.013 0 86.373 69.44 156.527 155.539 157.682l0.109 0.001h239.616c86.208-1.155 155.648-71.31 155.648-157.683 0-0.005 0-0.009 0-0.014v0.001zM346.112 482.816c88.224 0 159.744 71.52 159.744 159.744s-71.52 159.744-159.744 159.744c-88.224 0-159.744-71.52-159.744-159.744v0c0-88.224 71.52-159.744 159.744-159.744v0zM346.112 755.2c63.333-0.010 114.67-51.354 114.67-114.688 0-63.34-51.348-114.688-114.688-114.688s-114.688 51.348-114.688 114.688c0 0.72 0.007 1.439 0.020 2.156l-0.002-0.108c0 0.005 0 0.012 0 0.019 0 62.209 50.431 112.64 112.64 112.64 0.72 0 1.439-0.007 2.156-0.020l-0.108 0.002zM821.248 417.28h-169.984c8.359-11.211 16.502-23.934 23.735-37.224l0.841-1.688h145.408c75.782 0 137.216-61.434 137.216-137.216v0-104.448h-245.76c-0.27-14.662-1.748-28.791-4.342-42.527l0.246 1.567h288.768v145.408c-1.142 96.81-79.318 174.986-176.019 176.127l-0.109 0.001zM714.752 439.808c0.609-0.009 1.328-0.015 2.048-0.015 78.044 0 141.312 63.268 141.312 141.312s-63.268 141.312-141.312 141.312c-78.039 0-141.304-63.259-141.312-141.296v-0.001c-0.010-0.609-0.015-1.328-0.015-2.048 0-76.913 62.351-139.264 139.264-139.264 0.005 0 0.011 0 0.016 0h-0.001zM714.752 671.232c50.889-0.013 92.137-41.269 92.137-92.16 0-50.899-41.261-92.16-92.16-92.16s-92.16 41.261-92.16 92.16c0 0.72 0.008 1.438 0.025 2.154l-0.002-0.106c1.147 50.010 41.959 90.112 92.137 90.112 0.008 0 0.016 0 0.024 0h-0.001z" />
</font>
</defs>
</svg>
